/* XPM */
static char *pinta[] = {
/* columns rows colors chars-per-pixel */
"32 32 248 2",
"   c #000000",
".  c #030303",
"X  c #121212",
"o  c #171717",
"O  c #1B1B1B",
"+  c #1E1E1E",
"@  c #222222",
"#  c #252525",
"$  c #2B2B2B",
"%  c #303030",
"&  c #313131",
"*  c #3A3A3A",
"=  c #3C3C3C",
"-  c #673806",
";  c #673906",
":  c #673907",
">  c #673A06",
",  c #673A07",
"<  c #683907",
"1  c #693907",
"2  c #683A06",
"3  c #693A07",
"4  c #6A3B07",
"5  c #6A3C07",
"6  c #6E3D07",
"7  c #683908",
"8  c #6E3D08",
"9  c #6E3E08",
"0  c #734008",
"q  c #73522E",
"w  c #2F4A76",
"e  c #454545",
"r  c #474747",
"t  c #4D4D4D",
"y  c #4E4E4E",
"u  c #515151",
"i  c #525252",
"p  c #5A5A5A",
"a  c #5B5B5B",
"s  c #5C5C5C",
"d  c #5D5D5D",
"f  c #5E5E5E",
"g  c #5F5F5F",
"h  c #665A4E",
"j  c #755F47",
"k  c #675E56",
"l  c #7E664A",
"z  c #4F5967",
"x  c #5B6775",
"c  c #53677D",
"v  c #5B6878",
"b  c #5C6979",
"n  c #606060",
"m  c #616161",
"M  c #626262",
"N  c #636363",
"B  c #646464",
"V  c #656564",
"C  c #636669",
"Z  c #6A6A6A",
"A  c #6C6C6C",
"S  c #716A64",
"D  c #727272",
"F  c #747474",
"G  c #757575",
"H  c #757675",
"J  c #71777E",
"K  c #8F4E09",
"L  c #9D570B",
"P  c #9F580C",
"I  c #8C5214",
"U  c #A0590B",
"Y  c #A3590B",
"T  c #A75C0C",
"R  c #AC5E0D",
"E  c #AC600D",
"W  c #B4630D",
"Q  c #BB670E",
"!  c #BC6A13",
"~  c #87613D",
"^  c #92683C",
"/  c #D57510",
"(  c #DB7810",
")  c #E07B11",
"_  c #827A6E",
"`  c #A9875F",
"'  c #80807D",
"]  c #80827D",
"[  c #234A84",
"{  c #204A87",
"}  c #214B87",
"|  c #264B84",
" . c #284C83",
".. c #2A4E83",
"X. c #294D84",
"o. c #214C88",
"O. c #234E8B",
"+. c #26518C",
"@. c #2E5D98",
"#. c #3C669E",
"$. c #46688C",
"%. c #576B82",
"&. c #547499",
"*. c #4772A0",
"=. c #4174AE",
"-. c #537EAD",
";. c #467CB6",
":. c #5882AF",
">. c #4F81B8",
",. c #4C81BA",
"<. c #5386BD",
"1. c #5F8BBA",
"2. c #5B8ABF",
"3. c #6083AA",
"4. c #6090C4",
"5. c #6A96C5",
"6. c #6B97C7",
"7. c #6F9AC6",
"8. c #6C9ACC",
"9. c #7A9DC5",
"0. c #7BA1CA",
"q. c #888A85",
"w. c #898B86",
"e. c #8A8B87",
"r. c #8A8C86",
"t. c #8A8C87",
"y. c #8B8D87",
"u. c #8E8E86",
"i. c #8B8C88",
"p. c #8A8D88",
"a. c #8D8D8D",
"s. c #808993",
"d. c #989995",
"f. c #9C9B95",
"g. c #9B9B9B",
"h. c #9B9C9C",
"j. c #9FA09D",
"k. c #A0A19D",
"l. c #8E98A5",
"z. c #98AABC",
"x. c #A1A3A0",
"c. c #A5A6A4",
"v. c #ACADAB",
"b. c #ABABAC",
"n. c #AEAEAE",
"m. c #AFAFAF",
"M. c #B3B3B3",
"N. c #B5B5B3",
"B. c #B4B4B4",
"V. c #B5B5B5",
"C. c #B6B6B6",
"Z. c #B7B7B7",
"A. c #B8B8B8",
"S. c #BBBBBB",
"D. c #BCBCBB",
"F. c #BDBDBD",
"G. c #BEBEBE",
"H. c #BFBFBF",
"J. c #8CA5C0",
"K. c #9AAFC7",
"L. c #9AB6D4",
"P. c #96B7DB",
"I. c #9BBBDD",
"U. c #A3B3C6",
"Y. c #A7BACE",
"T. c #ACB9C8",
"R. c #A2BFDF",
"E. c #A2C0DF",
"W. c #BCC7D2",
"Q. c #B0C4DA",
"!. c #A5C2E0",
"~. c #ADC7E3",
"^. c #B0CAE4",
"/. c #B6CDE7",
"(. c #BED0E3",
"). c #BFD1E5",
"_. c #C0C0C0",
"`. c #C2C2C2",
"'. c #C3C3C3",
"]. c #C4C4C4",
"[. c #C5C5C5",
"{. c #C6C6C6",
"}. c #C8C8C8",
"|. c #CACACA",
" X c #CACBCA",
".X c #CCCCCC",
"XX c #CDCDCD",
"oX c #CECECE",
"OX c #C4CED9",
"+X c #C7D0DA",
"@X c #C3D1DE",
"#X c #D0D0D0",
"$X c #D2D2D1",
"%X c #D2D2D2",
"&X c #D3D3D3",
"*X c #D4D4D4",
"=X c #D5D5D5",
"-X c #D4D5D7",
";X c #D7D7D7",
":X c #D7DADD",
">X c #D8D8D8",
",X c #D9D9D9",
"<X c #DBDBDB",
"1X c #DCDCDC",
"2X c #DDDDDD",
"3X c #DFDFDF",
"4X c #C0D3E7",
"5X c #C0D4EA",
"6X c #C3D6EA",
"7X c #CFDEEF",
"8X c #D5DEE6",
"9X c #D1DEEB",
"0X c #D6E0EC",
"qX c #DCE4EC",
"wX c #DEE9F4",
"eX c #E1E1E1",
"rX c #E2E2E2",
"tX c #E3E3E3",
"yX c #E4E5E4",
"uX c #E5E5E5",
"iX c #E6E6E6",
"pX c #E7E7E7",
"aX c #E8E8E8",
"sX c #E9E9E9",
"dX c #EAEAEA",
"fX c #EBEBEB",
"gX c #EBEDEF",
"hX c #ECECEC",
"jX c #EDEDED",
"kX c #EEEEEE",
"lX c #F0F0F0",
"zX c #F1F1F1",
"xX c #F2F2F2",
"cX c #F3F3F3",
"vX c #F4F4F4",
"bX c #F5F5F5",
"nX c #F6F6F6",
"mX c #F7F7F7",
"MX c #F8F8F8",
"NX c #F9F9F9",
"BX c #FAFAFA",
"VX c #FBFBFB",
"CX c #FBFCFC",
"ZX c #FCFCFC",
"AX c #FDFDFD",
"SX c #FEFEFE",
"DX c #FFFFFF",
"FX c None",
/* pixels */
"FXFXFXFXFXFXFXFXFXFXFXFXFXFXFXFXFXFXFXFXFXFXFXFXFXFX7 FXFXFXFXFX",
"FXFXFXFXFXFXFXFXFXFXFXFXFXFXFXFXFXFXFXFXFXFXFXFXFX: I 9 FXFXFXFX",
"FXFXFXFXFXFXFXFXFXFXFXFXFXFXFXFXFXFXFXFXFXFXFXFX: L 6 FXFXFXFXFX",
"FXFXFXFXFXFXFXFXFXFXFXFXFXFXFXFXFXFXFXFXFXFXFX2 L K 5 FXFXFXFXFX",
"FXFXFXFXFXFXFXFXFXFXFXFXFXFXFXFXFXFXFXFXFXX.| { ..w | FXFXFXFXFX",
"FXFXFXFXFXFXFXFXFXFXFXFXFXFXFXFXFXFXFX+.#.9.2.7.>.=.@.O.FXFXFXFX",
"FXFXFXFXFXFXFXFXFXFXFXFXFXFXFXFXFXFXFX{ 8.Q.4.0.<.,.;.{ FXFXFXFX",
"FXFXFXFXFXFXFXFXFXFXFXFXFXFXFXFXFXFXFX{ 8.L.4.5.<.,.;.{ FXFXFXFX",
"FXFXFXFXFXFXFXFXFXFXFXFXFXFXFXFXFXFX: ..&.%.b x v c $.o.FXFXFXFX",
"FXFXFXFXFXFXFXFXFXFXFXFXFXFXFXFXFX2 9 ~ g.xXBXAXCXbXb.z FXFXFXFX",
"FXFXFXFXFXFXFXFXFXFXFXFXFXFXFXFX2 8 ! S ZXAXAXVXBXAXAXa.FXFXFXFX",
"FXFXFXFXFXFXFXFXFXFXFXFXFXFXFX7 4 Q ^ D.ZXAXkX2X,X*X2XoXm FXFXFX",
"FXFXFXFXFXFXFXFXFXFXFXFXFXFX7 2 W / j %XCXCXgX8X*X*X%X<Xm FXFXFX",
"FXFXFXFXFXFXFXFXFXFXFXFXFX2 2 R ( Y h @X6XwX!.6.1.:.3.OXf FXFXFX",
"FXFXFXFXFXFXFXFXFXFXFXFX_ q Y ) T 2 k )./.7X!.6.1.-.*.Y.C FXFXFX",
"FXFXFXFXFXFXFXFXFXFXFXFXq.u.` E 9 : V ).~.).I.6.1.-.*.K.J FXFXFX",
"FXFXFXFXFXFXFXFXFXFXFXt.%XuXf.l 2 FXN 4XR.^.P.6.1.-.*.z.3.FXFXFX",
"FXFXFXFXFXFXFXFXFXFXp.|.uXtXk.q.FXFXm 0X9XuX8XOXW.T.z.U.g.FXFXFX",
"FXFXFXFXFXFXFXFXFXt.N.BXtXv.t.FXFXFXk vXvXlXdX8X,X-XoX>XV.k FXFX",
"FXFXFXFXFXFXFXFXFXk.BXtXc.t.FXFXFXFXd vXxXjX2X[.'..XoX&X'.N FXFX",
"FXFXFXFXFXFXFXFXd.bXpXj.q.FXFXFXFXFXs NXzX-Xm.m.m.m.T.%X#XB FXFX",
"FXFXFXFXFXFXFX' uXsXd.t.FXFXFXFXFXFXB BXuXC.V.V.N.N.N.{.2Xg FXFX",
"FXFXFXFXFXr F i F p.t.FXFXFXFXFXFXFXA MXoX].`._._.D.S.S.uXf FXFX",
"FXFXFXFX& f h.m y ' FXFXFXFXFXFXFXFXG gX|.}.[.'._._.S.C.,XZ FXFX",
"FXFXFXo y i y i e FXFXFXFXFXFXFXFXg k V V m B m N N N N V k B FX",
"FXFX  O $ & * = & FXFXFXFXFXFXFXFXF xXxXxXxXlXkXhXdXaXiXuXrXp FX",
"FX    . X + # @ FXFXFXFXFXFXFXFXFXD rXrX8X2X2X,X;X=X=X$X#XoXp FX",
"FXFXFXFXFXFXFXFXFXFXFXFXFXFXFXFXFXf p p p p p p p p p p p p g FX",
"FXFXFXFXFXFXFXFXFXFXFXFXFXFXFXFXFXFXFXFXFXFXFXFXFXFXFXFXFXFXFXFX",
"FXFXFXFXFXFXFXFXFXFXFXFXFXFXFXFXFXFXFXFXFXFXFXFXFXFXFXFXFXFXFXFX",
"FXFXFXFXFXFXFXFXFXFXFXFXFXFXFXFXFXFXFXFXFXFXFXFXFXFXFXFXFXFXFXFX",
"FXFXFXFXFXFXFXFXFXFXFXFXFXFXFXFXFXFXFXFXFXFXFXFXFXFXFXFXFXFXFXFX"
};
