<?xml version="1.0" encoding="UTF-8" standalone="no"?>
<svg
   height="16px"
   viewBox="0 0 16 16"
   width="16px"
   version="1.1"
   id="svg15572"
   sodipodi:docname="adjustments-brightnesscontrast.svg"
   inkscape:export-filename="/mnt/external/cloud/design/gnome/image.svg"
   inkscape:version="1.4.3 (0d15f75042, 2025-12-25)"
   xmlns:inkscape="http://www.inkscape.org/namespaces/inkscape"
   xmlns:sodipodi="http://sodipodi.sourceforge.net/DTD/sodipodi-0.dtd"
   xmlns="http://www.w3.org/2000/svg"
   xmlns:svg="http://www.w3.org/2000/svg">
  <sodipodi:namedview
     id="namedview1"
     pagecolor="#ffffff"
     bordercolor="#000000"
     borderopacity="0.25"
     inkscape:showpageshadow="2"
     inkscape:pageopacity="0.0"
     inkscape:pagecheckerboard="0"
     inkscape:deskcolor="#d1d1d1"
     showborder="false"
     inkscape:zoom="37.375"
     inkscape:cx="8.5752508"
     inkscape:cy="10.729097"
     inkscape:window-width="2560"
     inkscape:window-height="1403"
     inkscape:window-x="0"
     inkscape:window-y="0"
     inkscape:window-maximized="1"
     inkscape:current-layer="svg15572" />
  <defs
     id="defs15576" />
  <inkscape:templateinfo>
    <inkscape:name>morewaita-symbolic</inkscape:name>
    <inkscape:date>2025-09-24</inkscape:date>
  </inkscape:templateinfo>
  <path
     d="M 8,0 C 7.445312,0 7,0.445312 7,1 V 2 C 7,2.554688 7.445312,3 8,3 8.554688,3 9,2.554688 9,2 V 1 C 9,0.445312 8.554688,0 8,0 Z M 3.003906,2.003906 c -0.253906,0 -0.507812,0.097656 -0.707031,0.292969 -0.390625,0.394531 -0.390625,1.023437 0,1.414063 l 0.707031,0.707031 c 0.394532,0.394531 1.023438,0.394531 1.414063,0 0.394531,-0.390625 0.394531,-1.019531 0,-1.414063 L 3.710938,2.296875 C 3.515625,2.101562 3.261719,2.003906 3.003906,2.003906 Z m 9.988282,0 c -0.253907,0 -0.507813,0.097656 -0.707032,0.292969 l -0.707031,0.707031 c -0.390625,0.394532 -0.390625,1.023438 0,1.414063 0.394531,0.394531 1.023437,0.394531 1.414063,0 l 0.707031,-0.707031 c 0.394531,-0.390626 0.394531,-1.019532 0,-1.414063 C 13.503906,2.101562 13.25,2.003906 12.992188,2.003906 Z M 8,4 C 5.789062,4 4,5.789062 4,8 c 0,2.210938 1.789062,4 4,4 2.207031,0 4,-1.789062 4,-4 C 12,5.789062 10.207031,4 8,4 Z m 0,2 c 1.105469,0 2,0.894531 2,2 0,1.105469 -0.894531,2 -2,2 C 6.894531,10 6,9.105469 6,8 6,6.894531 6.894531,6 8,6 Z M 1,7 C 0.445312,7 0,7.445312 0,8 0,8.554688 0.445312,9 1,9 H 2 C 2.554688,9 3,8.554688 3,8 3,7.445312 2.554688,7 2,7 Z m 13,0 c -0.554688,0 -1,0.445312 -1,1 0,0.554688 0.445312,1 1,1 h 1 C 15.554688,9 16,8.554688 16,8 16,7.445312 15.554688,7 15,7 Z M 3.664062,11.285156 C 3.425781,11.296875 3.1875,11.394531 3.003906,11.578125 l -0.707031,0.707031 c -0.390625,0.394532 -0.390625,1.023438 0,1.414063 0.394531,0.394531 1.023437,0.394531 1.414063,0 l 0.707031,-0.707031 c 0.394531,-0.390626 0.394531,-1.019532 0,-1.414063 C 4.210938,11.371094 3.933594,11.273438 3.664062,11.285156 Z m 8.574219,0 C 12,11.296875 11.761719,11.394531 11.578125,11.578125 c -0.390625,0.394531 -0.390625,1.023437 0,1.414063 l 0.707031,0.707031 c 0.394532,0.394531 1.023438,0.394531 1.414063,0 0.394531,-0.390625 0.394531,-1.019531 0,-1.414063 L 12.992188,11.578125 C 12.785156,11.371094 12.507812,11.273438 12.238281,11.285156 Z M 7.945312,13 C 7.417969,13.027344 7,13.464844 7,14 v 1 c 0,0.554688 0.445312,1 1,1 0.554688,0 1,-0.445312 1,-1 V 14 C 9,13.445312 8.554688,13 8,13 7.984375,13 7.964844,13 7.945312,13 Z m 0,0"
     fill="#222222"
     id="path1"
     style="fill:#000000;fill-opacity:1" />
</svg>
