<?xml version="1.0" encoding="UTF-8" standalone="no"?>
<svg
   height="16px"
   viewBox="0 0 16 16"
   width="16px"
   version="1.1"
   id="svg15572"
   sodipodi:docname="effects-object-feather.svg"
   inkscape:export-filename="/mnt/external/cloud/design/gnome/image.svg"
   inkscape:version="1.4.3 (0d15f75042, 2025-12-25)"
   xmlns:inkscape="http://www.inkscape.org/namespaces/inkscape"
   xmlns:sodipodi="http://sodipodi.sourceforge.net/DTD/sodipodi-0.dtd"
   xmlns="http://www.w3.org/2000/svg"
   xmlns:svg="http://www.w3.org/2000/svg">
  <sodipodi:namedview
     id="namedview1"
     pagecolor="#ffffff"
     bordercolor="#000000"
     borderopacity="0.25"
     inkscape:showpageshadow="2"
     inkscape:pageopacity="0.0"
     inkscape:pagecheckerboard="0"
     inkscape:deskcolor="#d1d1d1"
     showborder="false"
     inkscape:zoom="22.627417"
     inkscape:cx="10.230951"
     inkscape:cy="9.9878833"
     inkscape:window-width="2560"
     inkscape:window-height="1403"
     inkscape:window-x="0"
     inkscape:window-y="0"
     inkscape:window-maximized="1"
     inkscape:current-layer="svg15572" />
  <defs
     id="defs15576">
    <inkscape:path-effect
       effect="simplify"
       id="path-effect3"
       is_visible="true"
       lpeversion="1.3"
       threshold="5000.000000"
       steps="1"
       smooth_angles="360"
       helper_size="0"
       simplify_individual_paths="false"
       simplify_just_coalesce="false" />
    <inkscape:path-effect
       effect="fillet_chamfer"
       id="path-effect2"
       is_visible="true"
       lpeversion="1"
       nodesatellites_param="F,0,1,1,0,0.76466233,0,1 @ F,0,1,1,0,0.76466233,0,1 @ F,0,0,1,0,0.76466233,0,1 @ F,0,1,1,0,0.76466233,0,1 @ F,0,1,1,0,0.76466233,0,1 @ F,0,1,1,0,0.76466233,0,1"
       radius="0"
       unit="px"
       method="auto"
       mode="F"
       chamfer_steps="1"
       flexible="false"
       use_knot_distance="true"
       apply_no_radius="true"
       apply_with_radius="true"
       only_selected="false"
       hide_knots="false" />
  </defs>
  <inkscape:templateinfo>
    <inkscape:name>morewaita-symbolic</inkscape:name>
    <inkscape:date>2025-09-24</inkscape:date>
  </inkscape:templateinfo>
  <path
     d="m 15.103141,0.89685968 c -0.142361,-0.14238191 -0.35378,-0.2174475 -0.5977,-0.19090721 -0.623329,0.0678227 -1.246339,0.13587639 -1.869819,0.20339627 L 11.69536,2.1564897 A 0.16150168,0.16150168 0 0 1 11.417028,2.120806 L 10.979905,1.0877667 C 10.513501,1.1385045 10.04678,1.1900314 9.581108,1.2412059 9.0934087,1.2948013 8.4315162,1.6028464 8.1038081,1.929899 6.9888943,3.0425838 5.271036,4.7663068 4.1572022,5.8800676 3.8298175,6.2074326 3.5200501,6.8678103 3.4667251,7.3555833 L 2.9296877,12.281699 c -0.053325,0.487774 0.2989847,0.839906 0.7868227,0.786824 1.6419938,-0.178659 3.2878596,-0.356951 4.9261195,-0.537035 0.4026707,-0.04426 0.9235207,-0.262265 1.2774723,-0.520979 L 9.345596,10.890044 a 0.16150168,0.16150168 0 0 1 0.151656,-0.233727 l 1.723517,0.08564 0.0018,-0.0018 C 12.187571,9.7742874 13.27865,8.6804179 14.066501,7.892568 14.393884,7.5652036 14.701864,6.9066083 14.755193,6.418836 L 15.292264,1.4927753 C 15.31893,1.2488892 15.245501,1.0392414 15.103141,0.89685968 Z"
     style="fill:none;stroke:#000000;stroke-width:1.40239;stroke-linecap:round;stroke-linejoin:round"
     id="path7" />
  <path
     style="baseline-shift:baseline;display:inline;overflow:visible;opacity:1;vector-effect:none;stroke-width:1.29188;stroke-linecap:round;stroke-linejoin:round;enable-background:accumulate;stop-color:#000000;stop-opacity:1"
     d="m 11.602582,4.3974181 c -0.252256,-0.252256 -0.661243,-0.252256 -0.913499,0 L 0.18919184,14.897309 c -0.25225559,0.252255 -0.25225598,0.661244 0,0.9135 0.25225598,0.252254 0.66124387,0.252254 0.91349946,0 L 11.602582,5.3109174 c 0.252257,-0.2522558 0.252257,-0.6612435 0,-0.9134993 z"
     id="path3"
     sodipodi:nodetypes="sssssss" />
</svg>
