<?xml version="1.0" encoding="UTF-8" standalone="no"?>
<svg
   height="24"
   viewBox="0 0 24 24"
   width="24"
   version="1.1"
   id="svg1"
   xmlns="http://www.w3.org/2000/svg"
   xmlns:svg="http://www.w3.org/2000/svg">
  <defs
     id="defs1" />
  <path
     d="M 12,23.3 C 10.88333,22.2 9.76667,21.1 8.65,20 7.1,20 5.55,20 4,20 4,18.45 4,16.9 4,15.35 2.9,14.23333 1.8,13.11667 0.7,12 1.8,10.88333 2.9,9.76667 4,8.65 4,7.1 4,5.55 4,4 5.55,4 7.1,4 8.65,4 9.76667,2.9 10.88333,1.8 12,0.7 c 1.11667,1.1 2.23333,2.2 3.35,3.3 1.55,0 3.1,0 4.65,0 0,1.55 0,3.1 0,4.65 1.1,1.11667 2.2,2.23333 3.3,3.35 -1.1,1.11667 -2.2,2.23333 -3.3,3.35 0,1.55 0,3.1 0,4.65 -1.55,0 -3.1,0 -4.65,0 -1.11667,1.1 -2.23333,2.2 -3.35,3.3 z M 12,17 c 2.76788,0.10231 5.23385,-2.49967 4.99429,-5.25698 C 16.94729,9.16673 14.57643,6.91323 12,7 c 0,3.33333 0,6.66667 0,10 z m 0,3.5 c 0.83333,-0.83333 1.66667,-1.66667 2.5,-2.5 1.16667,0 2.33333,0 3.5,0 0,-1.16667 0,-2.33333 0,-3.5 0.83333,-0.83333 1.66667,-1.66667 2.5,-2.5 C 19.66667,11.16667 18.83333,10.33333 18,9.5 18,8.33333 18,7.16667 18,6 16.83333,6 15.66667,6 14.5,6 13.66667,5.16667 12.83333,4.33333 12,3.5 11.16667,4.33333 10.33333,5.16667 9.5,6 8.33333,6 7.16667,6 6,6 6,7.16667 6,8.33333 6,9.5 5.16667,10.33333 4.33333,11.16667 3.5,12 c 0.83333,0.83333 1.66667,1.66667 2.5,2.5 0,1.16667 0,2.33333 0,3.5 1.16667,0 2.33333,0 3.5,0 0.83333,0.83333 1.66667,1.66667 2.5,2.5 z"
     fill="currentColor"
     id="path1"
     style="stroke-width:0.025" />
</svg>
