<?xml version="1.0" encoding="UTF-8" standalone="no"?>
<svg
   height="16px"
   viewBox="0 0 16 16"
   width="16px"
   version="1.1"
   id="svg15572"
   sodipodi:docname="adjustments-huesaturation.svg"
   inkscape:export-filename="/mnt/external/cloud/design/gnome/image.svg"
   inkscape:version="1.4.3 (0d15f75042, 2025-12-25)"
   xmlns:inkscape="http://www.inkscape.org/namespaces/inkscape"
   xmlns:sodipodi="http://sodipodi.sourceforge.net/DTD/sodipodi-0.dtd"
   xmlns="http://www.w3.org/2000/svg"
   xmlns:svg="http://www.w3.org/2000/svg">
  <sodipodi:namedview
     id="namedview1"
     pagecolor="#ffffff"
     bordercolor="#000000"
     borderopacity="0.25"
     inkscape:showpageshadow="2"
     inkscape:pageopacity="0.0"
     inkscape:pagecheckerboard="0"
     inkscape:deskcolor="#d1d1d1"
     showborder="false"
     inkscape:zoom="16"
     inkscape:cx="0.40625"
     inkscape:cy="-9.625"
     inkscape:window-width="2560"
     inkscape:window-height="1403"
     inkscape:window-x="0"
     inkscape:window-y="0"
     inkscape:window-maximized="1"
     inkscape:current-layer="svg15572" />
  <defs
     id="defs15576">
    <inkscape:path-effect
       effect="simplify"
       id="path-effect6"
       is_visible="true"
       lpeversion="1.3"
       threshold="5000.000000"
       steps="1"
       smooth_angles="360"
       helper_size="0"
       simplify_individual_paths="false"
       simplify_just_coalesce="false" />
    <inkscape:path-effect
       effect="simplify"
       id="path-effect5"
       is_visible="true"
       lpeversion="1.3"
       threshold="5000.000000"
       steps="1"
       smooth_angles="360"
       helper_size="0"
       simplify_individual_paths="false"
       simplify_just_coalesce="false" />
    <inkscape:path-effect
       effect="simplify"
       id="path-effect4"
       is_visible="true"
       lpeversion="1.3"
       threshold="5000.000000"
       steps="1"
       smooth_angles="360"
       helper_size="0"
       simplify_individual_paths="false"
       simplify_just_coalesce="false" />
    <inkscape:path-effect
       effect="simplify"
       id="path-effect3"
       is_visible="true"
       lpeversion="1.3"
       threshold="5000.000000"
       steps="1"
       smooth_angles="360"
       helper_size="0"
       simplify_individual_paths="false"
       simplify_just_coalesce="false" />
    <inkscape:path-effect
       effect="simplify"
       id="path-effect5-9"
       is_visible="true"
       lpeversion="1.3"
       threshold="5000"
       steps="1"
       smooth_angles="360"
       helper_size="0"
       simplify_individual_paths="false"
       simplify_just_coalesce="false" />
    <inkscape:path-effect
       effect="simplify"
       id="path-effect4-1"
       is_visible="true"
       lpeversion="1.3"
       threshold="5000"
       steps="1"
       smooth_angles="360"
       helper_size="0"
       simplify_individual_paths="false"
       simplify_just_coalesce="false" />
  </defs>
  <inkscape:templateinfo>
    <inkscape:name>morewaita-symbolic</inkscape:name>
    <inkscape:date>2025-09-24</inkscape:date>
  </inkscape:templateinfo>
  <path
     id="path1"
     style="baseline-shift:baseline;display:inline;overflow:visible;vector-effect:none;stroke-linecap:round;stroke-linejoin:round;enable-background:accumulate;stop-color:#000000;stop-opacity:1;opacity:1"
     d="M 8 0 C 3.590858 0 0 3.590858 0 8 C 0 12.409142 3.590858 16 8 16 C 12.409142 16 16 12.409142 16 8 C 16 3.590858 12.409142 0 8 0 z M 7.25 1.5859375 L 7.25 14.414062 C 4.0301109 14.04429 1.5429687 11.321607 1.5429688 8 C 1.5429688 4.6783932 4.0301109 1.9557102 7.25 1.5859375 z M 8.75 1.5859375 C 9.5391806 1.6765672 10.283669 1.9083484 10.958984 2.2558594 L 8.75 2.2558594 L 8.75 1.5859375 z M 8.75 3.7558594 L 12.873047 3.7558594 C 13.124251 4.0442411 13.349626 4.3552688 13.546875 4.6855469 L 8.75 4.6855469 L 8.75 3.7558594 z M 8.75 6.1855469 L 14.201172 6.1855469 C 14.301047 6.5292391 14.372135 6.8849093 14.414062 7.25 L 8.75 7.25 L 8.75 6.1855469 z M 8.75 8.75 L 14.414062 8.75 C 14.372135 9.1150907 14.301047 9.4707609 14.201172 9.8144531 L 8.75 9.8144531 L 8.75 8.75 z M 8.75 11.314453 L 13.546875 11.314453 C 13.349626 11.644731 13.124251 11.955759 12.873047 12.244141 L 8.75 12.244141 L 8.75 11.314453 z M 8.75 13.744141 L 10.958984 13.744141 C 10.283669 14.091651 9.5391805 14.323433 8.75 14.414062 L 8.75 13.744141 z " />
</svg>
