<?xml version="1.0" encoding="UTF-8" standalone="no"?>
<svg
   height="16px"
   viewBox="0 0 16 16"
   width="16px"
   version="1.1"
   id="svg15572"
   sodipodi:docname="adjustments-invertcolors-symbolic.svg"
   inkscape:export-filename="/mnt/external/cloud/design/gnome/image.svg"
   inkscape:version="1.4.3 (0d15f75042, 2025-12-25)"
   xmlns:inkscape="http://www.inkscape.org/namespaces/inkscape"
   xmlns:sodipodi="http://sodipodi.sourceforge.net/DTD/sodipodi-0.dtd"
   xmlns="http://www.w3.org/2000/svg"
   xmlns:svg="http://www.w3.org/2000/svg">
  <sodipodi:namedview
     id="namedview1"
     pagecolor="#ffffff"
     bordercolor="#000000"
     borderopacity="0.25"
     inkscape:showpageshadow="2"
     inkscape:pageopacity="0.0"
     inkscape:pagecheckerboard="0"
     inkscape:deskcolor="#d1d1d1"
     showborder="false"
     inkscape:zoom="32"
     inkscape:cx="3.578125"
     inkscape:cy="4.5"
     inkscape:window-width="2560"
     inkscape:window-height="1403"
     inkscape:window-x="0"
     inkscape:window-y="0"
     inkscape:window-maximized="1"
     inkscape:current-layer="svg15572" />
  <defs
     id="defs15576">
    <inkscape:path-effect
       effect="fillet_chamfer"
       id="path-effect31"
       is_visible="true"
       lpeversion="1"
       nodesatellites_param="F,0,0,1,0,0,0,1 @ F,0,0,1,0,0,0,1 @ F,0,0,1,0,0.4600559,0,1 @ F,0,0,1,0,0,0,1 @ F,0,0,1,0,0,0,1 @ F,0,0,1,0,0,0,1 @ F,0,0,1,0,0,0,1 @ F,0,0,1,0,0,0,1 @ F,0,0,1,0,0,0,1 @ F,0,0,1,0,0,0,1 @ F,0,0,1,0,0,0,1 @ F,0,0,1,0,0,0,1 @ F,0,0,1,0,0.35818153,0,1 @ F,0,0,1,0,0,0,1 @ F,0,0,1,0,0,0,1 | F,0,0,1,0,0,0,1 @ F,0,0,1,0,0,0,1 @ F,0,0,1,0,0,0,1 @ F,0,0,1,0,0,0,1"
       radius="0"
       unit="px"
       method="auto"
       mode="F"
       chamfer_steps="1"
       flexible="false"
       use_knot_distance="true"
       apply_no_radius="true"
       apply_with_radius="true"
       only_selected="false"
       hide_knots="false" />
    <inkscape:path-effect
       effect="fillet_chamfer"
       id="path-effect8"
       is_visible="true"
       lpeversion="1"
       nodesatellites_param="F,0,0,1,0,0,0,1 @ F,0,0,1,0,0,0,1 @ F,0,0,1,0,0.37366473,0,1 @ F,0,0,1,0,0,0,1 @ F,0,0,1,0,0,0,1 @ F,0,0,1,0,0,0,1 @ F,0,0,1,0,0,0,1 @ F,0,0,1,0,0,0,1 @ F,0,0,1,0,0,0,1 @ F,0,0,1,0,0,0,1 @ F,0,0,1,0,0,0,1 @ F,0,0,1,0,0,0,1 @ F,0,0,1,0,0,0,1 @ F,0,0,1,0,-nan,0,1 @ F,0,0,1,0,0,0,1 @ F,0,0,1,0,0,0,1 | F,0,0,1,0,0,0,1 @ F,0,0,1,0,0,0,1 @ F,0,0,1,0,0,0,1 @ F,0,0,1,0,0,0,1"
       radius="0"
       unit="px"
       method="auto"
       mode="F"
       chamfer_steps="1"
       flexible="false"
       use_knot_distance="true"
       apply_no_radius="true"
       apply_with_radius="true"
       only_selected="false"
       hide_knots="false" />
    <inkscape:path-effect
       effect="fillet_chamfer"
       id="path-effect3"
       is_visible="true"
       lpeversion="1"
       nodesatellites_param="F,0,0,1,0,0,0,1 @ F,0,0,1,0,0,0,1 @ F,0,0,1,0,0,0,1 @ F,0,0,1,0,0,0,1 @ F,0,0,1,0,0,0,1 @ F,0,0,1,0,0,0,1 @ F,0,0,1,0,0,0,1 @ F,0,0,1,0,0,0,1 @ F,0,0,1,0,0,0,1"
       radius="0"
       unit="px"
       method="auto"
       mode="F"
       chamfer_steps="1"
       flexible="false"
       use_knot_distance="true"
       apply_no_radius="true"
       apply_with_radius="true"
       only_selected="false"
       hide_knots="false" />
  </defs>
  <inkscape:templateinfo>
    <inkscape:name>morewaita-symbolic</inkscape:name>
    <inkscape:date>2025-09-24</inkscape:date>
  </inkscape:templateinfo>
  <path
     d="m 11.90271,10.797258 c -0.09782,0.0015 -0.192715,0.04234 -0.262794,0.112427 l -1.090596,1.121256 c -0.140159,0.145996 -0.140159,0.37667 0,0.522668 l 1.090596,1.121257 c 0.144537,0.147456 0.381052,0.150377 0.52851,0.0073 0.148914,-0.144537 0.151835,-0.381052 0.0073,-0.529969 l -0.47303,-0.48617 h 1.732115 c 0.205855,0 0.37375,-0.167895 0.37375,-0.373751 0,-0.205855 -0.167896,-0.373751 -0.37375,-0.373751 h -1.732116 l 0.47303,-0.48617 c 0.144537,-0.148918 0.141617,-0.385434 -0.0073,-0.529969 -0.07006,-0.06862 -0.166435,-0.106575 -0.265712,-0.105123 z"
     fill="#222222"
     fill-rule="evenodd"
     id="path1"
     sodipodi:nodetypes="ccccccccssscccc"
     style="fill:#000000;fill-opacity:1;stroke-width:0.373752" />
  <path
     d="m 14.533154,15.282586 c 0.09783,-0.0015 0.192716,-0.04234 0.262795,-0.112426 l 1.090596,-1.121257 c 0.140158,-0.145996 0.140158,-0.37667 0,-0.522668 l -1.090596,-1.121257 c -0.144537,-0.147456 -0.381051,-0.150376 -0.528509,-0.0073 -0.148915,0.144537 -0.151836,0.381052 -0.0073,0.529969 l 0.473029,0.48617 h -1.732114 c -0.205856,0 -0.373752,0.167896 -0.373752,0.373751 0,0.205855 0.167896,0.373752 0.373752,0.373752 h 1.732114 l -0.473029,0.486169 c -0.144535,0.148918 -0.141617,0.385434 0.0073,0.529969 0.07007,0.06862 0.166437,0.106575 0.265714,0.105124 z"
     fill="#222222"
     fill-rule="evenodd"
     id="path1-8"
     sodipodi:nodetypes="ccccccccssscccc"
     style="fill:#000000;fill-opacity:1;stroke-width:0.373752" />
  <path
     d="m 6.0668063,10.378645 c -0.1800511,0.0053 -0.3448151,0.09457 -0.4496197,0.236992 l -1.2026775,1.676661 c -0.069867,0.09943 -0.1829814,0.162483 -0.301223,0.170545 -0.1209304,0.01077 -0.239592,-0.03582 -0.3255868,-0.121818 L 3.5064102,12.053092 C 3.3801058,11.921412 3.1991876,11.857562 3.0191376,11.873687 2.8390865,11.8925 2.6755942,11.988981 2.5761625,12.139472 l -0.5116363,0.764132 v 0.686611 c 0,0.343978 0.3455206,0.34552 0.3455206,0.34552 h 4.8151393 c 0,0 0.3244947,-0.02304 0.3433058,-0.34552 v -1.477322 c 0,-0.166614 -0.059102,-0.327273 -0.1639008,-0.456265 L 6.5252855,10.586844 C 6.4124168,10.449791 6.2441699,10.373271 6.0668063,10.378645 Z"
     style="stroke-width:0.687957"
     id="path31" />
  <path
     d="m 6.0668063,10.378645 c 0.1773636,-0.0053 0.3456105,0.07115 0.4584792,0.208199 l 0.8793056,1.069784 c 0.104799,0.128992 0.1639008,0.289651 0.1639008,0.456265 v 1.477322 c -0.018811,0.32248 -0.3433058,0.34552 -0.3433058,0.34552 H 2.4100468 c 0,0 -0.3455206,-0.0016 -0.3455206,-0.34552 v -0.686611 l 0.5116363,-0.764132 c 0.099432,-0.150491 0.262924,-0.246974 0.4429751,-0.265785 0.18005,-0.01613 0.3609682,0.04772 0.4872726,0.179405 l 0.2812891,0.287933 c 0.085995,0.08599 0.2046564,0.132569 0.3255868,0.121818 0.1182416,-0.0081 0.2313563,-0.07111 0.301223,-0.170545 L 5.6171866,10.615637 C 5.7219912,10.473208 5.8867552,10.38402 6.0668063,10.378645 Z"
     style="stroke-width:0.687957"
     id="path30" />
  <path
     d="m 3.4421789,9.1183812 c -0.3789124,0 -0.6888263,0.3099131 -0.6888263,0.6888263 0,0.3816015 0.309914,0.6888265 0.6888263,0.6888265 0.3789132,0 0.6866113,-0.307225 0.6866113,-0.6888265 0,-0.3789132 -0.3076981,-0.6888263 -0.6866113,-0.6888263 z"
     style="stroke-width:0.687957"
     id="path29" />
  <path
     id="path25"
     style="stroke-width:0.687957"
     d="m 8.4190041,0.00195362 c -1.1313638,0 -2.064264,0.93289868 -2.064264,2.06426398 V 6.3675059 H 2.0645262 c -1.13136489,0 -2.06204904,0.9328987 -2.06204906,2.0642639 V 13.935735 C 0.00247714,15.069789 0.93316131,16 2.0645262,16 h 5.5039657 c 1.1313649,0 2.0642639,-0.930212 2.0642639,-2.064265 V 9.6344472 h 4.2902132 c 1.131365,0 2.06205,-0.9302107 2.06205,-2.0642639 V 2.0662176 c 0,-1.1313653 -0.930685,-2.06426398 -2.06205,-2.06426398 z m 0,1.37543768 h 5.5039649 c 0.392351,0 0.686612,0.2964766 0.686612,0.6888263 v 5.5039657 c 0,0.3950375 -0.294261,0.6888262 -0.686612,0.6888262 H 9.6261113 C 9.5412509,7.260616 8.7300623,6.4533366 7.7301779,6.3741504 V 2.0662176 c 0,-0.3923497 0.2964758,-0.6888263 0.6888262,-0.6888263 z M 2.0645262,7.7429435 h 4.2968585 1.2071072 c 0.065637,0 0.1289737,0.00874 0.1882643,0.024364 0.2327242,0.061291 0.4096805,0.2361221 0.4739835,0.4673386 0.017241,0.061996 0.026578,0.1280453 0.026578,0.197124 v 1.1960328 4.3079321 c 0,0.395038 -0.2964771,0.686612 -0.6888263,0.686612 H 2.0645262 c -0.3923503,0 -0.6866114,-0.291574 -0.6866114,-0.686612 V 8.4317698 c 0,-0.3923496 0.2942611,-0.6888263 0.6866114,-0.6888263 z" />
  <path
     d="m 8.8554688,2.7695313 c -0.2767941,0 -0.4863282,0.207583 -0.4863282,0.484375 v 2.9969753 a 0.13963042,0.13963042 16.883437 0 0 0.255706,0.077609 L 8.8183594,6.0390625 c 0.08768,-0.1327057 0.2338051,-0.217787 0.3925781,-0.234375 0.158771,-0.014218 0.3163554,0.042086 0.4277344,0.1582031 l 0.25,0.2539063 c 0.07583,0.075831 0.1785181,0.1169019 0.2851561,0.1074218 0.104269,-0.00711 0.204015,-0.062711 0.265625,-0.1503906 l 1.0625,-1.4785156 c 0.09242,-0.1255965 0.235758,-0.2042444 0.394531,-0.2089844 0.156404,-0.00474 0.30672,0.062737 0.40625,0.1835938 0.22651,0.2823028 0.459222,0.5595888 0.691858,0.8367945 0.127157,0.1515183 0.22989,0.1141703 0.229734,-0.083648 l -0.0017,-2.1691623 C 13.222506,2.9771136 13.015074,2.7695312 12.738281,2.7695313 Z M 9.5820313,3.375 c 0.334135,0 0.6074217,0.2732881 0.6074217,0.6074219 0,0.3365041 -0.2732867,0.6054687 -0.6074217,0.6054687 -0.334133,0 -0.6074219,-0.2689646 -0.6074219,-0.6054687 C 8.9746094,3.6482881 9.2478982,3.375 9.5820313,3.375 Z"
     style="stroke-width:0.485335"
     id="path27"
     inkscape:path-effect="#path-effect31"
     inkscape:original-d="m 8.8554688,2.7695313 c -0.2767941,0 -0.4863282,0.207583 -0.4863282,0.484375 v 3.4570312 l 0.4492188,-0.671875 c 0.08768,-0.1327057 0.2338051,-0.217787 0.3925781,-0.234375 0.158771,-0.014218 0.3163554,0.042086 0.4277344,0.1582031 l 0.25,0.2539063 c 0.07583,0.075831 0.1785181,0.1169019 0.2851561,0.1074218 0.104269,-0.00711 0.204015,-0.062711 0.265625,-0.1503906 l 1.0625,-1.4785156 c 0.09242,-0.1255965 0.235758,-0.2042444 0.394531,-0.2089844 0.156404,-0.00474 0.30672,0.062737 0.40625,0.1835938 0.301244,0.3754453 0.613458,0.7420172 0.921875,1.1113281 l -0.002,-2.5273437 C 13.222506,2.9771136 13.015074,2.7695312 12.738281,2.7695313 Z M 9.5820313,3.375 c 0.334135,0 0.6074217,0.2732881 0.6074217,0.6074219 0,0.3365041 -0.2732867,0.6054687 -0.6074217,0.6054687 -0.334133,0 -0.6074219,-0.2689646 -0.6074219,-0.6054687 C 8.9746094,3.6482881 9.2478982,3.375 9.5820313,3.375 Z"
     sodipodi:nodetypes="ssccccccccccccsssssss"
     transform="matrix(1.1340163,0,0,1.1340163,-1.0717375,-1.072261)" />
</svg>
