<?xml version="1.0" encoding="UTF-8" standalone="no"?>
<svg
   height="16px"
   viewBox="0 0 16 16"
   width="16px"
   version="1.1"
   id="svg15572"
   sodipodi:docname="adjustments-posterize.svg"
   inkscape:export-filename="/mnt/external/cloud/design/gnome/image.svg"
   inkscape:version="1.4.3 (0d15f75042, 2025-12-25)"
   xmlns:inkscape="http://www.inkscape.org/namespaces/inkscape"
   xmlns:sodipodi="http://sodipodi.sourceforge.net/DTD/sodipodi-0.dtd"
   xmlns="http://www.w3.org/2000/svg"
   xmlns:svg="http://www.w3.org/2000/svg">
  <sodipodi:namedview
     id="namedview1"
     pagecolor="#ffffff"
     bordercolor="#000000"
     borderopacity="0.25"
     inkscape:showpageshadow="2"
     inkscape:pageopacity="0.0"
     inkscape:pagecheckerboard="0"
     inkscape:deskcolor="#d1d1d1"
     showborder="false"
     inkscape:zoom="18.6875"
     inkscape:cx="6.2876254"
     inkscape:cy="8.4013378"
     inkscape:window-width="2560"
     inkscape:window-height="1403"
     inkscape:window-x="0"
     inkscape:window-y="0"
     inkscape:window-maximized="1"
     inkscape:current-layer="svg15572" />
  <defs
     id="defs15576" />
  <inkscape:templateinfo>
    <inkscape:name>morewaita-symbolic</inkscape:name>
    <inkscape:date>2025-09-24</inkscape:date>
  </inkscape:templateinfo>
  <path
     id="path8"
     style="baseline-shift:baseline;display:inline;overflow:visible;opacity:1;vector-effect:none;stroke-linejoin:round;enable-background:accumulate;stop-color:#000000;stop-opacity:1"
     d="M 5.7285156 0 C 2.5730668 0 -2.3684758e-15 2.5730668 0 5.7285156 C 0 8.5140075 2.0056988 10.845059 4.6464844 11.353516 C 5.1549437 13.994299 7.4859937 16 10.271484 16 C 13.426933 16 16 13.426933 16 10.271484 C 16 7.4859937 13.994301 5.1549417 11.353516 4.6464844 C 10.845059 2.005699 8.5140075 0 5.7285156 0 z M 5.7285156 1.3769531 C 7.731993 1.3769531 9.4102228 2.7181544 9.9199219 4.5546875 C 7.0440884 4.7305906 4.7305749 7.0440843 4.5546875 9.9199219 C 2.7181542 9.4102228 1.3769531 7.731993 1.3769531 5.7285156 C 1.3769531 3.3176474 3.3176474 1.3769531 5.7285156 1.3769531 z M 10.068359 5.9316406 C 9.96526 8.1810879 8.1761802 9.9746373 5.9257812 10.074219 C 6.0253622 7.8238194 7.818913 6.0347408 10.068359 5.9316406 z M 11.445312 6.0800781 C 13.281845 6.5897772 14.623047 8.2680077 14.623047 10.271484 C 14.623047 12.682353 12.682353 14.623047 10.271484 14.623047 C 8.2680077 14.623047 6.5897772 13.281846 6.0800781 11.445312 C 8.9559267 11.269425 11.269424 8.9559267 11.445312 6.0800781 z " />
  <path
     id="path2"
     style="baseline-shift:baseline;display:inline;overflow:visible;vector-effect:none;stroke-width:0.980927;enable-background:accumulate;stop-color:#000000"
     d="m 5.6676193,2.7405577 c -0.2592229,0 -0.4195762,0.234759 -0.4195762,0.4598096 V 4.2062009 L 3.9165109,2.8746688 c -0.1765687,-0.1765688 -0.4709992,-0.1765785 -0.6475652,0 -0.1765718,0.1765626 -0.1765711,0.4729185 0,0.6494811 l 1.3296162,1.3296164 -1.0058336,0.00191 C 3.3676758,4.855682 3.1364327,5.0146427 3.1348345,5.2714238 v 0.00191 0.080466 0.00191 c 0.00153,0.1088053 0.047895,0.2107512 0.1187842,0.2816334 l 0.00384,0.00191 0.059392,0.059392 0.019158,0.00191 c 0.075095,0.046442 0.1630457,0.070887 0.2567271,0.070888 h 2.0978815 0.00384 c 0.032019,8.639e-4 0.073324,-0.00432 0.1149524,-0.013411 0.087077,-0.014837 0.1631531,-0.057604 0.222234,-0.118772 0.060885,-0.058997 0.1069315,-0.1399085 0.1207,-0.2299049 0.00376,-0.018357 0.00455,-0.034954 0.00575,-0.051728 -0.00295,0.013282 -0.00576,0.030635 -0.00575,0.030654 l -0.00191,0.00191 c 3.68e-5,-1.037e-4 0.00334,-0.01671 0.00575,-0.030654 v -0.00191 h 0.00191 v -0.00191 -0.00191 c 1.78e-4,-8.043e-4 0.0017,-0.00494 0.00191,-0.00575 v -0.00191 -0.00191 l 0.00191,-0.00191 v -0.00191 c 2.202e-4,-7.112e-4 0.00191,-0.00574 0.00191,-0.00575 1.4e-6,-1.2e-5 1.731e-4,-0.00977 0,-0.013411 -9.89e-5,-0.00208 1.386e-4,-0.00476 0,-0.00766 l 0.00191,-0.00575 c -2.13e-5,-0.0011 2.8e-5,-0.00275 0,-0.00384 V 5.3020796 3.2003664 C 6.165735,2.974492 6.00439,2.7405561 5.7461585,2.7405567 Z" />
  <path
     d="M 10.068359,5.9316406 C 7.8189122,6.0347408 6.025362,7.8238199 5.9257812,10.074219 8.1761802,9.9746378 9.9652592,8.1810879 10.068359,5.9316406 Z"
     style="baseline-shift:baseline;display:inline;overflow:visible;vector-effect:none;stroke-linejoin:round;enable-background:accumulate;stop-color:#000000;fill:#000000;fill-opacity:0.50185978"
     id="path9" />
  <path
     id="path2-5"
     style="baseline-shift:baseline;display:inline;overflow:visible;vector-effect:none;stroke-width:0.980927;enable-background:accumulate;stop-color:#000000"
     d="m 10.332381,13.259442 c 0.259223,0 0.419576,-0.234759 0.419576,-0.459809 v -1.005834 l 1.331532,1.331532 c 0.176569,0.176569 0.470999,0.176579 0.647565,0 0.176572,-0.176562 0.176571,-0.472918 0,-0.649481 l -1.329616,-1.329616 1.005834,-0.0019 c 0.225052,-6e-6 0.456295,-0.158967 0.457894,-0.415748 v -0.0019 -0.08047 -0.0019 c -0.0015,-0.108805 -0.04789,-0.210751 -0.118785,-0.281633 l -0.0038,-0.0019 -0.05939,-0.05939 -0.01916,-0.0019 c -0.0751,-0.04644 -0.163045,-0.07089 -0.256727,-0.07089 h -2.097881 -0.0038 c -0.03202,-8.64e-4 -0.07332,0.0043 -0.114953,0.01341 -0.08708,0.01484 -0.163153,0.0576 -0.222234,0.118772 -0.06088,0.059 -0.106931,0.139908 -0.1207,0.229905 -0.0038,0.01836 -0.0046,0.03495 -0.0057,0.05173 0.0029,-0.01328 0.0058,-0.03064 0.0057,-0.03065 l 0.0019,-0.0019 c -3.6e-5,1.03e-4 -0.0033,0.01671 -0.0057,0.03065 v 0.0019 h -0.0019 v 0.0019 0.0019 c -1.78e-4,8.04e-4 -0.0017,0.0049 -0.0019,0.0057 v 0.0019 0.0019 l -0.0019,0.0019 v 0.0019 c -2.2e-4,7.11e-4 -0.0019,0.0057 -0.0019,0.0057 -10e-7,1.2e-5 -1.73e-4,0.0098 0,0.01341 9.9e-5,0.0021 -1.38e-4,0.0048 0,0.0077 l -0.0019,0.0057 c 2.2e-5,0.0011 -2.8e-5,0.0028 0,0.0038 v 0.0019 2.101714 c -1e-6,0.225874 0.161344,0.45981 0.419576,0.459809 z" />
</svg>
