<?xml version="1.0" encoding="UTF-8" standalone="no"?>
<svg
   height="24"
   viewBox="0 0 24 24"
   width="24"
   fill="#e8eaed"
   version="1.1"
   id="svg1"
   xmlns="http://www.w3.org/2000/svg"
   xmlns:svg="http://www.w3.org/2000/svg">
  <defs
     id="defs1" />
  <path
     d="M 9,2 C 7.33333,3.66667 5.66667,5.33333 4,7 4.47526,7.4668 4.95052,7.93359 5.42578,8.40039 6.28385,7.54167 7.14193,6.68294 8,5.82422 8,8.21615 8,10.60807 8,13 c 0.66667,0 1.33333,0 2,0 0,-2.39193 0,-4.78385 0,-7.17578 0.85807,0.85872 1.71615,1.71745 2.57422,2.57617 C 13.04948,7.93359 13.52474,7.4668 14,7 12.33333,5.33333 10.66667,3.66667 9,2 Z m 5,9 c 0,2.39193 0,4.78385 0,7.17578 -0.85807,-0.85872 -1.71615,-1.71745 -2.57422,-2.57617 -0.36058,0.50337 -1.32264,1.00404 -1.31712,1.50905 C 11.73911,18.73911 13.36955,20.36956 15,22 16.66667,20.33333 18.33333,18.66667 20,17 19.4889,16.64721 18.975,15.69821 18.4656,15.70832 17.64373,16.5308 16.82186,17.35329 16,18.17578 16,15.78385 16,13.39193 16,11 c -0.66667,0 -1.33333,0 -2,0 z"
     id="path2"
     fill="currentColor"
     style="stroke-width:0.025" />
</svg>
