<?xml version="1.0" encoding="UTF-8" standalone="no"?>
<svg
   height="24"
   viewBox="0 -960 960 960"
   width="24"
   fill="#e8eaed"
   version="1.1"
   id="svg1"
   xmlns="http://www.w3.org/2000/svg"
   xmlns:svg="http://www.w3.org/2000/svg">
  <defs
     id="defs1" />
  <path
     d="m 360,-880 c -66.66667,66.66667 -133.33333,133.33333 -200,200 19.01042,18.67188 38.02083,37.34375 57.03125,56.01563 34.32292,-34.34896 68.64583,-68.69792 102.96875,-103.04688 0,95.67708 0,191.35417 0,287.03125 26.66667,0 53.33333,0 80,0 0,-95.67708 0,-191.35417 0,-287.03125 34.32292,34.34896 68.64583,68.69792 102.96875,103.04688 C 521.97917,-642.65625 540.98958,-661.32812 560,-680 493.33333,-746.66667 426.66667,-813.33333 360,-880 Z m 200,360 c 0,95.67708 0,191.35417 0,287.03125 -34.32292,-34.34896 -68.64583,-68.69791 -102.96875,-103.04687 C 438.02083,-317.34375 419.01042,-298.67187 400,-280 c 66.66667,66.66667 133.33333,133.33333 200,200 66.66667,-66.66667 133.33333,-133.33333 200,-200 -19.01042,-18.67187 -38.02083,-37.34375 -57.03125,-56.01562 -34.32292,34.34896 -68.64583,68.69791 -102.96875,103.04687 0,-95.67708 0,-191.35417 0,-287.03125 -26.66667,0 -53.33333,0 -80,0 z"
     id="path2" />
</svg>
