<?xml version="1.0" encoding="UTF-8" standalone="no"?>
<svg
   height="16px"
   viewBox="0 0 16 16"
   width="16px"
   version="1.1"
   id="svg15572"
   sodipodi:docname="edit-selection-offset-symbolic.svg"
   inkscape:export-filename="/mnt/external/cloud/design/gnome/image.svg"
   inkscape:version="1.4.3 (0d15f75042, 2025-12-25)"
   xml:space="preserve"
   xmlns:inkscape="http://www.inkscape.org/namespaces/inkscape"
   xmlns:sodipodi="http://sodipodi.sourceforge.net/DTD/sodipodi-0.dtd"
   xmlns="http://www.w3.org/2000/svg"
   xmlns:svg="http://www.w3.org/2000/svg"><sodipodi:namedview
     id="namedview1"
     pagecolor="#ffffff"
     bordercolor="#000000"
     borderopacity="0.25"
     inkscape:showpageshadow="2"
     inkscape:pageopacity="0.0"
     inkscape:pagecheckerboard="0"
     inkscape:deskcolor="#d1d1d1"
     showborder="false"
     inkscape:zoom="18.6875"
     inkscape:cx="-0.18729097"
     inkscape:cy="-0.74916388"
     inkscape:window-width="2560"
     inkscape:window-height="1403"
     inkscape:window-x="0"
     inkscape:window-y="0"
     inkscape:window-maximized="1"
     inkscape:current-layer="svg15572" /><defs
     id="defs15576" /><inkscape:templateinfo><inkscape:name>morewaita-symbolic</inkscape:name><inkscape:date>2025-09-24</inkscape:date></inkscape:templateinfo><path
     id="path1"
     style="baseline-shift:baseline;display:inline;overflow:visible;vector-effect:none;stroke-linejoin:round;enable-background:accumulate;stop-color:#000000"
     d="M 3.1875 2.2207031 C 2.6561919 2.2207031 2.2207031 2.6561919 2.2207031 3.1875 L 2.2207031 5.234375 A 0.20002 0.20002 0 0 0 2.421875 5.4335938 L 3.5527344 5.4335938 A 0.20002 0.20002 0 0 0 3.7519531 5.234375 L 3.7519531 3.7519531 L 5.234375 3.7519531 A 0.20002 0.20002 0 0 0 5.4335938 3.5527344 L 5.4335938 2.421875 A 0.20002 0.20002 0 0 0 5.234375 2.2207031 L 3.1875 2.2207031 z M 6.7636719 2.2207031 A 0.20002 0.20002 0 0 0 6.5625 2.421875 L 6.5625 3.5527344 A 0.20002 0.20002 0 0 0 6.7636719 3.7519531 L 9.2363281 3.7519531 A 0.20002 0.20002 0 0 0 9.4375 3.5527344 L 9.4375 2.421875 A 0.20002 0.20002 0 0 0 9.2363281 2.2207031 L 6.7636719 2.2207031 z M 10.765625 2.2207031 A 0.20002 0.20002 0 0 0 10.566406 2.421875 L 10.566406 3.5527344 A 0.20002 0.20002 0 0 0 10.765625 3.7519531 L 12.248047 3.7519531 L 12.248047 5.234375 A 0.20002 0.20002 0 0 0 12.447266 5.4335938 L 13.578125 5.4335938 A 0.20002 0.20002 0 0 0 13.779297 5.234375 L 13.779297 3.1875 C 13.779297 2.6561918 13.343808 2.2207031 12.8125 2.2207031 L 10.765625 2.2207031 z M 2.421875 6.5625 A 0.20002 0.20002 0 0 0 2.2207031 6.7636719 L 2.2207031 9.2363281 A 0.20002 0.20002 0 0 0 2.421875 9.4375 L 3.5527344 9.4375 A 0.20002 0.20002 0 0 0 3.7519531 9.2363281 L 3.7519531 6.7636719 A 0.20002 0.20002 0 0 0 3.5527344 6.5625 L 2.421875 6.5625 z M 12.447266 6.5625 A 0.20002 0.20002 0 0 0 12.248047 6.7636719 L 12.248047 9.2363281 A 0.20002 0.20002 0 0 0 12.447266 9.4375 L 13.578125 9.4375 A 0.20002 0.20002 0 0 0 13.779297 9.2363281 L 13.779297 6.7636719 A 0.20002 0.20002 0 0 0 13.578125 6.5625 L 12.447266 6.5625 z M 2.421875 10.566406 A 0.20002 0.20002 0 0 0 2.2207031 10.765625 L 2.2207031 12.8125 C 2.2207031 13.343808 2.6561918 13.779297 3.1875 13.779297 L 5.234375 13.779297 A 0.20002 0.20002 0 0 0 5.4335938 13.578125 L 5.4335938 12.447266 A 0.20002 0.20002 0 0 0 5.234375 12.248047 L 3.7519531 12.248047 L 3.7519531 10.765625 A 0.20002 0.20002 0 0 0 3.5527344 10.566406 L 2.421875 10.566406 z M 12.447266 10.566406 A 0.20002 0.20002 0 0 0 12.248047 10.765625 L 12.248047 12.248047 L 10.765625 12.248047 A 0.20002 0.20002 0 0 0 10.566406 12.447266 L 10.566406 13.578125 A 0.20002 0.20002 0 0 0 10.765625 13.779297 L 12.8125 13.779297 C 13.343808 13.779297 13.779297 13.343808 13.779297 12.8125 L 13.779297 10.765625 A 0.20002 0.20002 0 0 0 13.578125 10.566406 L 12.447266 10.566406 z M 6.7636719 12.248047 A 0.20002 0.20002 0 0 0 6.5625 12.447266 L 6.5625 13.578125 A 0.20002 0.20002 0 0 0 6.7636719 13.779297 L 9.2363281 13.779297 A 0.20002 0.20002 0 0 0 9.4375 13.578125 L 9.4375 12.447266 A 0.20002 0.20002 0 0 0 9.2363281 12.248047 L 6.7636719 12.248047 z " /><circle
     style="fill:#3584e4;fill-opacity:1;stroke:none;stroke-width:0.4;stroke-linejoin:round;stroke-dasharray:none;stroke-opacity:1"
     id="path24"
     cx="0.90969902"
     cy="15.090301"
     r="0.90969902" /><circle
     style="fill:#3584e4;fill-opacity:1;stroke:none;stroke-width:0.4;stroke-linejoin:round;stroke-dasharray:none;stroke-opacity:1"
     id="path24-9"
     cx="15.090301"
     cy="15.090301"
     r="0.90969902" /><circle
     style="fill:#3584e4;fill-opacity:1;stroke:none;stroke-width:0.4;stroke-linejoin:round;stroke-dasharray:none;stroke-opacity:1"
     id="path24-9-28"
     cx="5.8461533"
     cy="10.055183"
     r="0.90969902" /><circle
     style="fill:#3584e4;fill-opacity:1;stroke:none;stroke-width:0.4;stroke-linejoin:round;stroke-dasharray:none;stroke-opacity:1"
     id="path24-9-28-3"
     cx="10.153847"
     cy="10.055183"
     r="0.90969902" /><circle
     style="fill:#3584e4;fill-opacity:1;stroke:none;stroke-width:0.4;stroke-linejoin:round;stroke-dasharray:none;stroke-opacity:1"
     id="path24-9-28-2"
     cx="5.8461533"
     cy="5.9448166"
     r="0.90969902" /><circle
     style="fill:#3584e4;fill-opacity:1;stroke:none;stroke-width:0.4;stroke-linejoin:round;stroke-dasharray:none;stroke-opacity:1"
     id="path24-9-28-3-9"
     cx="10.153847"
     cy="5.9448166"
     r="0.90969902" /><circle
     style="fill:#3584e4;fill-opacity:1;stroke:none;stroke-width:0.4;stroke-linejoin:round;stroke-dasharray:none;stroke-opacity:1"
     id="path24-9-2"
     cx="0.90969902"
     cy="0.90969902"
     r="0.90969902" /><circle
     style="fill:#3584e4;fill-opacity:1;stroke:none;stroke-width:0.4;stroke-linejoin:round;stroke-dasharray:none;stroke-opacity:1"
     id="path24-9-2-5"
     cx="15.090301"
     cy="0.90969902"
     r="0.90969902" /></svg>
