<?xml version="1.0" encoding="UTF-8" standalone="no"?>
<svg
   height="16px"
   viewBox="0 0 16 16"
   width="16px"
   version="1.1"
   id="svg15572"
   sodipodi:docname="edit-selection-invert-symbolic.svg"
   inkscape:export-filename="/mnt/external/cloud/design/gnome/image.svg"
   inkscape:version="1.4.3 (0d15f75042, 2025-12-25)"
   xml:space="preserve"
   xmlns:inkscape="http://www.inkscape.org/namespaces/inkscape"
   xmlns:sodipodi="http://sodipodi.sourceforge.net/DTD/sodipodi-0.dtd"
   xmlns="http://www.w3.org/2000/svg"
   xmlns:svg="http://www.w3.org/2000/svg"><sodipodi:namedview
     id="namedview1"
     pagecolor="#ffffff"
     bordercolor="#000000"
     borderopacity="0.25"
     inkscape:showpageshadow="2"
     inkscape:pageopacity="0.0"
     inkscape:pagecheckerboard="0"
     inkscape:deskcolor="#d1d1d1"
     showborder="false"
     inkscape:zoom="26.428116"
     inkscape:cx="-3.3865449"
     inkscape:cy="4.5406188"
     inkscape:window-width="2560"
     inkscape:window-height="1403"
     inkscape:window-x="0"
     inkscape:window-y="0"
     inkscape:window-maximized="1"
     inkscape:current-layer="svg15572" /><defs
     id="defs15576" /><inkscape:templateinfo><inkscape:name>morewaita-symbolic</inkscape:name><inkscape:date>2025-09-24</inkscape:date></inkscape:templateinfo><path
     d="M 8,0 V 1.6210937 H 9.7734375 V 0 Z"
     style="stroke-width:1.53459;stroke-linejoin:round;stroke-dasharray:5.61224, 1.40306"
     id="path14" /><path
     d="m 11.966797,0 v 1.6210937 h 2.412109 V 4.0332031 H 16 V 1.0976562 C 16,0.4897431 15.510257,0 14.902344,0 Z"
     style="stroke-width:1.53459;stroke-linejoin:round;stroke-dasharray:5.61224, 1.40306"
     id="path13" /><path
     d="m 14.378906,6.2265625 v 3.546875 H 16 v -3.546875 z"
     style="stroke-width:1.53459;stroke-linejoin:round;stroke-dasharray:5.61224, 1.40306"
     id="path12" /><path
     d="M 14.378906,11.966797 H 16 v 2.935547 C 16,15.510257 15.510257,16 14.902344,16 h -2.935547 v -1.621094 h 2.412109 z"
     style="stroke-width:1.53459;stroke-linejoin:round;stroke-dasharray:5.61224, 1.40306"
     id="path11" /><path
     d="M 8,14.378906 V 16 h 1.7734375 v -1.621094 z"
     style="stroke-width:1.53459;stroke-linejoin:round;stroke-dasharray:5.61224, 1.40306"
     id="path10" /><path
     d="M 8.0000001,3e-7 V 1.621094 H 6.2265626 V 3e-7 Z"
     style="stroke-width:1.53459;stroke-linejoin:round;stroke-dasharray:5.61224, 1.40306;fill:#000000;fill-opacity:0.25035331"
     id="path14-5" /><path
     d="M 4.0332031,3e-7 V 1.621094 H 1.6210941 V 4.0332034 H 0 V 1.0976565 C 0,0.4897434 0.489743,3e-7 1.0976561,3e-7 Z"
     style="stroke-width:1.53459;stroke-linejoin:round;stroke-dasharray:5.61224, 1.40306;fill:#000000;fill-opacity:0.25035331"
     id="path13-6" /><path
     d="m 1.6210941,6.2265628 v 3.546875 H 0 v -3.546875 z"
     style="stroke-width:1.53459;stroke-linejoin:round;stroke-dasharray:5.61224, 1.40306;fill:#000000;fill-opacity:0.25035331"
     id="path12-2" /><path
     d="M 1.6210941,11.966797 H 0 v 2.935547 C 0,15.510257 0.489743,16 1.0976561,16 h 2.935547 v -1.621094 h -2.412109 z"
     style="stroke-width:1.53459;stroke-linejoin:round;stroke-dasharray:5.61224, 1.40306;fill:#000000;fill-opacity:0.25035331"
     id="path11-9" /><path
     d="M 8.0000001,14.378906 V 16 H 6.2265626 v -1.621094 z"
     style="stroke-width:1.53459;stroke-linejoin:round;stroke-dasharray:5.61224, 1.40306;fill:#000000;fill-opacity:0.25035331"
     id="path10-1" /><path
     d="M 8.0000004,3.8179216 A 4.1822422,4.1822422 0 0 0 3.8179219,8 4.1822422,4.1822422 0 0 0 8.0000004,12.182079 Z"
     style="fill:#000000;fill-opacity:1;stroke-width:1.30034;stroke-linejoin:round;stroke-dasharray:4.75553, 1.18888"
     id="path9" /><rect
     style="display:none;fill:#000000;fill-opacity:0.49792;stroke-width:1.69941;stroke-linejoin:round;stroke-dasharray:6.21498, 1.55375"
     id="rect14"
     width="11.966797"
     height="11.966797"
     x="2.0166016"
     y="2.0166018" /><path
     d="M 8,2.5957031 V 3.8183594 A 4.1822422,4.1822422 0 0 1 12.181641,8 4.1822422,4.1822422 0 0 1 8,12.181641 v 1.222656 h 5.310547 V 2.5957031 Z"
     style="display:inline;fill-opacity:0.49862;stroke-width:1.39218;stroke-linejoin:round;stroke-dasharray:5.0914, 1.27285"
     id="path16" /></svg>
