<?xml version="1.0" encoding="UTF-8" standalone="no"?>
<svg
   height="16px"
   viewBox="0 0 16 16"
   width="16px"
   version="1.1"
   id="svg15572"
   sodipodi:docname="effects-photo-glow-symbolic.svg"
   inkscape:export-filename="/mnt/external/cloud/design/gnome/image.svg"
   inkscape:version="1.4.4 (dcaf3e7d9e, 2026-05-05)"
   xml:space="preserve"
   xmlns:inkscape="http://www.inkscape.org/namespaces/inkscape"
   xmlns:sodipodi="http://sodipodi.sourceforge.net/DTD/sodipodi-0.dtd"
   xmlns="http://www.w3.org/2000/svg"
   xmlns:svg="http://www.w3.org/2000/svg"><sodipodi:namedview
     id="namedview1"
     pagecolor="#ffffff"
     bordercolor="#000000"
     borderopacity="0.25"
     inkscape:showpageshadow="2"
     inkscape:pageopacity="0.0"
     inkscape:pagecheckerboard="0"
     inkscape:deskcolor="#d1d1d1"
     showborder="false"
     inkscape:zoom="8"
     inkscape:cx="40.5625"
     inkscape:cy="-9.375"
     inkscape:window-width="2560"
     inkscape:window-height="1403"
     inkscape:window-x="0"
     inkscape:window-y="0"
     inkscape:window-maximized="1"
     inkscape:current-layer="svg15572" /><defs
     id="defs15576"><inkscape:path-effect
   effect="fillet_chamfer"
   id="path-effect126"
   is_visible="true"
   lpeversion="1"
   nodesatellites_param="F,0,0,1,0,0,0,1 @ F,0,0,1,0,0,0,1 @ F,0,0,1,0,0,0,1 @ F,0,0,1,0,0,0,1 @ F,0,0,1,0,0,0,1 @ F,0,0,1,0,0,0,1 @ F,0,0,1,0,0,0,1 @ F,0,0,1,0,0,0,1 @ F,0,0,1,0,0,0,1 @ F,0,0,1,0,0,0,1 @ F,0,0,1,0,0,0,1 @ F,0,0,1,0,0,0,1 @ F,0,0,1,0,0,0,1 @ F,0,0,1,0,0,0,1 @ F,0,0,1,0,0,0,1 @ F,0,0,1,0,0,0,1 @ F,0,0,1,0,0,0,1 @ F,0,0,1,0,0,0,1 @ F,0,0,1,0,0,0,1 @ F,0,0,1,0,0,0,1 @ F,0,0,1,0,0,0,1 @ F,0,0,1,0,0,0,1 @ F,0,0,1,0,0,0,1 @ F,0,0,1,0,0,0,1 @ F,0,0,1,0,0,0,1 @ F,0,0,1,0,0,0,1 @ F,0,0,1,0,0,0,1 @ F,0,0,1,0,0,0,1 @ F,0,0,1,0,0,0,1 @ F,0,0,1,0,0,0,1 @ F,0,0,1,0,0,0,1 @ F,0,0,1,0,0,0,1 @ F,0,0,1,0,0,0,1 @ F,0,0,1,0,0,0,1 @ F,0,0,1,0,0,0,1 @ F,0,0,1,0,0,0,1 @ F,0,0,1,0,0,0,1 @ F,0,0,1,0,0,0,1 @ F,0,0,1,0,0,0,1 @ F,0,0,1,0,0,0,1 @ F,0,0,1,0,0,0,1 @ F,0,0,1,0,0,0,1 @ F,0,0,1,0,0,0,1 @ F,0,0,1,0,0,0,1 @ F,0,0,1,0,0,0,1 @ F,0,0,1,0,0,0,1 @ F,0,0,1,0,0,0,1 @ F,0,0,1,0,0,0,1 @ F,0,0,1,0,0,0,1 @ F,0,0,1,0,0,0,1 @ F,0,0,1,0,0,0,1 @ F,0,0,1,0,0,0,1 @ F,0,1,1,0,0.21959086,0,1 @ F,0,0,1,0,0.21959086,0,1 @ F,0,0,1,0,0,0,1 @ F,0,0,1,0,0,0,1 @ F,0,0,1,0,0,0,1 @ F,0,0,1,0,0,0,1 @ F,0,0,1,0,0,0,1 @ F,0,0,1,0,0,0,1 @ F,0,0,1,0,0,0,1 @ F,0,0,1,0,0,0,1 @ F,0,0,1,0,0,0,1 @ F,0,0,1,0,0,0,1 @ F,0,0,1,0,0,0,1 @ F,0,0,1,0,0,0,1 @ F,0,0,1,0,0,0,1 @ F,0,0,1,0,0,0,1 @ F,0,0,1,0,0,0,1 @ F,0,0,1,0,0,0,1 @ F,0,0,1,0,0,0,1 @ F,0,0,1,0,0,0,1 @ F,0,0,1,0,0,0,1 @ F,0,0,1,0,0,0,1 @ F,0,0,1,0,0,0,1 @ F,0,0,1,0,0,0,1 @ F,0,0,1,0,0,0,1 @ F,0,0,1,0,0,0,1 @ F,0,0,1,0,0,0,1 @ F,0,0,1,0,0,0,1 @ F,0,0,1,0,0,0,1 @ F,0,0,1,0,0,0,1 @ F,0,0,1,0,0,0,1 @ F,0,0,1,0,0,0,1 @ F,0,0,1,0,0,0,1 @ F,0,0,1,0,0,0,1 @ F,0,0,1,0,0,0,1 @ F,0,0,1,0,0,0,1 @ F,0,0,1,0,0,0,1 @ F,0,0,1,0,0,0,1 @ F,0,0,1,0,0,0,1 @ F,0,0,1,0,0,0,1 @ F,0,0,1,0,0,0,1 @ F,0,0,1,0,0,0,1 @ F,0,0,1,0,0,0,1 @ F,0,0,1,0,0,0,1 @ F,0,0,1,0,0,0,1 @ F,0,0,1,0,0,0,1 @ F,0,0,1,0,0.24259303,0,1 @ F,0,0,1,0,0.24259303,0,1 @ F,0,0,1,0,0,0,1 @ F,0,0,1,0,0,0,1 @ F,0,0,1,0,0,0,1 @ F,0,0,1,0,0,0,1 @ F,0,0,1,0,0,0,1 @ F,0,0,1,0,0,0,1 @ F,0,0,1,0,0,0,1 | F,0,0,1,0,0,0,1 @ F,0,0,1,0,0,0,1 @ F,0,0,1,0,0,0,1 @ F,0,0,1,0,0,0,1 @ F,0,0,1,0,0,0,1 @ F,0,0,1,0,0,0,1 @ F,0,0,1,0,0,0,1 @ F,0,0,1,0,0,0,1 @ F,0,0,1,0,0,0,1 @ F,0,0,1,0,0,0,1 @ F,0,0,1,0,0,0,1 @ F,0,0,1,0,0,0,1 @ F,0,0,1,0,0,0,1 @ F,0,0,1,0,0,0,1 @ F,0,0,1,0,0,0,1 @ F,0,0,1,0,0,0,1 @ F,0,0,1,0,0,0,1 @ F,0,0,1,0,0,0,1 @ F,0,0,1,0,0,0,1 @ F,0,0,1,0,0,0,1 @ F,0,0,1,0,0,0,1 @ F,0,0,1,0,0,0,1 @ F,0,0,1,0,0,0,1 @ F,0,0,1,0,0,0,1 @ F,0,0,1,0,0,0,1 @ F,0,0,1,0,0,0,1 @ F,0,0,1,0,0,0,1 @ F,0,0,1,0,0,0,1 @ F,0,0,1,0,0,0,1 @ F,0,0,1,0,0,0,1 @ F,0,0,1,0,0,0,1 @ F,0,0,1,0,0,0,1 @ F,0,0,1,0,0,0,1 @ F,0,0,1,0,0,0,1 @ F,0,0,1,0,0,0,1 @ F,0,0,1,0,0,0,1 @ F,0,0,1,0,0,0,1 @ F,0,0,1,0,0,0,1 @ F,0,0,1,0,0,0,1 @ F,0,0,1,0,0,0,1 @ F,0,0,1,0,0,0,1 @ F,0,0,1,0,0,0,1 @ F,0,0,1,0,0,0,1 @ F,0,0,1,0,0,0,1 @ F,0,0,1,0,0,0,1 @ F,0,0,1,0,0,0,1 @ F,0,0,1,0,0,0,1 @ F,0,0,1,0,0,0,1 @ F,0,0,1,0,0,0,1 @ F,0,0,1,0,0,0,1 @ F,0,0,1,0,0,0,1 @ F,0,0,1,0,0,0,1 @ F,0,0,1,0,0,0,1 @ F,0,0,1,0,0,0,1 @ F,0,0,1,0,0,0,1 @ F,0,0,1,0,0,0,1 @ F,0,0,1,0,0,0,1 @ F,0,0,1,0,0,0,1 @ F,0,0,1,0,0,0,1 @ F,0,0,1,0,0,0,1 @ F,0,0,1,0,0,0,1 @ F,0,0,1,0,0,0,1 @ F,0,0,1,0,0,0,1 @ F,0,0,1,0,0,0,1 @ F,0,0,1,0,0,0,1 @ F,0,0,1,0,0,0,1 @ F,0,0,1,0,0,0,1 @ F,0,0,1,0,0,0,1 @ F,0,0,1,0,0,0,1 @ F,0,0,1,0,0,0,1 @ F,0,0,1,0,0,0,1 @ F,0,0,1,0,0,0,1 @ F,0,0,1,0,0,0,1 @ F,0,0,1,0,0,0,1"
   radius="0"
   unit="px"
   method="auto"
   mode="F"
   chamfer_steps="1"
   flexible="false"
   use_knot_distance="true"
   apply_no_radius="true"
   apply_with_radius="true"
   only_selected="false"
   hide_knots="false" /><inkscape:path-effect
   effect="fillet_chamfer"
   id="path-effect124"
   is_visible="true"
   lpeversion="1"
   nodesatellites_param="F,0,0,1,0,0,0,1 @ F,0,0,1,0,0,0,1 @ F,0,0,1,0,0,0,1 @ F,0,0,1,0,0,0,1 @ F,0,0,1,0,0,0,1 @ F,0,0,1,0,0,0,1 @ F,0,0,1,0,0,0,1 @ F,0,0,1,0,0,0,1 @ F,0,0,1,0,0,0,1 @ F,0,0,1,0,0,0,1 @ F,0,0,1,0,0,0,1 @ F,0,0,1,0,0,0,1 @ F,0,0,1,0,0,0,1 @ F,0,0,1,0,0,0,1 @ F,0,0,1,0,0,0,1 @ F,0,0,1,0,0,0,1 @ F,0,0,1,0,0,0,1 @ F,0,0,1,0,0,0,1 @ F,0,0,1,0,0,0,1 @ F,0,0,1,0,0,0,1 @ F,0,0,1,0,0,0,1 @ F,0,0,1,0,0,0,1 @ F,0,0,1,0,0,0,1 @ F,0,0,1,0,0,0,1 @ F,0,0,1,0,0,0,1 @ F,0,0,1,0,0,0,1 @ F,0,0,1,0,0,0,1 @ F,0,0,1,0,0,0,1 @ F,0,0,1,0,0,0,1 @ F,0,0,1,0,0,0,1 @ F,0,0,1,0,0,0,1 @ F,0,0,1,0,0,0,1 @ F,0,0,1,0,0,0,1 @ F,0,0,1,0,0,0,1 @ F,0,0,1,0,0,0,1 @ F,0,0,1,0,0,0,1 @ F,0,0,1,0,0,0,1 @ F,0,0,1,0,0,0,1 @ F,0,0,1,0,0,0,1 @ F,0,0,1,0,0,0,1 @ F,0,0,1,0,0,0,1 @ F,0,0,1,0,0,0,1 @ F,0,0,1,0,0,0,1 @ F,0,0,1,0,0,0,1 @ F,0,0,1,0,0,0,1 @ F,0,0,1,0,0,0,1 @ F,0,0,1,0,0,0,1 @ F,0,0,1,0,0,0,1 @ F,0,0,1,0,0,0,1 @ F,0,0,1,0,0,0,1 @ F,0,0,1,0,0,0,1 @ F,0,0,1,0,0,0,1 @ F,0,0,1,0,0,0,1 @ F,0,0,1,0,0,0,1 @ F,0,0,1,0,0,0,1 @ F,0,0,1,0,0,0,1 @ F,0,0,1,0,0,0,1 @ F,0,0,1,0,0,0,1 @ F,0,0,1,0,0,0,1 @ F,0,0,1,0,0,0,1 @ F,0,0,1,0,0,0,1 @ F,0,0,1,0,0,0,1 @ F,0,0,1,0,0,0,1 @ F,0,0,1,0,0,0,1 @ F,0,0,1,0,0,0,1 @ F,0,0,1,0,0,0,1 @ F,0,0,1,0,0,0,1 @ F,0,0,1,0,0,0,1 @ F,0,0,1,0,0,0,1 @ F,0,0,1,0,0,0,1 @ F,0,0,1,0,0,0,1 @ F,0,0,1,0,0,0,1 @ F,0,0,1,0,0,0,1 @ F,0,0,1,0,0,0,1 @ F,0,0,1,0,0,0,1 @ F,0,0,1,0,0,0,1 @ F,0,0,1,0,0,0,1 @ F,0,0,1,0,0,0,1 @ F,0,0,1,0,0,0,1 @ F,0,0,1,0,0,0,1 @ F,0,0,1,0,0,0,1 @ F,0,0,1,0,0,0,1 @ F,0,0,1,0,0,0,1 @ F,0,0,1,0,0,0,1 @ F,0,0,1,0,0,0,1 @ F,0,0,1,0,0,0,1 @ F,0,0,1,0,0,0,1 @ F,0,0,1,0,0,0,1 @ F,0,0,1,0,0,0,1 @ F,0,0,1,0,0,0,1 @ F,0,0,1,0,0,0,1 @ F,0,0,1,0,0,0,1 @ F,0,0,1,0,0,0,1 @ F,0,0,1,0,0,0,1 @ F,0,0,1,0,0,0,1 @ F,0,0,1,0,0,0,1 @ F,0,0,1,0,0,0,1 @ F,0,0,1,0,0,0,1 @ F,0,0,1,0,0,0,1 @ F,0,0,1,0,0,0,1 @ F,0,0,1,0,0,0,1 @ F,0,0,1,0,0,0,1 @ F,0,0,1,0,0,0,1 @ F,0,0,1,0,0,0,1 @ F,0,0,1,0,0,0,1 @ F,0,0,1,0,0,0,1 @ F,0,0,1,0,0,0,1 @ F,0,0,1,0,0,0,1 @ F,0,0,1,0,0,0,1 @ F,0,0,1,0,0,0,1 @ F,0,0,1,0,0,0,1 @ F,0,0,1,0,0,0,1 @ F,0,0,1,0,0,0,1 @ F,0,0,1,0,0,0,1 @ F,0,0,1,0,0,0,1 @ F,0,0,1,0,0,0,1 @ F,0,0,1,0,0,0,1 @ F,0,0,1,0,0,0,1 @ F,0,0,1,0,0,0,1 @ F,0,0,1,0,0,0,1 @ F,0,0,1,0,0,0,1 @ F,0,0,1,0,0,0,1"
   radius="0"
   unit="px"
   method="auto"
   mode="F"
   chamfer_steps="1"
   flexible="false"
   use_knot_distance="true"
   apply_no_radius="true"
   apply_with_radius="true"
   only_selected="false"
   hide_knots="false" /><inkscape:path-effect
   effect="fillet_chamfer"
   id="path-effect123"
   is_visible="true"
   lpeversion="1"
   nodesatellites_param="F,0,0,1,0,0,0,1 @ F,0,0,1,0,0,0,1 @ F,0,0,1,0,0,0,1 @ F,0,0,1,0,0,0,1 @ F,0,0,1,0,0,0,1 @ F,0,0,1,0,0,0,1 @ F,0,0,1,0,0,0,1 @ F,0,0,1,0,0,0,1 @ F,0,0,1,0,0,0,1 @ F,0,0,1,0,0,0,1 @ F,0,0,1,0,0,0,1 @ F,0,0,1,0,0,0,1 @ F,0,0,1,0,0,0,1 @ F,0,0,1,0,0,0,1 @ F,0,0,1,0,0,0,1 @ F,0,0,1,0,0,0,1 @ F,0,0,1,0,0,0,1 @ F,0,0,1,0,0,0,1 @ F,0,0,1,0,0,0,1 @ F,0,0,1,0,0,0,1 @ F,0,0,1,0,0,0,1 @ F,0,0,1,0,0,0,1 @ F,0,0,1,0,0,0,1 @ F,0,0,1,0,0,0,1 @ F,0,0,1,0,0,0,1 @ F,0,0,1,0,0,0,1 @ F,0,0,1,0,0,0,1 @ F,0,0,1,0,0,0,1 @ F,0,0,1,0,0,0,1 @ F,0,0,1,0,0,0,1 @ F,0,0,1,0,0,0,1 @ F,0,0,1,0,0,0,1 @ F,0,0,1,0,0,0,1 @ F,0,0,1,0,0,0,1 @ F,0,0,1,0,0,0,1 @ F,0,0,1,0,0,0,1 @ F,0,0,1,0,0,0,1 @ F,0,0,1,0,0,0,1 @ F,0,0,1,0,0,0,1 @ F,0,0,1,0,0,0,1 @ F,0,0,1,0,0,0,1 @ F,0,0,1,0,0,0,1 @ F,0,0,1,0,0,0,1 @ F,0,0,1,0,0,0,1 @ F,0,0,1,0,0,0,1 @ F,0,0,1,0,0,0,1 @ F,0,0,1,0,0,0,1 @ F,0,0,1,0,0,0,1 @ F,0,0,1,0,0,0,1 @ F,0,0,1,0,0,0,1 @ F,0,0,1,0,0,0,1 @ F,0,0,1,0,0,0,1 @ F,0,0,1,0,0,0,1 @ F,0,0,1,0,0,0,1 @ F,0,0,1,0,0,0,1 @ F,0,0,1,0,0,0,1 @ F,0,0,1,0,0,0,1 @ F,0,0,1,0,0,0,1 @ F,0,0,1,0,0,0,1 @ F,0,0,1,0,0,0,1 @ F,0,0,1,0,0,0,1 @ F,0,0,1,0,0,0,1 @ F,0,0,1,0,0,0,1 @ F,0,0,1,0,0,0,1 @ F,0,0,1,0,0,0,1 @ F,0,0,1,0,0,0,1 @ F,0,0,1,0,0,0,1 @ F,0,0,1,0,0,0,1 @ F,0,0,1,0,0,0,1 @ F,0,0,1,0,0,0,1 @ F,0,0,1,0,0,0,1 @ F,0,0,1,0,0,0,1 @ F,0,0,1,0,0,0,1 @ F,0,0,1,0,0,0,1 @ F,0,0,1,0,0,0,1 @ F,0,0,1,0,0,0,1 @ F,0,0,1,0,0,0,1 @ F,0,0,1,0,0,0,1 @ F,0,0,1,0,0,0,1 @ F,0,0,1,0,0,0,1 @ F,0,0,1,0,0,0,1 @ F,0,0,1,0,0,0,1 @ F,0,0,1,0,0,0,1 @ F,0,0,1,0,0,0,1 @ F,0,0,1,0,0,0,1 @ F,0,0,1,0,0,0,1 @ F,0,0,1,0,0,0,1 @ F,0,0,1,0,0,0,1 @ F,0,0,1,0,0,0,1 @ F,0,0,1,0,0,0,1 @ F,0,0,1,0,0,0,1 @ F,0,0,1,0,0,0,1 @ F,0,0,1,0,0,0,1 @ F,0,0,1,0,0,0,1 @ F,0,0,1,0,0,0,1 @ F,0,0,1,0,0,0,1 @ F,0,0,1,0,0,0,1 @ F,0,0,1,0,0,0,1 @ F,0,0,1,0,0,0,1 @ F,0,0,1,0,0,0,1 @ F,0,0,1,0,0,0,1 @ F,0,0,1,0,0,0,1 @ F,0,0,1,0,0,0,1 @ F,0,0,1,0,0,0,1 @ F,0,0,1,0,0,0,1 @ F,0,0,1,0,0,0,1 @ F,0,0,1,0,0,0,1 @ F,0,0,1,0,0,0,1 @ F,0,0,1,0,0,0,1 @ F,0,0,1,0,0,0,1 @ F,0,0,1,0,0,0,1 @ F,0,0,1,0,0,0,1 @ F,0,0,1,0,0,0,1 @ F,0,0,1,0,0,0,1 @ F,0,0,1,0,0,0,1 @ F,0,0,1,0,0,0,1 @ F,0,0,1,0,0,0,1 @ F,0,0,1,0,0,0,1 @ F,0,0,1,0,0,0,1 @ F,0,0,1,0,0,0,1 @ F,0,0,1,0,0,0,1 @ F,0,0,1,0,0,0,1"
   radius="0"
   unit="px"
   method="auto"
   mode="F"
   chamfer_steps="1"
   flexible="false"
   use_knot_distance="true"
   apply_no_radius="true"
   apply_with_radius="true"
   only_selected="false"
   hide_knots="false" /><inkscape:path-effect
   effect="fillet_chamfer"
   id="path-effect122"
   is_visible="true"
   lpeversion="1"
   nodesatellites_param="F,0,0,1,0,0,0,1 @ F,0,0,1,0,0,0,1 @ F,0,0,1,0,0,0,1 @ F,0,0,1,0,0,0,1 @ F,0,0,1,0,0,0,1 @ F,0,0,1,0,0,0,1 @ F,0,0,1,0,0,0,1 @ F,0,0,1,0,0,0,1 @ F,0,0,1,0,0,0,1 @ F,0,0,1,0,0,0,1 @ F,0,0,1,0,0,0,1 @ F,0,0,1,0,0,0,1 @ F,0,0,1,0,0,0,1 @ F,0,0,1,0,0,0,1 @ F,0,0,1,0,0,0,1 @ F,0,0,1,0,0,0,1 @ F,0,0,1,0,0,0,1 @ F,0,0,1,0,0,0,1 @ F,0,0,1,0,0,0,1 @ F,0,0,1,0,0,0,1 @ F,0,0,1,0,0,0,1 @ F,0,0,1,0,0,0,1 @ F,0,0,1,0,0,0,1 @ F,0,0,1,0,0,0,1 @ F,0,0,1,0,0,0,1 @ F,0,0,1,0,0,0,1 @ F,0,0,1,0,0,0,1 @ F,0,0,1,0,0,0,1 @ F,0,0,1,0,0,0,1 @ F,0,0,1,0,0,0,1 @ F,0,0,1,0,0,0,1 @ F,0,0,1,0,0,0,1 @ F,0,0,1,0,0,0,1 @ F,0,0,1,0,0,0,1 @ F,0,0,1,0,0,0,1 @ F,0,0,1,0,0,0,1 @ F,0,0,1,0,0,0,1 @ F,0,0,1,0,0,0,1 @ F,0,0,1,0,0,0,1 @ F,0,0,1,0,0,0,1 @ F,0,0,1,0,0,0,1 @ F,0,0,1,0,0,0,1 @ F,0,0,1,0,0,0,1 @ F,0,0,1,0,0,0,1 @ F,0,0,1,0,0,0,1 @ F,0,0,1,0,0,0,1 @ F,0,0,1,0,0,0,1 @ F,0,0,1,0,0,0,1 @ F,0,0,1,0,0,0,1 @ F,0,0,1,0,0,0,1 @ F,0,0,1,0,0,0,1 @ F,0,0,1,0,0,0,1 @ F,0,0,1,0,0,0,1 @ F,0,0,1,0,0,0,1 @ F,0,0,1,0,0,0,1 @ F,0,0,1,0,0,0,1 @ F,0,0,1,0,0,0,1 @ F,0,0,1,0,0,0,1 @ F,0,0,1,0,0,0,1 @ F,0,0,1,0,0,0,1 @ F,0,0,1,0,0,0,1 @ F,0,0,1,0,0,0,1 @ F,0,0,1,0,0,0,1 @ F,0,0,1,0,0,0,1 @ F,0,0,1,0,0,0,1 @ F,0,0,1,0,0,0,1 @ F,0,0,1,0,0,0,1 @ F,0,0,1,0,0,0,1 @ F,0,0,1,0,0,0,1 @ F,0,0,1,0,0,0,1 @ F,0,0,1,0,0,0,1 @ F,0,0,1,0,0,0,1 @ F,0,0,1,0,0,0,1 @ F,0,0,1,0,0,0,1 @ F,0,0,1,0,0,0,1 @ F,0,0,1,0,0,0,1 @ F,0,0,1,0,0,0,1 @ F,0,0,1,0,0,0,1 @ F,0,0,1,0,0,0,1 @ F,0,0,1,0,0,0,1 @ F,0,0,1,0,0,0,1 @ F,0,0,1,0,0,0,1 @ F,0,0,1,0,0,0,1 @ F,0,0,1,0,0,0,1 @ F,0,0,1,0,0,0,1 @ F,0,0,1,0,0,0,1 @ F,0,0,1,0,0,0,1 @ F,0,0,1,0,0,0,1 @ F,0,0,1,0,0,0,1 @ F,0,0,1,0,0,0,1 @ F,0,0,1,0,0,0,1 @ F,0,0,1,0,0,0,1 @ F,0,0,1,0,0,0,1 @ F,0,0,1,0,0,0,1 @ F,0,0,1,0,0,0,1 @ F,0,0,1,0,0,0,1 @ F,0,0,1,0,0,0,1 @ F,0,0,1,0,0,0,1 @ F,0,0,1,0,0,0,1 @ F,0,0,1,0,0,0,1 @ F,0,0,1,0,0,0,1 @ F,0,0,1,0,0,0,1 @ F,0,0,1,0,0,0,1 @ F,0,0,1,0,0,0,1 @ F,0,0,1,0,0,0,1 @ F,0,0,1,0,0,0,1 @ F,0,0,1,0,0,0,1 @ F,0,0,1,0,0,0,1 @ F,0,0,1,0,0,0,1 @ F,0,0,1,0,0,0,1 @ F,0,0,1,0,0,0,1 @ F,0,0,1,0,0,0,1 @ F,0,0,1,0,0,0,1 @ F,0,0,1,0,0,0,1 @ F,0,0,1,0,0,0,1 @ F,0,0,1,0,0,0,1 @ F,0,0,1,0,0,0,1 @ F,0,0,1,0,0,0,1 @ F,0,0,1,0,0,0,1 @ F,0,0,1,0,0,0,1 @ F,0,0,1,0,0,0,1 @ F,0,0,1,0,0,0,1"
   radius="0"
   unit="px"
   method="auto"
   mode="F"
   chamfer_steps="1"
   flexible="false"
   use_knot_distance="true"
   apply_no_radius="true"
   apply_with_radius="true"
   only_selected="false"
   hide_knots="false" /><inkscape:path-effect
   effect="fillet_chamfer"
   id="path-effect2"
   is_visible="true"
   lpeversion="1"
   nodesatellites_param="F,0,0,1,0,0,0,1 @ F,0,0,1,0,0.41443019,0,1 @ F,0,0,1,0,0,0,1"
   radius="0"
   unit="px"
   method="auto"
   mode="F"
   chamfer_steps="1"
   flexible="false"
   use_knot_distance="true"
   apply_no_radius="true"
   apply_with_radius="true"
   only_selected="false"
   hide_knots="false" /><inkscape:path-effect
   effect="fillet_chamfer"
   id="path-effect1"
   is_visible="true"
   lpeversion="1"
   nodesatellites_param="F,0,0,1,0,0,0,1 @ F,0,0,1,0,0,0,1 @ F,0,0,1,0,25.480979,0,1 @ F,0,0,1,0,25.480979,0,1 @ F,0,0,1,0,25.480979,0,1 @ F,0,0,1,0,0,0,1 @ F,0,0,1,0,0,0,1 @ F,0,0,1,0,0,0,1 @ F,0,0,1,0,0,0,1 @ F,0,0,1,0,0,0,1 @ F,0,0,1,0,0,0,1 @ F,0,0,1,0,0,0,1 @ F,0,0,1,0,0,0,1 @ F,0,0,1,0,18.989692,0,1 @ F,0,0,1,0,0,0,1"
   radius="0"
   unit="px"
   method="auto"
   mode="F"
   chamfer_steps="1"
   flexible="false"
   use_knot_distance="true"
   apply_no_radius="true"
   apply_with_radius="true"
   only_selected="false"
   hide_knots="false" /><inkscape:path-effect
   effect="fillet_chamfer"
   id="path-effect1-6"
   is_visible="true"
   lpeversion="1"
   nodesatellites_param="F,0,0,1,0,0,0,1 @ F,0,0,1,0,0,0,1 @ F,0,0,1,0,25.480979,0,1 @ F,0,0,1,0,25.480979,0,1 @ F,0,0,1,0,25.480979,0,1 @ F,0,0,1,0,0,0,1 @ F,0,0,1,0,0,0,1 @ F,0,0,1,0,0,0,1 @ F,0,0,1,0,0,0,1 @ F,0,0,1,0,0,0,1 @ F,0,0,1,0,0,0,1 @ F,0,0,1,0,0,0,1 @ F,0,0,1,0,0,0,1 @ F,0,0,1,0,5.9730369,0,1 @ F,0,0,1,0,0,0,1"
   radius="0"
   unit="px"
   method="auto"
   mode="F"
   chamfer_steps="1"
   flexible="false"
   use_knot_distance="true"
   apply_no_radius="true"
   apply_with_radius="true"
   only_selected="false"
   hide_knots="false" />
	
<inkscape:path-effect
   effect="fillet_chamfer"
   id="path-effect126-2"
   is_visible="true"
   lpeversion="1"
   nodesatellites_param="F,0,0,1,0,0,0,1 @ F,0,0,1,0,0,0,1 @ F,0,0,1,0,0,0,1 @ F,0,0,1,0,0,0,1 @ F,0,0,1,0,0,0,1 @ F,0,0,1,0,0,0,1 @ F,0,0,1,0,0,0,1 @ F,0,0,1,0,0,0,1 @ F,0,0,1,0,0,0,1 @ F,0,0,1,0,0,0,1 @ F,0,0,1,0,0,0,1 @ F,0,0,1,0,0,0,1 @ F,0,0,1,0,0,0,1 @ F,0,0,1,0,0,0,1 @ F,0,0,1,0,0,0,1 @ F,0,0,1,0,0,0,1 @ F,0,0,1,0,0,0,1 @ F,0,0,1,0,0,0,1 @ F,0,0,1,0,0,0,1 @ F,0,0,1,0,0,0,1 @ F,0,0,1,0,0,0,1 @ F,0,0,1,0,0,0,1 @ F,0,0,1,0,0,0,1 @ F,0,0,1,0,0,0,1 @ F,0,0,1,0,0,0,1 @ F,0,0,1,0,0,0,1 @ F,0,0,1,0,0,0,1 @ F,0,0,1,0,0,0,1 @ F,0,0,1,0,0,0,1 @ F,0,0,1,0,0,0,1 @ F,0,0,1,0,0,0,1 @ F,0,0,1,0,0,0,1 @ F,0,0,1,0,0,0,1 @ F,0,0,1,0,0,0,1 @ F,0,0,1,0,0,0,1 @ F,0,0,1,0,0,0,1 @ F,0,0,1,0,0,0,1 @ F,0,0,1,0,0,0,1 @ F,0,0,1,0,0,0,1 @ F,0,0,1,0,0,0,1 @ F,0,0,1,0,0,0,1 @ F,0,0,1,0,0,0,1 @ F,0,0,1,0,0,0,1 @ F,0,0,1,0,0,0,1 @ F,0,0,1,0,0,0,1 @ F,0,0,1,0,0,0,1 @ F,0,0,1,0,0,0,1 @ F,0,0,1,0,0,0,1 @ F,0,0,1,0,0,0,1 @ F,0,0,1,0,0,0,1 @ F,0,0,1,0,0,0,1 @ F,0,0,1,0,0,0,1 @ F,0,1,1,0,0.21959086,0,1 @ F,0,0,1,0,0.21959086,0,1 @ F,0,0,1,0,0,0,1 @ F,0,0,1,0,0,0,1 @ F,0,0,1,0,0,0,1 @ F,0,0,1,0,0,0,1 @ F,0,0,1,0,0,0,1 @ F,0,0,1,0,0,0,1 @ F,0,0,1,0,0,0,1 @ F,0,0,1,0,0,0,1 @ F,0,0,1,0,0,0,1 @ F,0,0,1,0,0,0,1 @ F,0,0,1,0,0,0,1 @ F,0,0,1,0,0,0,1 @ F,0,0,1,0,0,0,1 @ F,0,0,1,0,0,0,1 @ F,0,0,1,0,0,0,1 @ F,0,0,1,0,0,0,1 @ F,0,0,1,0,0,0,1 @ F,0,0,1,0,0,0,1 @ F,0,0,1,0,0,0,1 @ F,0,0,1,0,0,0,1 @ F,0,0,1,0,0,0,1 @ F,0,0,1,0,0,0,1 @ F,0,0,1,0,0,0,1 @ F,0,0,1,0,0,0,1 @ F,0,0,1,0,0,0,1 @ F,0,0,1,0,0,0,1 @ F,0,0,1,0,0,0,1 @ F,0,0,1,0,0,0,1 @ F,0,0,1,0,0,0,1 @ F,0,0,1,0,0,0,1 @ F,0,0,1,0,0,0,1 @ F,0,0,1,0,0,0,1 @ F,0,0,1,0,0,0,1 @ F,0,0,1,0,0,0,1 @ F,0,0,1,0,0,0,1 @ F,0,0,1,0,0,0,1 @ F,0,0,1,0,0,0,1 @ F,0,0,1,0,0,0,1 @ F,0,0,1,0,0,0,1 @ F,0,0,1,0,0,0,1 @ F,0,0,1,0,0,0,1 @ F,0,0,1,0,0,0,1 @ F,0,0,1,0,0,0,1 @ F,0,0,1,0,0,0,1 @ F,0,0,1,0,0.24259303,0,1 @ F,0,0,1,0,0.24259303,0,1 @ F,0,0,1,0,0,0,1 @ F,0,0,1,0,0,0,1 @ F,0,0,1,0,0,0,1 @ F,0,0,1,0,0,0,1 @ F,0,0,1,0,0,0,1 @ F,0,0,1,0,0,0,1 @ F,0,0,1,0,0,0,1 | F,0,0,1,0,0,0,1 @ F,0,0,1,0,0,0,1 @ F,0,0,1,0,0,0,1 @ F,0,0,1,0,0,0,1 @ F,0,0,1,0,0,0,1 @ F,0,0,1,0,0,0,1 @ F,0,0,1,0,0,0,1 @ F,0,0,1,0,0,0,1 @ F,0,0,1,0,0,0,1 @ F,0,0,1,0,0,0,1 @ F,0,0,1,0,0,0,1 @ F,0,0,1,0,0,0,1 @ F,0,0,1,0,0,0,1 @ F,0,0,1,0,0,0,1 @ F,0,0,1,0,0,0,1 @ F,0,0,1,0,0,0,1 @ F,0,0,1,0,0,0,1 @ F,0,0,1,0,0,0,1 @ F,0,0,1,0,0,0,1 @ F,0,0,1,0,0,0,1 @ F,0,0,1,0,0,0,1 @ F,0,0,1,0,0,0,1 @ F,0,0,1,0,0,0,1 @ F,0,0,1,0,0,0,1 @ F,0,0,1,0,0,0,1 @ F,0,0,1,0,0,0,1 @ F,0,0,1,0,0,0,1 @ F,0,0,1,0,0,0,1 @ F,0,0,1,0,0,0,1 @ F,0,0,1,0,0,0,1 @ F,0,0,1,0,0,0,1 @ F,0,0,1,0,0,0,1 @ F,0,0,1,0,0,0,1 @ F,0,0,1,0,0,0,1 @ F,0,0,1,0,0,0,1 @ F,0,0,1,0,0,0,1 @ F,0,0,1,0,0,0,1 @ F,0,0,1,0,0,0,1 @ F,0,0,1,0,0,0,1 @ F,0,0,1,0,0,0,1 @ F,0,0,1,0,0,0,1 @ F,0,0,1,0,0,0,1 @ F,0,0,1,0,0,0,1 @ F,0,0,1,0,0,0,1 @ F,0,0,1,0,0,0,1 @ F,0,0,1,0,0,0,1 @ F,0,0,1,0,0,0,1 @ F,0,0,1,0,0,0,1 @ F,0,0,1,0,0,0,1 @ F,0,0,1,0,0,0,1 @ F,0,0,1,0,0,0,1 @ F,0,0,1,0,0,0,1 @ F,0,0,1,0,0,0,1 @ F,0,0,1,0,0,0,1 @ F,0,0,1,0,0,0,1 @ F,0,0,1,0,0,0,1 @ F,0,0,1,0,0,0,1 @ F,0,0,1,0,0,0,1 @ F,0,0,1,0,0,0,1 @ F,0,0,1,0,0,0,1 @ F,0,0,1,0,0,0,1 @ F,0,0,1,0,0,0,1 @ F,0,0,1,0,0,0,1 @ F,0,0,1,0,0,0,1 @ F,0,0,1,0,0,0,1 @ F,0,0,1,0,0,0,1 @ F,0,0,1,0,0,0,1 @ F,0,0,1,0,0,0,1 @ F,0,0,1,0,0,0,1 @ F,0,0,1,0,0,0,1 @ F,0,0,1,0,0,0,1 @ F,0,0,1,0,0,0,1 @ F,0,0,1,0,0,0,1 @ F,0,0,1,0,0,0,1"
   radius="0"
   unit="px"
   method="auto"
   mode="F"
   chamfer_steps="1"
   flexible="false"
   use_knot_distance="true"
   apply_no_radius="true"
   apply_with_radius="true"
   only_selected="false"
   hide_knots="false" /><inkscape:path-effect
   effect="fillet_chamfer"
   id="path-effect126-20"
   is_visible="true"
   lpeversion="1"
   nodesatellites_param="F,0,0,1,0,0,0,1 @ F,0,0,1,0,0,0,1 @ F,0,0,1,0,0,0,1 @ F,0,0,1,0,0,0,1 @ F,0,0,1,0,0,0,1 @ F,0,0,1,0,0,0,1 @ F,0,0,1,0,0,0,1 @ F,0,0,1,0,0,0,1 @ F,0,0,1,0,0,0,1 @ F,0,0,1,0,0,0,1 @ F,0,0,1,0,0,0,1 @ F,0,0,1,0,0,0,1 @ F,0,0,1,0,0,0,1 @ F,0,0,1,0,0,0,1 @ F,0,0,1,0,0,0,1 @ F,0,0,1,0,0,0,1 @ F,0,0,1,0,0,0,1 @ F,0,0,1,0,0,0,1 @ F,0,0,1,0,0,0,1 @ F,0,0,1,0,0,0,1 @ F,0,0,1,0,0,0,1 @ F,0,0,1,0,0,0,1 @ F,0,0,1,0,0,0,1 @ F,0,0,1,0,0,0,1 @ F,0,0,1,0,0,0,1 @ F,0,0,1,0,0,0,1 @ F,0,0,1,0,0,0,1 @ F,0,0,1,0,0,0,1 @ F,0,0,1,0,0,0,1 @ F,0,0,1,0,0,0,1 @ F,0,0,1,0,0,0,1 @ F,0,0,1,0,0,0,1 @ F,0,0,1,0,0,0,1 @ F,0,0,1,0,0,0,1 @ F,0,0,1,0,0,0,1 @ F,0,0,1,0,0,0,1 @ F,0,0,1,0,0,0,1 @ F,0,0,1,0,0,0,1 @ F,0,0,1,0,0,0,1 @ F,0,0,1,0,0,0,1 @ F,0,0,1,0,0,0,1 @ F,0,0,1,0,0,0,1 @ F,0,0,1,0,0,0,1 @ F,0,0,1,0,0,0,1 @ F,0,0,1,0,0,0,1 @ F,0,0,1,0,0,0,1 @ F,0,0,1,0,0,0,1 @ F,0,0,1,0,0,0,1 @ F,0,0,1,0,0,0,1 @ F,0,0,1,0,0,0,1 @ F,0,0,1,0,0,0,1 @ F,0,0,1,0,0,0,1 @ F,0,1,1,0,0.21959086,0,1 @ F,0,0,1,0,0.21959086,0,1 @ F,0,0,1,0,0,0,1 @ F,0,0,1,0,0,0,1 @ F,0,0,1,0,0,0,1 @ F,0,0,1,0,0,0,1 @ F,0,0,1,0,0,0,1 @ F,0,0,1,0,0,0,1 @ F,0,0,1,0,0,0,1 @ F,0,0,1,0,0,0,1 @ F,0,0,1,0,0,0,1 @ F,0,0,1,0,0,0,1 @ F,0,0,1,0,0,0,1 @ F,0,0,1,0,0,0,1 @ F,0,0,1,0,0,0,1 @ F,0,0,1,0,0,0,1 @ F,0,0,1,0,0,0,1 @ F,0,0,1,0,0,0,1 @ F,0,0,1,0,0,0,1 @ F,0,0,1,0,0,0,1 @ F,0,0,1,0,0,0,1 @ F,0,0,1,0,0,0,1 @ F,0,0,1,0,0,0,1 @ F,0,0,1,0,0,0,1 @ F,0,0,1,0,0,0,1 @ F,0,0,1,0,0,0,1 @ F,0,0,1,0,0,0,1 @ F,0,0,1,0,0,0,1 @ F,0,0,1,0,0,0,1 @ F,0,0,1,0,0,0,1 @ F,0,0,1,0,0,0,1 @ F,0,0,1,0,0,0,1 @ F,0,0,1,0,0,0,1 @ F,0,0,1,0,0,0,1 @ F,0,0,1,0,0,0,1 @ F,0,0,1,0,0,0,1 @ F,0,0,1,0,0,0,1 @ F,0,0,1,0,0,0,1 @ F,0,0,1,0,0,0,1 @ F,0,0,1,0,0,0,1 @ F,0,0,1,0,0,0,1 @ F,0,0,1,0,0,0,1 @ F,0,0,1,0,0,0,1 @ F,0,0,1,0,0,0,1 @ F,0,0,1,0,0,0,1 @ F,0,0,1,0,0,0,1 @ F,0,0,1,0,0.24259303,0,1 @ F,0,0,1,0,0.24259303,0,1 @ F,0,0,1,0,0,0,1 @ F,0,0,1,0,0,0,1 @ F,0,0,1,0,0,0,1 @ F,0,0,1,0,0,0,1 @ F,0,0,1,0,0,0,1 @ F,0,0,1,0,0,0,1 @ F,0,0,1,0,0,0,1 | F,0,0,1,0,0,0,1 @ F,0,0,1,0,0,0,1 @ F,0,0,1,0,0,0,1 @ F,0,0,1,0,0,0,1 @ F,0,0,1,0,0,0,1 @ F,0,0,1,0,0,0,1 @ F,0,0,1,0,0,0,1 @ F,0,0,1,0,0,0,1 @ F,0,0,1,0,0,0,1 @ F,0,0,1,0,0,0,1 @ F,0,0,1,0,0,0,1 @ F,0,0,1,0,0,0,1 @ F,0,0,1,0,0,0,1 @ F,0,0,1,0,0,0,1 @ F,0,0,1,0,0,0,1 @ F,0,0,1,0,0,0,1 @ F,0,0,1,0,0,0,1 @ F,0,0,1,0,0,0,1 @ F,0,0,1,0,0,0,1 @ F,0,0,1,0,0,0,1 @ F,0,0,1,0,0,0,1 @ F,0,0,1,0,0,0,1 @ F,0,0,1,0,0,0,1 @ F,0,0,1,0,0,0,1 @ F,0,0,1,0,0,0,1 @ F,0,0,1,0,0,0,1 @ F,0,0,1,0,0,0,1 @ F,0,0,1,0,0,0,1 @ F,0,0,1,0,0,0,1 @ F,0,0,1,0,0,0,1 @ F,0,0,1,0,0,0,1 @ F,0,0,1,0,0,0,1 @ F,0,0,1,0,0,0,1 @ F,0,0,1,0,0,0,1 @ F,0,0,1,0,0,0,1 @ F,0,0,1,0,0,0,1 @ F,0,0,1,0,0,0,1 @ F,0,0,1,0,0,0,1 @ F,0,0,1,0,0,0,1 @ F,0,0,1,0,0,0,1 @ F,0,0,1,0,0,0,1 @ F,0,0,1,0,0,0,1 @ F,0,0,1,0,0,0,1 @ F,0,0,1,0,0,0,1 @ F,0,0,1,0,0,0,1 @ F,0,0,1,0,0,0,1 @ F,0,0,1,0,0,0,1 @ F,0,0,1,0,0,0,1 @ F,0,0,1,0,0,0,1 @ F,0,0,1,0,0,0,1 @ F,0,0,1,0,0,0,1 @ F,0,0,1,0,0,0,1 @ F,0,0,1,0,0,0,1 @ F,0,0,1,0,0,0,1 @ F,0,0,1,0,0,0,1 @ F,0,0,1,0,0,0,1 @ F,0,0,1,0,0,0,1 @ F,0,0,1,0,0,0,1 @ F,0,0,1,0,0,0,1 @ F,0,0,1,0,0,0,1 @ F,0,0,1,0,0,0,1 @ F,0,0,1,0,0,0,1 @ F,0,0,1,0,0,0,1 @ F,0,0,1,0,0,0,1 @ F,0,0,1,0,0,0,1 @ F,0,0,1,0,0,0,1 @ F,0,0,1,0,0,0,1 @ F,0,0,1,0,0,0,1 @ F,0,0,1,0,0,0,1 @ F,0,0,1,0,0,0,1 @ F,0,0,1,0,0,0,1 @ F,0,0,1,0,0,0,1 @ F,0,0,1,0,0,0,1 @ F,0,0,1,0,0,0,1"
   radius="0"
   unit="px"
   method="auto"
   mode="F"
   chamfer_steps="1"
   flexible="false"
   use_knot_distance="true"
   apply_no_radius="true"
   apply_with_radius="true"
   only_selected="false"
   hide_knots="false" /></defs><inkscape:templateinfo><inkscape:name>morewaita-symbolic</inkscape:name><inkscape:date>2025-09-24</inkscape:date></inkscape:templateinfo><style
     type="text/css"
     id="style1">
<![CDATA[
	.st0{fill:#000000;}
]]>
</style><path
     id="path127"
     style="baseline-shift:baseline;display:inline;overflow:visible;vector-effect:none;stroke-width:1.39866;stroke-linecap:round;paint-order:markers stroke fill;enable-background:accumulate;stop-color:#000000;fill:#dc8add;fill-opacity:1"
     d="M 8.0019531 0.31640625 C 7.5309735 0.31640625 7.1857557 0.54426962 7.0292969 0.67382812 C 6.8592997 0.81458697 6.7499168 0.96245594 6.6894531 1.0449219 C 6.5374161 1.2523013 6.4237843 1.463632 6.3144531 1.6816406 C 6.0950521 2.1191339 5.8792232 2.63573 5.671875 3.1464844 C 5.4649782 3.6561213 5.2625692 4.1627017 5.1035156 4.53125 C 5.0875076 4.568341 5.075118 4.5914895 5.0625 4.6171875 C 5.03479 4.6210575 5.0087921 4.6253523 4.9707031 4.6289062 C 4.5751158 4.6659048 4.0243224 4.6987625 3.4726562 4.7382812 C 2.9222968 4.7776851 2.3716961 4.8231498 1.8886719 4.8964844 C 1.64933 4.932822 1.4128044 4.9772032 1.1660156 5.0585938 C 1.051509 5.0963542 0.88507714 5.15718 0.7109375 5.2675781 C 0.54422392 5.3732521 0.21649397 5.6301817 0.0703125 6.0800781 C -0.07497523 6.5272234 0.038363055 6.9272139 0.11132812 7.1113281 C 0.18941411 7.3082667 0.29036868 7.4537424 0.35742188 7.546875 C 0.50932402 7.7578549 0.67431032 7.9342972 0.84570312 8.1035156 C 1.1935312 8.4469237 1.6170013 8.8087096 2.0390625 9.1640625 C 2.4605442 9.5189281 2.8812662 9.8665707 3.1816406 10.130859 C 3.2131746 10.158609 3.2339714 10.178439 3.2558594 10.199219 C 3.2505894 10.226799 3.2450451 10.252216 3.2363281 10.291016 C 3.1489161 10.680263 3.0134689 11.212374 2.8808594 11.748047 C 2.7486717 12.282046 2.6169779 12.826328 2.5371094 13.310547 C 2.4980764 13.547185 2.4636887 13.782023 2.4648438 14.042969 C 2.4654084 14.173128 2.4776047 14.348978 2.5273438 14.542969 C 2.5721077 14.717702 2.7063331 15.119459 3.0957031 15.402344 C 3.4807528 15.682101 3.9035288 15.693687 4.09375 15.681641 C 4.3034974 15.668351 4.4746324 15.620224 4.5878906 15.583984 C 4.8367214 15.504284 5.0523643 15.399444 5.265625 15.289062 C 5.6997617 15.06435 6.1744147 14.773878 6.6425781 14.482422 C 7.1113875 14.190566 7.5752626 13.896491 7.9179688 13.693359 C 7.9526628 13.672799 7.97509 13.660354 8 13.646484 C 8.025272 13.659914 8.0495003 13.674079 8.0820312 13.693359 C 8.4247384 13.896491 8.8886166 14.190566 9.3574219 14.482422 C 9.8255864 14.77388 10.30024 15.064351 10.734375 15.289062 C 10.950991 15.401179 11.167838 15.505158 11.414062 15.583984 C 11.522109 15.618574 11.69497 15.668271 11.90625 15.681641 C 12.096568 15.693811 12.519254 15.682185 12.904297 15.402344 C 13.289068 15.122785 13.428164 14.731817 13.476562 14.542969 C 13.529993 14.334341 13.534676 14.15092 13.535156 14.042969 C 13.536156 13.782192 13.501921 13.547275 13.462891 13.310547 C 13.383041 12.826316 13.25134 12.282051 13.119141 11.748047 C 12.987442 11.216018 12.858044 10.685164 12.769531 10.291016 C 12.760031 10.248696 12.753917 10.225696 12.748047 10.197266 C 12.769157 10.177286 12.788099 10.157479 12.818359 10.130859 C 13.118736 9.8665707 13.539455 9.5189277 13.960938 9.1640625 C 14.382998 8.8087101 14.80647 8.4469259 15.154297 8.1035156 C 15.323208 7.9367521 15.492207 7.7611619 15.646484 7.546875 C 15.718964 7.4462244 15.813231 7.3016671 15.888672 7.1113281 C 15.961742 6.9270572 16.074962 6.5271767 15.929688 6.0800781 C 15.785471 5.6362872 15.464721 5.3777067 15.291016 5.2675781 C 15.111012 5.1534814 14.942033 5.0942212 14.833984 5.0585938 C 14.588175 4.9775608 14.351804 4.9327638 14.113281 4.8964844 L 14.111328 4.8964844 C 13.795807 4.8393392 13.485007 4.8183915 13.179688 4.7949219 C 12.917879 4.7747979 12.682876 4.9748373 12.666016 5.2382812 L 12.595703 6.3339844 C 12.578833 6.5976526 12.781081 6.8264537 13.042969 6.8476562 C 13.177044 6.8585103 13.296538 6.8748319 13.421875 6.8886719 C 13.182217 7.1082712 12.936575 7.3338719 12.634766 7.5878906 C 12.223913 7.9336846 11.797614 8.2866091 11.455078 8.5878906 C 11.28493 8.7375469 11.131835 8.8701103 11.003906 9.0019531 C 10.897846 9.1112684 10.755452 9.2202393 10.658203 9.5195312 C 10.560643 9.8197678 10.617312 9.9931058 10.638672 10.142578 C 10.664262 10.321392 10.699778 10.518932 10.75 10.742188 C 10.850239 11.187876 10.994039 11.719851 11.123047 12.240234 C 11.217327 12.620581 11.284936 12.94412 11.349609 13.261719 C 11.067723 13.102809 10.780238 12.941573 10.447266 12.734375 C 9.9918785 12.450974 9.5295709 12.152682 9.1367188 11.919922 C 8.93982 11.803262 8.7580351 11.70264 8.5957031 11.623047 C 8.4611081 11.557047 8.3158674 11.451172 8 11.451172 C 7.6841342 11.451172 7.538864 11.557049 7.4042969 11.623047 C 7.2420752 11.702617 7.0601413 11.803223 6.8632812 11.919922 C 6.4707019 12.152646 6.0079543 12.450936 5.5527344 12.734375 C 5.2219544 12.940331 4.9372165 13.099347 4.65625 13.257812 C 4.720906 12.940893 4.7870311 12.619503 4.8808594 12.240234 C 5.0097031 11.719488 5.150093 11.187378 5.25 10.742188 C 5.300069 10.519077 5.3357908 10.321555 5.3613281 10.142578 C 5.3826607 9.9930939 5.4393019 9.8196259 5.3417969 9.5195312 C 5.2445892 9.2203431 5.1001369 9.1112538 4.9941406 9.0019531 C 4.8661971 8.8700209 4.7148974 8.7374878 4.5449219 8.5878906 C 4.2028515 8.2868305 3.7779747 7.9338584 3.3671875 7.5878906 C 3.0682531 7.3361264 2.8244249 7.1146653 2.5859375 6.8964844 C 2.9073753 6.8600729 3.2355339 6.8228112 3.6269531 6.7949219 C 4.162614 6.7567562 4.7101082 6.7219958 5.1640625 6.6796875 C 5.3911943 6.6585192 5.5943956 6.6346214 5.7734375 6.6035156 C 5.9199203 6.5780662 6.1048376 6.5828358 6.3613281 6.3964844 C 6.6152085 6.2120307 6.6705778 6.039646 6.7402344 5.9082031 C 6.8247855 5.7486553 6.908758 5.5621916 6.9980469 5.3554688 C 7.1767975 4.9416209 7.3759335 4.4356137 7.5761719 3.9414062 C 7.725502 3.5728468 7.8642327 3.2587491 8 2.9589844 C 8.1338409 3.2537679 8.2702586 3.5542762 8.4179688 3.9179688 C 8.6198545 4.4150514 8.8191488 4.9268033 9 5.3457031 C 9.090096 5.5543925 9.1742844 5.7427112 9.2597656 5.9042969 C 9.3303706 6.037763 9.3873226 6.2110294 9.6425781 6.3964844 C 9.8990684 6.5828344 10.082034 6.5780662 10.228516 6.6035156 C 10.407558 6.6346206 10.610759 6.6585215 10.837891 6.6796875 C 11.039857 6.7005765 11.242419 6.7164487 11.441406 6.7304688 C 11.722137 6.7502508 11.969824 6.5332982 11.988281 6.2519531 L 12.056641 5.2226562 C 12.075101 4.9412839 11.857245 4.6976705 11.578125 4.6757812 C 11.396193 4.6615132 11.213882 4.6430833 11.029297 4.6289062 L 11.027344 4.6289062 C 10.990914 4.6254362 10.96441 4.6209315 10.9375 4.6171875 C 10.92491 4.5914915 10.912494 4.568342 10.896484 4.53125 C 10.73749 4.1627034 10.535024 3.6561243 10.328125 3.1464844 C 10.120777 2.6357328 9.9049521 2.1191377 9.6855469 1.6816406 C 9.5776421 1.4664783 9.4644103 1.2547827 9.3105469 1.0449219 C 9.2460096 0.95690297 9.1375693 0.81199665 8.9707031 0.67382812 C 8.8207819 0.54968204 8.4742465 0.31640835 8.0019531 0.31640625 z M 8.0019531 1.1816406 C 8.2183768 1.1816415 8.3234028 1.2612001 8.4160156 1.3378906 C 8.5012546 1.4084696 8.5531241 1.4792125 8.6113281 1.5585938 C 8.7217105 1.7091492 8.8125212 1.8717335 8.9121094 2.0703125 C 9.1103321 2.4655704 9.3223544 2.9657621 9.5273438 3.4707031 C 9.7323589 3.9757032 9.9294818 4.4833699 10.097656 4.8730469 C 10.180126 5.0641587 10.251326 5.2232954 10.310547 5.3359375 L 10.351562 5.4121094 L 10.4375 5.4257812 C 10.678767 5.4675033 10.894843 5.4857432 11.126953 5.5039062 L 11.105469 5.8300781 C 10.881019 5.8112341 10.65591 5.7937574 10.496094 5.7714844 C 10.392909 5.7571034 10.308504 5.7400004 10.246094 5.7246094 C 10.199024 5.7130021 10.164202 5.6970998 10.154297 5.6933594 C 10.148062 5.6819034 10.084497 5.6060822 10.027344 5.4980469 C 9.9613694 5.3733615 9.8826756 5.2026273 9.796875 5.0039062 C 9.6252736 4.606464 9.4229917 4.0965909 9.21875 3.59375 C 9.0145082 3.0909092 8.8083097 2.5957844 8.6191406 2.21875 C 8.524556 2.0302328 8.4363843 1.8709746 8.3476562 1.75 C 8.3032922 1.6895127 8.2588182 1.6405242 8.2070312 1.5976562 C 8.1552443 1.5547883 8.0900159 1.5117187 8 1.5117188 L 7.9980469 1.5117188 L 7.9921875 1.5117188 L 7.9785156 1.5117188 L 7.9667969 1.5117188 C 7.7969889 1.5332458 7.72649 1.6455348 7.6386719 1.7695312 C 7.5508539 1.8935275 7.4632411 2.0543762 7.3691406 2.2441406 C 7.1809398 2.6236694 6.97563 3.1199711 6.7734375 3.6191406 C 6.5712449 4.1183101 6.3726701 4.6210422 6.203125 5.0136719 C 6.1183526 5.2099868 6.0378229 5.3770104 5.9726562 5.5 C 5.9175397 5.6040219 5.8579195 5.6794017 5.8496094 5.6933594 C 5.8337137 5.6970265 5.7443915 5.731556 5.6269531 5.7519531 C 5.4879507 5.7760956 5.3015187 5.800233 5.0859375 5.8203125 C 4.6547752 5.8604717 4.1059947 5.8930881 3.5644531 5.9316406 C 3.0229115 5.9701931 2.4855472 6.013007 2.0683594 6.0761719 C 1.8597656 6.1077551 1.6815862 6.1444797 1.5390625 6.1914062 C 1.4678005 6.2148702 1.4083644 6.2394056 1.3515625 6.2753906 C 1.2947615 6.3113756 1.2348601 6.359668 1.2070312 6.4453125 C 1.1792122 6.5309305 1.1978852 6.6074196 1.2226562 6.6699219 C 1.2474242 6.7324239 1.2823515 6.7887154 1.3261719 6.8496094 C 1.4138119 6.9713995 1.5374252 7.1056566 1.6875 7.2539062 C 1.9876496 7.5504057 2.3953947 7.898309 2.8105469 8.2480469 C 3.2256991 8.5977849 3.6476646 8.9482758 3.9726562 9.234375 C 4.1351521 9.3774245 4.2748382 9.5041781 4.3730469 9.6054688 C 4.4554167 9.6904236 4.5063293 9.7714259 4.5175781 9.7851562 L 4.5175781 9.7871094 C 4.5163177 9.803207 4.5227462 9.9011684 4.5058594 10.019531 C 4.4859454 10.159118 4.4497251 10.343582 4.4023438 10.554688 C 4.3075887 10.9769 4.1693618 11.504643 4.0390625 12.03125 C 3.9087634 12.557855 3.7853509 13.080058 3.7167969 13.496094 C 3.6825199 13.70411 3.6614284 13.887135 3.6621094 14.037109 C 3.6624507 14.112089 3.6668898 14.179032 3.6835938 14.244141 C 3.7002977 14.309251 3.7279799 14.380703 3.8007812 14.433594 C 3.8735633 14.486474 3.9524545 14.492491 4.0195312 14.488281 C 4.0866083 14.484081 4.1512318 14.466169 4.2226562 14.443359 C 4.365506 14.397739 4.5314966 14.323351 4.71875 14.226562 C 5.093258 14.033003 5.5511277 13.753193 6.0117188 13.466797 C 6.4723097 13.180401 6.934358 12.886419 7.3066406 12.666016 C 7.492782 12.555814 7.6585469 12.462414 7.7851562 12.400391 C 7.892387 12.347863 7.9850635 12.324566 8 12.318359 C 8.01492 12.324566 8.107544 12.347855 8.2148438 12.400391 C 8.3415332 12.462421 8.5070883 12.555811 8.6933594 12.666016 C 9.0659014 12.886423 9.5273488 13.180402 9.9882812 13.466797 C 10.449214 13.753193 10.908445 14.033004 11.283203 14.226562 C 11.470582 14.323332 11.638336 14.397735 11.78125 14.443359 C 11.85271 14.466169 11.915341 14.484071 11.982422 14.488281 C 12.049502 14.492481 12.12837 14.486524 12.201172 14.433594 C 12.274012 14.380664 12.301701 14.307334 12.318359 14.242188 C 12.335019 14.177048 12.339574 14.112098 12.339844 14.037109 C 12.340356 13.887119 12.321639 13.704111 12.287109 13.496094 C 12.218029 13.080059 12.091921 12.557853 11.960938 12.03125 C 11.829952 11.504647 11.692921 10.976891 11.597656 10.554688 C 11.550016 10.343585 11.512233 10.159103 11.492188 10.019531 C 11.475402 9.9027447 11.479623 9.807 11.478516 9.7890625 L 11.478516 9.7871094 L 11.478516 9.7851562 C 11.489851 9.7712998 11.54263 9.6902959 11.625 9.6054688 C 11.72335 9.504179 11.864595 9.377425 12.027344 9.234375 C 12.352843 8.9482751 12.773617 8.6016888 13.189453 8.2519531 C 13.605287 7.9022174 14.015742 7.5503953 14.316406 7.2539062 C 14.466739 7.1056618 14.587977 6.9713891 14.675781 6.8496094 C 14.719681 6.7887204 14.754458 6.7324314 14.779297 6.6699219 C 14.804127 6.6074129 14.824725 6.5310089 14.796875 6.4453125 C 14.757505 6.3241281 14.666017 6.2751083 14.578125 6.234375 C 14.490235 6.193642 14.38892 6.1641648 14.267578 6.1367188 C 14.070084 6.0920477 13.799265 6.061658 13.525391 6.03125 L 13.544922 5.7089844 C 14.032954 5.7668764 14.387414 5.8224961 14.564453 5.8808594 C 14.657353 5.9114954 14.735123 5.9378565 14.830078 5.9980469 C 14.929038 6.0607799 15.038471 6.1414502 15.105469 6.3476562 C 15.172269 6.5532445 15.127814 6.678524 15.083984 6.7890625 C 15.041294 6.896761 14.99808 6.9669812 14.943359 7.0429688 C 14.835299 7.1930534 14.703752 7.3295167 14.544922 7.4863281 C 14.230431 7.7968253 13.821365 8.1508063 13.404297 8.5019531 C 12.986916 8.8533654 12.566113 9.2025659 12.248047 9.4824219 C 12.091379 9.6202672 11.955283 9.741442 11.865234 9.8339844 L 11.804688 9.8964844 L 11.818359 9.9804688 C 11.837159 10.110154 11.874664 10.28087 11.919922 10.482422 C 12.012782 10.895908 12.150172 11.423602 12.28125 11.953125 C 12.412249 12.482283 12.537448 13.011161 12.609375 13.447266 C 12.645465 13.666032 12.666816 13.852114 12.666016 14.039062 C 12.665576 14.140956 12.665899 14.220216 12.638672 14.326172 C 12.608962 14.442093 12.565957 14.577149 12.392578 14.703125 C 12.218766 14.829425 12.084156 14.826051 11.962891 14.818359 C 11.850956 14.811059 11.775406 14.787823 11.681641 14.757812 C 11.504048 14.700953 11.32771 14.619463 11.130859 14.517578 C 10.737566 14.314009 10.276689 14.037769 9.8144531 13.75 C 9.3524461 13.462386 8.8933716 13.164221 8.5273438 12.947266 C 8.3434902 12.838292 8.1818469 12.758072 8.0742188 12.705078 L 7.9980469 12.666016 L 7.9199219 12.705078 C 7.8103758 12.759148 7.6541484 12.839669 7.4726562 12.947266 C 7.1066301 13.164221 6.6475476 13.462383 6.1855469 13.75 C 5.7233102 14.037769 5.2624279 14.314009 4.8691406 14.517578 C 4.6711399 14.620058 4.4989318 14.701254 4.3222656 14.757812 C 4.2301746 14.787292 4.1490878 14.811249 4.0371094 14.818359 C 3.9161376 14.826159 3.7812985 14.829468 3.6074219 14.703125 C 3.4351733 14.577983 3.3980443 14.446618 3.3671875 14.326172 C 3.3382495 14.213345 3.3324323 14.1314 3.3320312 14.039062 C 3.3312104 13.853722 3.354313 13.66742 3.390625 13.447266 C 3.462557 13.01116 3.5877595 12.482286 3.71875 11.953125 C 3.8497027 11.424149 3.989013 10.896633 4.0820312 10.482422 C 4.1279483 10.277947 4.1596934 10.104786 4.1777344 9.9804688 L 4.1914062 9.8964844 L 4.1308594 9.8339844 C 4.0421644 9.7428421 3.9093786 9.6209366 3.7519531 9.4824219 C 3.4338865 9.2025667 3.0130829 8.8533655 2.5957031 8.5019531 C 2.1786375 8.1508067 1.7695724 7.7968262 1.4550781 7.4863281 C 1.2969556 7.3302117 1.1674073 7.1941017 1.0585938 7.0429688 C 1.0023853 6.9648984 0.95789357 6.8946821 0.91601562 6.7890625 C 0.87219017 6.6784782 0.82773331 6.5532368 0.89453125 6.3476562 C 0.96118177 6.1425287 1.0738009 6.0614508 1.1738281 5.9980469 C 1.2698632 5.9371644 1.3435652 5.9111908 1.4355469 5.8808594 C 1.6121434 5.822619 1.7997329 5.7853238 2.0195312 5.7519531 C 2.4570168 5.6855326 2.9956734 5.6404666 3.5390625 5.6015625 C 4.081774 5.5626847 4.6250517 5.5337731 5.0488281 5.4941406 C 5.2615233 5.4742537 5.4428369 5.4464758 5.5625 5.4257812 L 5.6484375 5.4121094 L 5.6894531 5.3359375 C 5.7486856 5.2232835 5.81987 5.0641516 5.9023438 4.8730469 C 6.0705148 4.4833717 6.2676412 3.9757043 6.4726562 3.4707031 C 6.6776441 2.9657627 6.8896695 2.4655729 7.0878906 2.0703125 C 7.1863453 1.8739918 7.2806899 1.71121 7.3925781 1.5585938 C 7.4537972 1.4750979 7.5011088 1.4065122 7.5839844 1.3378906 C 7.6742458 1.2631486 7.7855256 1.1816406 8.0019531 1.1816406 z " /></svg>
