<?xml version="1.0" encoding="UTF-8" standalone="no"?>
<svg
   height="16px"
   viewBox="0 0 16 16"
   width="16px"
   version="1.1"
   id="svg15572"
   sodipodi:docname="effects-photo-softenportrait-symbolic.svg"
   inkscape:export-filename="/mnt/external/cloud/design/gnome/image.svg"
   inkscape:version="1.4.4 (dcaf3e7d9e, 2026-05-05)"
   xml:space="preserve"
   xmlns:inkscape="http://www.inkscape.org/namespaces/inkscape"
   xmlns:sodipodi="http://sodipodi.sourceforge.net/DTD/sodipodi-0.dtd"
   xmlns="http://www.w3.org/2000/svg"
   xmlns:svg="http://www.w3.org/2000/svg"><sodipodi:namedview
     id="namedview1"
     pagecolor="#ffffff"
     bordercolor="#000000"
     borderopacity="0.25"
     inkscape:showpageshadow="2"
     inkscape:pageopacity="0.0"
     inkscape:pagecheckerboard="0"
     inkscape:deskcolor="#d1d1d1"
     showborder="false"
     inkscape:zoom="39.899829"
     inkscape:cx="17.95747"
     inkscape:cy="9.649164"
     inkscape:window-width="2560"
     inkscape:window-height="1403"
     inkscape:window-x="0"
     inkscape:window-y="0"
     inkscape:window-maximized="1"
     inkscape:current-layer="svg15572"
     showguides="false" /><defs
     id="defs15576"><inkscape:path-effect
   effect="fillet_chamfer"
   id="path-effect12"
   is_visible="true"
   lpeversion="1"
   nodesatellites_param="F,0,0,1,0,0,0,1 @ F,0,0,1,0,0,0,1 @ F,0,0,1,0,0.37633917,0,1 @ F,0,1,1,0,0.37633917,0,1 @ F,0,0,1,0,0,0,1 @ F,0,0,1,0,0,0,1 @ F,0,0,1,0,0.3761494,0,1 @ F,0,0,1,0,0.3761494,0,1"
   radius="0"
   unit="px"
   method="auto"
   mode="F"
   chamfer_steps="1"
   flexible="false"
   use_knot_distance="true"
   apply_no_radius="true"
   apply_with_radius="true"
   only_selected="false"
   hide_knots="false" /><inkscape:path-effect
   effect="fillet_chamfer"
   id="path-effect11"
   is_visible="true"
   lpeversion="1"
   nodesatellites_param="F,0,0,1,0,0.38338606,0,1 @ F,0,1,1,0,0.38338606,0,1 @ F,0,0,1,0,0,0,1 @ F,0,0,1,0,0,0,1 @ F,0,0,1,0,0.38271336,0,1 @ F,0,0,1,0,0.38271336,0,1 @ F,0,0,1,0,0,0,1 @ F,0,0,1,0,0,0,1"
   radius="0"
   unit="px"
   method="auto"
   mode="F"
   chamfer_steps="1"
   flexible="false"
   use_knot_distance="true"
   apply_no_radius="true"
   apply_with_radius="true"
   only_selected="false"
   hide_knots="false" /><inkscape:path-effect
   effect="simplify"
   id="path-effect16"
   is_visible="true"
   lpeversion="1.3"
   threshold="5000.000000"
   steps="1"
   smooth_angles="360"
   helper_size="0"
   simplify_individual_paths="false"
   simplify_just_coalesce="false" /><inkscape:path-effect
   effect="fillet_chamfer"
   id="path-effect4"
   is_visible="true"
   lpeversion="1"
   nodesatellites_param="F,0,0,1,0,0,0,1 @ F,0,0,1,0,0.46511192,0,1 @ F,0,1,1,0,0.46511192,0,1 @ F,0,0,1,0,0.35674853,0,1 @ F,0,0,1,0,0,0,1 @ F,0,0,1,0,0,0,1"
   radius="0"
   unit="px"
   method="auto"
   mode="F"
   chamfer_steps="1"
   flexible="false"
   use_knot_distance="true"
   apply_no_radius="true"
   apply_with_radius="true"
   only_selected="false"
   hide_knots="false" /><inkscape:path-effect
   effect="fillet_chamfer"
   id="path-effect2"
   is_visible="true"
   lpeversion="1"
   nodesatellites_param="F,0,0,1,0,0,0,1 @ F,0,0,1,0,0.41443019,0,1 @ F,0,0,1,0,0,0,1"
   radius="0"
   unit="px"
   method="auto"
   mode="F"
   chamfer_steps="1"
   flexible="false"
   use_knot_distance="true"
   apply_no_radius="true"
   apply_with_radius="true"
   only_selected="false"
   hide_knots="false" /><inkscape:path-effect
   effect="fillet_chamfer"
   id="path-effect1"
   is_visible="true"
   lpeversion="1"
   nodesatellites_param="F,0,0,1,0,0,0,1 @ F,0,0,1,0,0,0,1 @ F,0,0,1,0,25.480979,0,1 @ F,0,0,1,0,25.480979,0,1 @ F,0,0,1,0,25.480979,0,1 @ F,0,0,1,0,0,0,1 @ F,0,0,1,0,0,0,1 @ F,0,0,1,0,0,0,1 @ F,0,0,1,0,0,0,1 @ F,0,0,1,0,0,0,1 @ F,0,0,1,0,0,0,1 @ F,0,0,1,0,0,0,1 @ F,0,0,1,0,0,0,1 @ F,0,0,1,0,18.989692,0,1 @ F,0,0,1,0,0,0,1"
   radius="0"
   unit="px"
   method="auto"
   mode="F"
   chamfer_steps="1"
   flexible="false"
   use_knot_distance="true"
   apply_no_radius="true"
   apply_with_radius="true"
   only_selected="false"
   hide_knots="false" /><inkscape:path-effect
   effect="fillet_chamfer"
   id="path-effect1-6"
   is_visible="true"
   lpeversion="1"
   nodesatellites_param="F,0,0,1,0,0,0,1 @ F,0,0,1,0,0,0,1 @ F,0,0,1,0,25.480979,0,1 @ F,0,0,1,0,25.480979,0,1 @ F,0,0,1,0,25.480979,0,1 @ F,0,0,1,0,0,0,1 @ F,0,0,1,0,0,0,1 @ F,0,0,1,0,0,0,1 @ F,0,0,1,0,0,0,1 @ F,0,0,1,0,0,0,1 @ F,0,0,1,0,0,0,1 @ F,0,0,1,0,0,0,1 @ F,0,0,1,0,0,0,1 @ F,0,0,1,0,5.9730369,0,1 @ F,0,0,1,0,0,0,1"
   radius="0"
   unit="px"
   method="auto"
   mode="F"
   chamfer_steps="1"
   flexible="false"
   use_knot_distance="true"
   apply_no_radius="true"
   apply_with_radius="true"
   only_selected="false"
   hide_knots="false" />
	
<inkscape:path-effect
   effect="simplify"
   id="path-effect16-8"
   is_visible="true"
   lpeversion="1.3"
   threshold="5000"
   steps="1"
   smooth_angles="360"
   helper_size="0"
   simplify_individual_paths="false"
   simplify_just_coalesce="false" /></defs><inkscape:templateinfo><inkscape:name>morewaita-symbolic</inkscape:name><inkscape:date>2025-09-24</inkscape:date></inkscape:templateinfo><style
     type="text/css"
     id="style1">
<![CDATA[
	.st0{fill:#000000;}
]]>
</style><path
     id="path11"
     style="baseline-shift:baseline;display:inline;overflow:visible;opacity:1;stroke:#000000;stroke-width:0.25;stroke-linecap:round;stroke-dasharray:none;stroke-opacity:1;enable-background:accumulate;stop-color:#000000;stop-opacity:1"
     d="M 6.3613281,0.125 C 2.9214727,0.125 0.125,2.9214727 0.125,6.3613281 c 0,3.0314888 2.172809,5.5627399 5.0429688,6.1210939 0.2040777,0.0397 0.3710937,-0.10856 0.3710937,-0.316406 v -0.002 c 0,-0.207846 -0.1662275,-0.400486 -0.3691406,-0.445312 C 2.7106873,11.175473 0.875,8.9861126 0.875,6.3613281 0.875,3.3268028 3.3268028,0.875 6.3613281,0.875 c 2.6248196,0 4.8141819,1.8356377 5.3574219,4.2949219 0.04481,0.2028594 0.237571,0.3691406 0.445312,0.3691406 h 0.002 c 0.207741,0 0.356058,-0.1672039 0.316406,-0.3710937 C 11.924203,2.2976384 9.3929382,0.125 6.3613281,0.125 Z m 0,1.4648438 c -2.6304245,0 -4.7714844,2.1410598 -4.7714843,4.7714843 0,2.2170519 1.5211333,4.0862629 3.5742187,4.6191409 0.2049448,0.05319 0.375,-0.08904 0.375,-0.300781 0,-0.21003 -0.1688842,-0.414032 -0.3710937,-0.476563 -1.6400633,-0.507169 -2.828125,-2.0326267 -2.828125,-3.8417969 0,-2.2250944 1.7963899,-4.0214845 4.0214843,-4.0214843 1.8093931,0 3.3348164,1.1877483 3.8417969,2.828125 0.0624,0.201885 0.267149,0.3710937 0.478516,0.3710937 0.210401,0 0.353834,-0.1685061 0.300781,-0.3730469 C 10.449805,3.1125518 8.5786492,1.5898438 6.3613281,1.5898438 Z" /><path
     id="path14-7"
     style="baseline-shift:baseline;display:inline;overflow:visible;stroke-width:0.2;stroke-linecap:round;enable-background:accumulate;stop-color:#000000;stroke:#000000;stroke-opacity:1;stroke-dasharray:none"
     d="M 10.205078 6.5664062 C 9.9048508 6.5489576 9.6126007 6.659358 9.3183594 6.8398438 C 8.9262031 7.0803893 8.2997234 7.2631478 7.78125 7.78125 C 7.2631479 8.2997232 7.0803895 8.9262029 6.8398438 9.3183594 C 6.5991964 9.7106808 6.4837442 10.099159 6.6289062 10.507812 C 6.774069 10.916465 7.1366692 11.223856 7.6113281 11.490234 C 8.0859668 11.756632 8.7093626 12.007261 9.5136719 12.292969 C 10.12958 12.511753 10.644612 12.676454 11.080078 12.779297 L 11.621094 13.320312 L 13.949219 15.648438 C 14.416317 16.115536 15.183014 16.117047 15.650391 15.650391 C 16.117052 15.183013 16.115541 14.416317 15.648438 13.949219 L 13.320312 11.621094 L 12.779297 11.080078 C 12.67646 10.644607 12.511753 10.12958 12.292969 9.5136719 C 12.00726 8.7093628 11.756631 8.0859673 11.490234 7.6113281 C 11.223855 7.1366696 10.916464 6.7740694 10.507812 6.6289062 C 10.405649 6.5926156 10.305154 6.5722225 10.205078 6.5664062 z M 10.273438 7.2265625 C 10.322158 7.2264396 10.362324 7.2352172 10.398438 7.2480469 C 10.528254 7.2941499 10.704576 7.4496356 10.925781 7.84375 C 11.146989 8.2378619 11.39208 8.8353807 11.671875 9.6230469 C 11.95167 10.410712 12.13282 11.016475 12.201172 11.4375 C 12.205572 11.46476 12.209441 11.492168 12.212891 11.517578 L 11.865234 11.865234 L 11.517578 12.212891 C 11.492168 12.209391 11.46476 12.205632 11.4375 12.201172 C 11.016477 12.132828 10.410712 11.951671 9.6230469 11.671875 C 8.8353812 11.39208 8.2378659 11.146984 7.84375 10.925781 C 7.4496339 10.704578 7.2941577 10.528248 7.2480469 10.398438 C 7.2138373 10.302133 7.2170517 10.166396 7.3027344 9.96875 L 8.2734375 10.529297 A 0.3230145 0.3230145 0 0 0 8.7148438 10.410156 A 0.3230145 0.3230145 0 0 0 8.5976562 9.96875 L 7.5976562 9.3925781 C 7.7139725 9.1381543 7.8516699 8.8292006 8.078125 8.5351562 L 9.1132812 9.5703125 A 0.3230145 0.3230145 0 0 0 9.5703125 9.5703125 A 0.3230145 0.3230145 0 0 0 9.5703125 9.1132812 L 8.5351562 8.078125 C 8.8292005 7.8516697 9.1381543 7.7139724 9.3925781 7.5976562 L 9.96875 8.5976562 A 0.3230145 0.3230145 0 0 0 10.410156 8.7148438 A 0.3230145 0.3230145 0 0 0 10.529297 8.2734375 L 9.96875 7.3027344 C 10.09228 7.2491815 10.192237 7.2267673 10.273438 7.2265625 z M 12.714844 11.875 L 12.890625 12.050781 L 15.21875 14.380859 C 15.455258 14.617367 15.456765 14.983959 15.220703 15.220703 C 14.983958 15.45677 14.617367 15.455263 14.380859 15.21875 L 12.050781 12.890625 L 11.875 12.714844 L 12.294922 12.294922 L 12.714844 11.875 z " /><circle
     style="fill:#000000;fill-opacity:1;stroke:#000000;stroke-width:0.1;stroke-linecap:round;stroke-dasharray:none;stroke-opacity:1"
     id="path1"
     cx="5.5948405"
     cy="3.7343519"
     r="0.35087869" /><circle
     style="fill:#000000;fill-opacity:1;stroke:#000000;stroke-width:0.1;stroke-linecap:round;stroke-dasharray:none;stroke-opacity:1"
     id="path1-2"
     cx="7.2222319"
     cy="3.7343519"
     r="0.35087869" /><circle
     style="fill:#000000;fill-opacity:1;stroke:#000000;stroke-width:0.1;stroke-linecap:round;stroke-dasharray:none;stroke-opacity:1"
     id="path1-5"
     cx="3.9674489"
     cy="4.9116583"
     r="0.35087869" /><circle
     style="fill:#000000;fill-opacity:1;stroke:#000000;stroke-width:0.1;stroke-linecap:round;stroke-dasharray:none;stroke-opacity:1"
     id="path1-2-9"
     cx="5.5948405"
     cy="4.9116583"
     r="0.35087869" /><circle
     style="fill:#000000;fill-opacity:1;stroke:#000000;stroke-width:0.1;stroke-linecap:round;stroke-dasharray:none;stroke-opacity:1"
     id="path1-5-8"
     cx="7.2222319"
     cy="4.9116583"
     r="0.35087869" /><circle
     style="fill:#000000;fill-opacity:1;stroke:#000000;stroke-width:0.1;stroke-linecap:round;stroke-dasharray:none;stroke-opacity:1"
     id="path1-2-9-9"
     cx="8.8496237"
     cy="4.9116583"
     r="0.35087869" /><circle
     style="fill:#000000;fill-opacity:1;stroke:#000000;stroke-width:0.1;stroke-linecap:round;stroke-dasharray:none;stroke-opacity:1"
     id="path1-5-6"
     cx="3.9674489"
     cy="6.0889645"
     r="0.35087869" /><circle
     style="fill:#000000;fill-opacity:1;stroke:#000000;stroke-width:0.1;stroke-linecap:round;stroke-dasharray:none;stroke-opacity:1"
     id="path1-2-9-1"
     cx="5.5948405"
     cy="6.0889645"
     r="0.35087869" /><circle
     style="fill:#000000;fill-opacity:1;stroke:#000000;stroke-width:0.1;stroke-linecap:round;stroke-dasharray:none;stroke-opacity:1"
     id="path1-5-8-2"
     cx="7.2222319"
     cy="6.0889645"
     r="0.35087869" /><circle
     style="fill:#000000;fill-opacity:1;stroke:#000000;stroke-width:0.1;stroke-linecap:round;stroke-dasharray:none;stroke-opacity:1"
     id="path1-5-9"
     cx="3.9674494"
     cy="7.3132629"
     r="0.35087869" /><circle
     style="fill:#000000;fill-opacity:1;stroke:#000000;stroke-width:0.1;stroke-linecap:round;stroke-dasharray:none;stroke-opacity:1"
     id="path1-2-9-4"
     cx="5.5948405"
     cy="7.3132629"
     r="0.35087869" /><circle
     style="fill:#000000;fill-opacity:1;stroke:#000000;stroke-width:0.1;stroke-linecap:round;stroke-dasharray:none;stroke-opacity:1"
     id="path1-2-9-1-4"
     cx="5.59484"
     cy="8.631547"
     r="0.35087869" /></svg>
