<?xml version="1.0" encoding="UTF-8" standalone="no"?>
<svg
   height="16"
   viewBox="0 0 16 16"
   width="16"
   version="1.1"
   id="svg15572"
   xml:space="preserve"
   xmlns="http://www.w3.org/2000/svg"
   xmlns:svg="http://www.w3.org/2000/svg"><defs
     id="defs15576" /><path
     id="path149"
     style="fill:#ed333b;stroke-width:0.375122"
     d="m 7.9990627,4.9980475 c -1.6572765,0 -3.000039,1.3446355 -3.000039,3.0019129 C 4.9990237,9.6572368 6.3417862,11 7.9990627,11 9.6563402,11 11.000977,9.6572368 11.000977,7.9999604 c 0,-1.6572774 -1.3446368,-3.0019129 -3.0019143,-3.0019129 z" /><g
     fill="#222222"
     id="g2"
     transform="translate(-4.5e-7,-0.5)"
     style="fill:#000000;fill-opacity:1"><path
       d="m 0.0625,8.375 c -0.0429688,0.164062 -0.0429688,0.339844 0,0.503906 C 1.003906,12.484375 4.261719,14.996094 8,15 c 3.742188,-0.0039 7.003906,-2.527344 7.9375,-6.140625 0.04297,-0.167969 0.04297,-0.339844 0,-0.503906 C 15.003906,4.78125 11.761719,2.003906 8,2 4.230469,2.003906 0.984375,4.792969 0.0625,8.375 Z M 14,8.859375 v -0.5 C 13.296875,11.089844 10.835938,12.996094 8,13 5.167969,12.996094 2.707031,11.097656 2,8.375 v 0.5 C 2.707031,6.132812 5.210938,4.003906 8,4 c 2.78125,0.00391 5.289062,2.121094 6,4.859375 z m 0,0"
       id="path1"
       style="fill:#000000;fill-opacity:1" /></g></svg>
