<?xml version="1.0" encoding="UTF-8" standalone="no"?>
<svg
   height="16px"
   viewBox="0 0 16 16"
   width="16px"
   version="1.1"
   id="svg15572"
   sodipodi:docname="effects-blurs-gaussianblur.svg"
   inkscape:export-filename="/mnt/external/cloud/design/gnome/image.svg"
   inkscape:version="1.4.3 (0d15f75042, 2025-12-25)"
   xml:space="preserve"
   xmlns:inkscape="http://www.inkscape.org/namespaces/inkscape"
   xmlns:sodipodi="http://sodipodi.sourceforge.net/DTD/sodipodi-0.dtd"
   xmlns="http://www.w3.org/2000/svg"
   xmlns:svg="http://www.w3.org/2000/svg"><sodipodi:namedview
     id="namedview1"
     pagecolor="#ffffff"
     bordercolor="#000000"
     borderopacity="0.25"
     inkscape:showpageshadow="2"
     inkscape:pageopacity="0.0"
     inkscape:pagecheckerboard="0"
     inkscape:deskcolor="#d1d1d1"
     showborder="false"
     inkscape:zoom="26.428116"
     inkscape:cx="1.4946204"
     inkscape:cy="11.238032"
     inkscape:window-width="2560"
     inkscape:window-height="1403"
     inkscape:window-x="0"
     inkscape:window-y="0"
     inkscape:window-maximized="1"
     inkscape:current-layer="svg15572" /><defs
     id="defs15576" /><inkscape:templateinfo><inkscape:name>morewaita-symbolic</inkscape:name><inkscape:date>2025-09-24</inkscape:date></inkscape:templateinfo><path
     d="M 7.9999998,-3.9617485e-7 3.0344824,4.9655169 h 0.030172 C 1.9784482,6.1810337 1.37931,7.7500004 1.37931,9.3793102 1.37931,13.034482 4.3448273,16 7.9999998,16 11.655172,16 14.62069,13.034482 14.62069,9.3793102 c 0,-1.6293098 -0.603449,-3.1982765 -1.689656,-4.4137933 h 0.03449 z M 12.413793,8.827586 c 0.306035,0 0.551724,0.2456894 0.551724,0.5517242 0,2.7370688 -2.228448,4.9655178 -4.9655172,4.9655178 -0.3060348,0 -0.5517241,-0.24569 -0.5517241,-0.551724 0,-0.306036 0.2456893,-0.551724 0.5517241,-0.551724 2.1379312,0 3.8620692,-1.724138 3.8620692,-3.8620698 0,-0.3060348 0.245689,-0.5517242 0.551724,-0.5517242 z m 0,0"
     fill="#222222"
     id="path1"
     style="stroke-width:1.10344;fill:#000000;fill-opacity:1" /></svg>
