<?xml version="1.0" encoding="UTF-8" standalone="no"?>
<svg
   height="16px"
   viewBox="0 0 16 16"
   width="16px"
   version="1.1"
   id="svg15572"
   sodipodi:docname="effects-blurs-radialblur-symbolic.svg"
   inkscape:export-filename="/mnt/external/cloud/design/gnome/image.svg"
   inkscape:version="1.4.3 (0d15f75042, 2025-12-25)"
   xml:space="preserve"
   xmlns:inkscape="http://www.inkscape.org/namespaces/inkscape"
   xmlns:sodipodi="http://sodipodi.sourceforge.net/DTD/sodipodi-0.dtd"
   xmlns="http://www.w3.org/2000/svg"
   xmlns:svg="http://www.w3.org/2000/svg"><sodipodi:namedview
     id="namedview1"
     pagecolor="#ffffff"
     bordercolor="#000000"
     borderopacity="0.25"
     inkscape:showpageshadow="2"
     inkscape:pageopacity="0.0"
     inkscape:pagecheckerboard="0"
     inkscape:deskcolor="#d1d1d1"
     showborder="false"
     inkscape:zoom="32"
     inkscape:cx="3.984375"
     inkscape:cy="6.34375"
     inkscape:window-width="2560"
     inkscape:window-height="1403"
     inkscape:window-x="0"
     inkscape:window-y="0"
     inkscape:window-maximized="1"
     inkscape:current-layer="svg15572" /><defs
     id="defs15576" /><inkscape:templateinfo><inkscape:name>morewaita-symbolic</inkscape:name><inkscape:date>2025-09-24</inkscape:date></inkscape:templateinfo><path
     d="M 8,0 A 8,8 0 0 0 0,8 8,8 0 0 0 8,16 8,8 0 0 0 16,8 8,8 0 0 0 8,0 Z M 6.515625,2.4160156 A 0.5245319,0.5245319 0 0 1 7.0390625,2.9414063 0.5245319,0.5245319 0 0 1 6.515625,3.4648438 0.5245319,0.5245319 0 0 1 5.9902344,2.9414063 0.5245319,0.5245319 0 0 1 6.515625,2.4160156 Z m 2.96875,0 A 0.5245319,0.5245319 0 0 1 10.009766,2.9414063 0.5245319,0.5245319 0 0 1 9.484375,3.4648438 0.5245319,0.5245319 0 0 1 8.9609375,2.9414063 0.5245319,0.5245319 0 0 1 9.484375,2.4160156 Z M 6.34375,5.2382812 A 1.0772293,1.0772293 0 0 1 7.4199219,6.3164062 1.0772293,1.0772293 0 0 1 6.34375,7.3925781 1.0772293,1.0772293 0 0 1 5.265625,6.3164062 1.0772293,1.0772293 0 0 1 6.34375,5.2382812 Z m 3.3125,0 A 1.0772293,1.0772293 0 0 1 10.734375,6.3164062 1.0772293,1.0772293 0 0 1 9.65625,7.3925781 1.0772293,1.0772293 0 0 1 8.5800781,6.3164062 1.0772293,1.0772293 0 0 1 9.65625,5.2382812 Z M 2.9414063,5.7910156 A 0.5245319,0.5245319 0 0 1 3.4648438,6.3164062 0.5245319,0.5245319 0 0 1 2.9414063,6.8398437 0.5245319,0.5245319 0 0 1 2.4160156,6.3164062 0.5245319,0.5245319 0 0 1 2.9414063,5.7910156 Z m 10.1171877,0 a 0.5245319,0.5245319 0 0 1 0.52539,0.5253906 0.5245319,0.5245319 0 0 1 -0.52539,0.5234375 0.5245319,0.5245319 0 0 1 -0.523438,-0.5234375 0.5245319,0.5245319 0 0 1 0.523438,-0.5253906 z M 6.34375,8.6074219 A 1.0772293,1.0772293 0 0 1 7.4199219,9.6835938 1.0772293,1.0772293 0 0 1 6.34375,10.761719 1.0772293,1.0772293 0 0 1 5.265625,9.6835938 1.0772293,1.0772293 0 0 1 6.34375,8.6074219 Z m 3.3125,0 A 1.0772293,1.0772293 0 0 1 10.734375,9.6835938 1.0772293,1.0772293 0 0 1 9.65625,10.761719 1.0772293,1.0772293 0 0 1 8.5800781,9.6835938 1.0772293,1.0772293 0 0 1 9.65625,8.6074219 Z M 2.9414063,9.1601563 A 0.5245319,0.5245319 0 0 1 3.4648438,9.6835938 0.5245319,0.5245319 0 0 1 2.9414063,10.208984 0.5245319,0.5245319 0 0 1 2.4160156,9.6835938 0.5245319,0.5245319 0 0 1 2.9414063,9.1601563 Z m 10.1171877,0 a 0.5245319,0.5245319 0 0 1 0.52539,0.5234375 0.5245319,0.5245319 0 0 1 -0.52539,0.5253902 0.5245319,0.5245319 0 0 1 -0.523438,-0.5253902 0.5245319,0.5245319 0 0 1 0.523438,-0.5234375 z M 6.515625,12.535156 a 0.5245319,0.5245319 0 0 1 0.5234375,0.523438 0.5245319,0.5245319 0 0 1 -0.5234375,0.52539 0.5245319,0.5245319 0 0 1 -0.5253906,-0.52539 0.5245319,0.5245319 0 0 1 0.5253906,-0.523438 z m 2.96875,0 a 0.5245319,0.5245319 0 0 1 0.525391,0.523438 0.5245319,0.5245319 0 0 1 -0.525391,0.52539 0.5245319,0.5245319 0 0 1 -0.5234375,-0.52539 0.5245319,0.5245319 0 0 1 0.5234375,-0.523438 z"
     style="stroke-width:0.25;stroke-linecap:round;stroke-linejoin:round"
     id="path3" /></svg>
