<?xml version="1.0" encoding="UTF-8" standalone="no"?>
<svg
   height="16px"
   viewBox="0 0 16 16"
   width="16px"
   version="1.1"
   id="svg15572"
   sodipodi:docname="effects-blurs-motionblur.svg"
   inkscape:export-filename="/mnt/external/cloud/design/gnome/image.svg"
   inkscape:version="1.4.3 (0d15f75042, 2025-12-25)"
   xml:space="preserve"
   xmlns:inkscape="http://www.inkscape.org/namespaces/inkscape"
   xmlns:sodipodi="http://sodipodi.sourceforge.net/DTD/sodipodi-0.dtd"
   xmlns="http://www.w3.org/2000/svg"
   xmlns:svg="http://www.w3.org/2000/svg"><sodipodi:namedview
     id="namedview1"
     pagecolor="#ffffff"
     bordercolor="#000000"
     borderopacity="0.25"
     inkscape:showpageshadow="2"
     inkscape:pageopacity="0.0"
     inkscape:pagecheckerboard="0"
     inkscape:deskcolor="#d1d1d1"
     showborder="false"
     inkscape:zoom="32"
     inkscape:cx="0.828125"
     inkscape:cy="0.40625"
     inkscape:window-width="2560"
     inkscape:window-height="1403"
     inkscape:window-x="0"
     inkscape:window-y="0"
     inkscape:window-maximized="1"
     inkscape:current-layer="svg15572" /><defs
     id="defs15576" /><inkscape:templateinfo><inkscape:name>morewaita-symbolic</inkscape:name><inkscape:date>2025-09-24</inkscape:date></inkscape:templateinfo><path
     id="path2"
     style="baseline-shift:baseline;display:inline;overflow:visible;vector-effect:none;fill-rule:evenodd;enable-background:accumulate;stop-color:#000000"
     d="M 11.605469,3.5019531 C 10.57523,3.4401408 9.7809222,4.6070636 10.188406,5.5467647 10.329477,5.9436952 10.675362,6.2012096 10.949263,6.50195 7.2995078,6.5025147 13.063084,6.5003924 9.413359,6.5039 v 2.9921876 c 3.649556,0.010527 -2.1138854,0.00417 1.53586,0.00586 -0.419723,0.4155635 -0.91064,0.8685564 -0.861024,1.5217474 -0.03586,1.032209 1.155379,1.792091 2.082655,1.35881 0.548779,-0.265086 0.893657,-0.797865 1.334054,-1.202087 0.735307,-0.770895 1.502331,-1.5138532 2.216554,-2.3033289 C 16.214593,8.2237792 16.012472,7.2682219 15.39899,6.7709022 14.447507,5.8000309 13.510262,4.8143941 12.549822,3.8528113 12.287713,3.6317851 11.948029,3.506145 11.605469,3.5019531 Z"
     sodipodi:nodetypes="sccccccsccccs" /><path
     d="M 7.3457031,6.5039062 V 7.2519531 H 6.5976562 5.8515625 V 8 H 6.5976562 V 8.7480469 H 7.3457031 V 8 H 8.09375 V 8.7480469 H 8.8417969 V 9.4960938 H 10.335938 V 8 6.5039062 H 8.8417969 Z"
     style="stroke-width:0.315989;stroke-linejoin:round;stroke-dasharray:0.63198, 0.315989"
     id="path6" /><path
     d="M 6.5976562,8.7480469 H 5.8515625 v 0.7480469 h 0.7460937 z"
     style="stroke-width:0.157994;stroke-linejoin:round;stroke-dasharray:0.31599, 0.157994"
     id="path5" /><path
     d="M 5.1035156,8 V 8.7480469 H 5.8515625 V 8 Z"
     style="stroke-width:0.157994;stroke-linejoin:round;stroke-dasharray:0.31599, 0.157994"
     id="path4" /><path
     d="M 0,8 V 8.7480469 H 0.7480469 V 8 Z"
     style="stroke-width:0.157994;stroke-linejoin:round;stroke-dasharray:0.31599, 0.157994"
     id="path4-1" /><rect
     style="fill:#000000;fill-opacity:1;stroke:none;stroke-width:0.157994;stroke-linejoin:round;stroke-dasharray:0.31599, 0.157994;stroke-opacity:1"
     id="rect3-4-3-0-2-9"
     width="0.74765235"
     height="0.74765235"
     x="7.3460979"
     y="8.7480469" /><rect
     style="fill:#000000;fill-opacity:1;stroke:none;stroke-width:0.157993;stroke-linejoin:round;stroke-dasharray:0.315989, 0.157993;stroke-opacity:1"
     id="rect3-4-3-0-2-7-3-8"
     width="0.74765182"
     height="0.74765182"
     x="5.8506212"
     y="6.5046959" /><rect
     style="fill:#000000;fill-opacity:1;stroke:none;stroke-width:0.157993;stroke-linejoin:round;stroke-dasharray:0.315989, 0.157993;stroke-opacity:1"
     id="rect3-4-3-0-2-7-3-8-9"
     width="0.74765182"
     height="0.74765182"
     x="3.6082118"
     y="7.2523479" /><rect
     style="fill:#000000;fill-opacity:1;stroke:none;stroke-width:0.157993;stroke-linejoin:round;stroke-dasharray:0.315989, 0.157993;stroke-opacity:1"
     id="rect3-4-3-0-2-7-3-2"
     width="0.74765182"
     height="0.74765182"
     x="4.3558636"
     y="6.5046959" /><rect
     style="fill:#000000;fill-opacity:1;stroke:none;stroke-width:0.157993;stroke-linejoin:round;stroke-dasharray:0.315989, 0.157993;stroke-opacity:1"
     id="rect3-4-3-0-2-7-3-2-1-9-7-3"
     width="0.74765182"
     height="0.74765182"
     x="2.8605597"
     y="8.7478495" /><rect
     style="fill:#000000;fill-opacity:1;stroke:none;stroke-width:0.157993;stroke-linejoin:round;stroke-dasharray:0.315989, 0.157993;stroke-opacity:1"
     id="rect3-4-3-0-2-7-3-2-1-9-7-3-9"
     width="0.74765182"
     height="0.74765182"
     x="2.1129079"
     y="8.0001974" /><rect
     style="fill:#000000;fill-opacity:1;stroke:none;stroke-width:0.157993;stroke-linejoin:round;stroke-dasharray:0.315989, 0.157993;stroke-opacity:1"
     id="rect3-4-3-0-2-7-3-2-1-9-8-3-4"
     width="0.74765182"
     height="0.74765182"
     x="1.364861"
     y="6.5046959" /></svg>
