<?xml version="1.0" encoding="UTF-8" standalone="no"?>
<svg
   height="16px"
   viewBox="0 0 16 16"
   width="16px"
   version="1.1"
   id="svg15572"
   sodipodi:docname="effects-render-clouds-symbolic.svg"
   inkscape:export-filename="/mnt/external/cloud/design/gnome/image.svg"
   inkscape:version="1.4.3 (0d15f75042, 2025-12-25)"
   xmlns:inkscape="http://www.inkscape.org/namespaces/inkscape"
   xmlns:sodipodi="http://sodipodi.sourceforge.net/DTD/sodipodi-0.dtd"
   xmlns="http://www.w3.org/2000/svg"
   xmlns:svg="http://www.w3.org/2000/svg">
  <sodipodi:namedview
     id="namedview1"
     pagecolor="#ffffff"
     bordercolor="#000000"
     borderopacity="0.25"
     inkscape:showpageshadow="2"
     inkscape:pageopacity="0.0"
     inkscape:pagecheckerboard="0"
     inkscape:deskcolor="#d1d1d1"
     showborder="false"
     inkscape:zoom="18.6875"
     inkscape:cx="33.150502"
     inkscape:cy="31.036789"
     inkscape:window-width="2560"
     inkscape:window-height="1403"
     inkscape:window-x="0"
     inkscape:window-y="0"
     inkscape:window-maximized="1"
     inkscape:current-layer="svg15572" />
  <defs
     id="defs15576">
    <inkscape:path-effect
       effect="fillet_chamfer"
       id="path-effect9"
       is_visible="true"
       lpeversion="1"
       nodesatellites_param="F,0,0,1,0,0,0,1 @ F,0,0,1,0,0,0,1 @ F,0,0,1,0,0,0,1 @ F,0,0,1,0,0,0,1 @ F,0,0,1,0,0,0,1 @ F,0,1,1,0,0.38960231,0,1 @ F,0,1,1,0,0.38960231,0,1 @ F,0,0,1,0,0,0,1 @ F,0,0,1,0,0,0,1 @ F,0,0,1,0,0,0,1 @ F,0,0,1,0,0,0,1 @ F,0,0,1,0,0,0,1 @ F,0,0,1,0,0,0,1 @ F,0,1,1,0,0.38960231,0,1 @ F,0,0,1,0,0.38960231,0,1"
       radius="0"
       unit="px"
       method="auto"
       mode="F"
       chamfer_steps="1"
       flexible="false"
       use_knot_distance="true"
       apply_no_radius="true"
       apply_with_radius="true"
       only_selected="false"
       hide_knots="false" />
  </defs>
  <inkscape:templateinfo>
    <inkscape:name>morewaita-symbolic</inkscape:name>
    <inkscape:date>2025-09-24</inkscape:date>
  </inkscape:templateinfo>
  <path
     d="m 16,9.5639788 c 0,2.3168692 -1.877131,4.1967492 -4.191252,4.1940012 l -3.9054216,0.02748 c -1.7479586,0 -3.1661131,-1.418155 -3.1661131,-3.166113 0,-1.7479592 1.4181545,-3.166114 3.1661131,-3.166114 0.2940746,0 0.5826523,0.041229 0.8629851,0.1209284 L 7.9198163,7.9864148 C 8.5601848,6.4033616 10.096519,5.3699776 11.806,5.3672296 c 2.316869,0 4.194,1.8798799 4.194,4.1967492 z M 9.22254,8.5168528 c -0.1346695,0.332552 -0.5002021,0.511195 -0.846496,0.412254 -0.1539082,-0.04672 -0.3133133,-0.06871 -0.4727176,-0.06871 -0.9784175,0 -1.7589524,0.780535 -1.7589524,1.7589512 0,0.978418 0.7805349,1.758953 1.7534555,1.758953 L 11.806,12.353566 c 1.547328,0 2.786838,-1.24226 2.786838,-2.7895882 0,-1.547328 -1.23951,-2.7895875 -2.786838,-2.7868395 -1.137822,0 -2.1547159,0.6843428 -2.58346,1.7397145 z m 0,0"
     fill="#222222"
     id="path1"
     style="fill:#000000;fill-opacity:1;stroke-width:0.703581" />
  <path
     id="path9"
     style="stroke-width:0.874085"
     d="m 9.4472656,19.498047 c -1.8805625,0.003 -3.5939137,1.011361 -4.5136718,2.607422 -0.111356,-0.0097 -0.2231802,-0.01563 -0.3359376,-0.01563 -2.1715539,0 -3.9335937,1.762038 -3.9335937,3.933594 0,2.171555 1.7620399,3.933593 3.9335937,3.933593 l 0.2901,-0.0025 C 5.1029195,29.95264 5.2839366,29.776452 5.3119906,29.56318 5.3577518,29.215295 5.4419559,28.879586 5.5602933,28.560299 5.6350492,28.3586 5.5365108,28.202342 5.3213447,28.203841 l -0.7295478,0.0051 c -1.208695,0 -2.1796875,-0.970021 -2.1796875,-2.185546 0,-1.215524 0.9700228,-2.185547 2.1855468,-2.185547 0.198034,0 0.3966847,0.0279 0.5878907,0.08594 0.4302142,0.122918 0.8834762,-0.09858 1.0507812,-0.511719 C 6.7689741,22.101036 8.0337066,21.25 9.4472656,21.25 c 1.2684414,-0.0023 2.3692454,0.669177 2.9718994,1.678385 0.110257,0.184637 0.331421,0.257276 0.524526,0.162439 0.290601,-0.142719 0.593281,-0.263115 0.905189,-0.359157 0.205604,-0.06331 0.307283,-0.263524 0.206776,-0.453722 -0.873549,-1.653084 -2.608895,-2.779898 -4.6083904,-2.779898 z"
     inkscape:path-effect="#path-effect9"
     inkscape:original-d="m 9.4472656,19.498047 c -1.8805625,0.003 -3.5939137,1.011361 -4.5136718,2.607422 -0.111356,-0.0097 -0.2231802,-0.01563 -0.3359376,-0.01563 -2.1715539,0 -3.9335937,1.762038 -3.9335937,3.933594 0,2.171555 1.7620399,3.933593 3.9335937,3.933593 l 0.6796876,-0.0059 c 0.029658,-0.623433 0.1818873,-1.214349 0.4335937,-1.75 l -1.1191406,0.0078 c -1.208695,0 -2.1796875,-0.970021 -2.1796875,-2.185546 0,-1.215524 0.9700228,-2.185547 2.1855468,-2.185547 0.198034,0 0.3966847,0.0279 0.5878907,0.08594 0.4302142,0.122918 0.8834762,-0.09858 1.0507812,-0.511719 C 6.7689741,22.101036 8.0337066,21.25 9.4472656,21.25 c 1.4080484,-0.0025 2.6095274,0.825135 3.1523434,2.023438 0.504418,-0.288365 1.051612,-0.507143 1.625,-0.644532 -0.803316,-1.842502 -2.639321,-3.130859 -4.7773434,-3.130859 z"
     transform="matrix(0.80493402,0,0,0.80493402,-0.5345265,-13.480101)" />
</svg>
