<?xml version="1.0" encoding="UTF-8" standalone="no"?>
<svg
   height="16px"
   viewBox="0 0 16 16"
   width="16px"
   version="1.1"
   id="svg15572"
   sodipodi:docname="effects-artistic-oilpainting.svg"
   inkscape:export-filename="/mnt/external/cloud/design/gnome/image.svg"
   inkscape:version="1.4.3 (0d15f75042, 2025-12-25)"
   xml:space="preserve"
   xmlns:inkscape="http://www.inkscape.org/namespaces/inkscape"
   xmlns:sodipodi="http://sodipodi.sourceforge.net/DTD/sodipodi-0.dtd"
   xmlns="http://www.w3.org/2000/svg"
   xmlns:svg="http://www.w3.org/2000/svg"><sodipodi:namedview
     id="namedview1"
     pagecolor="#ffffff"
     bordercolor="#000000"
     borderopacity="0.25"
     inkscape:showpageshadow="2"
     inkscape:pageopacity="0.0"
     inkscape:pagecheckerboard="0"
     inkscape:deskcolor="#d1d1d1"
     showborder="false"
     inkscape:zoom="26.428116"
     inkscape:cx="9.1379953"
     inkscape:cy="8.7406912"
     inkscape:window-width="2560"
     inkscape:window-height="1403"
     inkscape:window-x="0"
     inkscape:window-y="0"
     inkscape:window-maximized="1"
     inkscape:current-layer="g1" /><defs
     id="defs15576"><inkscape:path-effect
       effect="fillet_chamfer"
       id="path-effect1-9"
       is_visible="true"
       lpeversion="1"
       nodesatellites_param="F,0,0,1,0,0,0,1 @ F,0,0,1,0,0,0,1 @ F,0,0,1,0,0,0,1 @ F,0,0,1,0,0,0,1 @ F,0,0,1,0,0,0,1 @ F,0,0,1,0,0,0,1 @ F,0,1,1,0,0.25098665,0,1 @ F,0,0,1,0,0.25098665,0,1 @ F,0,0,1,0,0,0,1 @ F,0,0,1,0,0,0,1 @ F,0,0,1,0,0,0,1 | F,0,0,1,0,0,0,1 @ F,0,0,1,0,0.39779432,0,1 @ F,0,0,1,0,0,0,1 @ F,0,0,1,0,0,0,1 @ F,0,0,1,0,0,0,1 @ F,0,0,1,0,0,0,1 @ F,0,0,1,0,0,0,1 @ F,0,0,1,0,0,0,1 @ F,0,0,1,0,0,0,1 @ F,0,0,1,0,0,0,1 @ F,0,0,1,0,0,0,1"
       radius="0"
       unit="px"
       method="auto"
       mode="F"
       chamfer_steps="1"
       flexible="false"
       use_knot_distance="true"
       apply_no_radius="true"
       apply_with_radius="true"
       only_selected="false"
       hide_knots="false" /></defs><inkscape:templateinfo><inkscape:name>morewaita-symbolic</inkscape:name><inkscape:date>2025-09-24</inkscape:date></inkscape:templateinfo><g
     id="g3"
     transform="matrix(1.2329007,0,0,1.2329007,-1.8706611,-1.8706661)"><g
       id="g1"
       inkscape:label="palette"
       transform="matrix(0.75415395,0,0,0.75415395,0.37301838,0.37301939)"><circle
         cx="-7.9642081"
         cy="4.5349965"
         r="1.001822"
         id="circle1-6"
         transform="scale(-1,1)"
         style="fill:#33d17a;fill-opacity:1;stroke-width:0.667881" /><path
         d="M 5.7935929,5.0025143 A 1.001822,1.001822 0 1 1 4.4244355,5.3698486 1.001822,1.001822 0 0 1 5.7935929,5.0025143 Z"
         id="path2-7"
         style="fill:#62a0ea;fill-opacity:1;stroke-width:0.667881" /><path
         d="M 10.134821,5.0025143 A 1.001822,1.001822 0 1 1 9.7674868,6.3716709 1.001822,1.001822 0 0 1 10.134821,5.0025143 Z"
         id="path3-5"
         style="fill:#ffa348;fill-opacity:1;stroke-width:0.667881" /><path
         d="M 11.864634,7.7141125 A 1.001822,1.001822 0 1 1 10.475441,7.9812647 0.99514316,0.99514316 0 0 1 11.864634,7.7141125 Z"
         id="path4-3"
         style="fill:#ed333b;fill-opacity:1;stroke-width:0.667881" /><path
         style="baseline-shift:baseline;display:inline;overflow:visible;vector-effect:none;fill:#000000;fill-opacity:1;stroke-linecap:round;enable-background:accumulate;stop-color:#000000"
         d="m -7.5527344,-38.029297 c -1.2085164,-0.0045 -2.4347991,0.176047 -3.6386716,0.5625 -5.632075,1.807942 -9.057014,7.543383 -7.978516,13.359375 1.078499,5.815992 6.332441,9.942941 12.2382814,9.611328 5.1804164,-0.29088 9.4795113,-3.92484 10.7402344,-8.804687 0.4835606,-1.871706 -0.7585947,-3.555988 -2.4628907,-4.042969 l -2.3778041,-0.679119 c -0.1332865,-0.03807 -0.3617329,-0.08492 -0.4684468,-0.172013 -0.032904,-0.02686 -0.054023,-0.05618 -0.06714,-0.08876 -0.05114,-0.127014 -0.013972,-0.372416 0.068261,-0.48161 0.2391835,-0.317606 0.93793807,-0.146157 1.29044282,-0.277719 0.96724664,-0.120611 1.86689878,-0.635971 2.31445318,-1.515625 0.4475543,-0.879654 0.2806915,-2.032849 -0.3398438,-2.845703 -2.22653676,-2.916593 -5.6928101,-4.611556 -9.3183594,-4.625 z m -0.00195,2.71875 c 2.6497849,0.0097 5.1774367,1.192036 6.88949782,3.229011 0.14134599,0.16817 0.0744592,0.345608 -0.14329069,0.374429 -0.24549753,0.03249 -0.49548423,0.05524 -0.73839463,0.08796 -1.5811985,0.197168 -2.6434165,1.550376 -2.7460937,2.878907 -0.1026773,1.32853 0.7393591,2.827839 2.2714843,3.265625 l 2.61914065,0.748047 c 0.31283924,0.08939 0.61664915,0.589419 0.57617185,0.746093 -0.96836789,3.748236 -4.2581885,6.543 -8.2578125,6.767578 -4.5596987,0.256027 -8.5774837,-2.900294 -9.4101567,-7.390625 -0.832672,-4.49033 1.786432,-8.875634 6.134766,-10.271484 0.9294695,-0.298367 1.8745772,-0.438952 2.8046876,-0.435547 z"
         id="path5-0"
         transform="matrix(-0.3893367,0.3893367,-0.3893367,-0.3893367,-5.1772503,0.7325953)"
         sodipodi:nodetypes="cssssccscsscsccsccssssss"
         inkscape:original-d="m -7.5527344,-38.029297 c -1.2085164,-0.0045 -2.4347991,0.176047 -3.6386716,0.5625 -5.632075,1.807942 -9.057014,7.543383 -7.978516,13.359375 1.078499,5.815992 6.332441,9.942941 12.2382814,9.611328 5.1804164,-0.29088 9.4795113,-3.92484 10.7402344,-8.804687 0.4835606,-1.871706 -0.7585947,-3.555988 -2.4628907,-4.042969 l -2.6191406,-0.748047 c -0.3354807,-0.09586 -0.3236938,-0.218803 -0.3066406,-0.439453 0.04703,-0.626133 0.95281783,-0.35561 1.37109372,-0.511719 0.96724664,-0.120611 1.86689878,-0.635971 2.31445318,-1.515625 0.4475543,-0.879654 0.2806915,-2.032849 -0.3398438,-2.845703 -2.22653676,-2.916593 -5.6928101,-4.611556 -9.3183594,-4.625 z m -0.00195,2.71875 c 2.781498,0.01018 5.4284193,1.312474 7.13867187,3.539063 -0.36555144,0.07519 -0.75660437,0.101923 -1.13085937,0.15234 -1.5811985,0.197168 -2.6434165,1.550376 -2.7460937,2.878907 -0.1026773,1.32853 0.7393591,2.827839 2.2714843,3.265625 l 2.61914065,0.748047 c 0.31283924,0.08939 0.61664915,0.589419 0.57617185,0.746093 -0.96836789,3.748236 -4.2581885,6.543 -8.2578125,6.767578 -4.5596987,0.256027 -8.5774837,-2.900294 -9.4101567,-7.390625 -0.832672,-4.49033 1.786432,-8.875634 6.134766,-10.271484 0.9294695,-0.298367 1.8745772,-0.438952 2.8046876,-0.435547 z"
         inkscape:path-effect="#path-effect1-9" /></g><g
       fill="#222222"
       id="g2"
       transform="matrix(0.4188385,0,0,0.4188385,7.8128349,8.2220287)"
       style="fill:#000000;fill-opacity:1"
       inkscape:label="brush"><path
         d="m 9,10.976562 c 0,2.210938 -1.792969,4.011719 -4,4 H 1 v -4 c 0,-2.210937 1.789062,-4 4,-4 2.207031,0 4,1.789063 4,4 z m 0,0"
         id="path1-5"
         style="fill:#000000;fill-opacity:1" /><path
         d="M 14.40625,0.0273438 C 14.019531,0.0351562 13.648438,0.199219 13.375,0.476562 L 7.574219,6.25 C 8.480469,6.726562 9.21875,7.464844 9.695312,8.371094 L 15.496094,2.601562 C 16.476562,1.644531 15.773438,-0.015625 14.40625,0.0273438 Z m 0,0"
         id="path2"
         style="fill:#000000;fill-opacity:1" /></g></g></svg>
