<?xml version="1.0" encoding="UTF-8" standalone="no"?>
<svg
   height="16px"
   viewBox="0 0 16 16"
   width="16px"
   version="1.1"
   id="svg15572"
   sodipodi:docname="effects-distort-bulge-symbolic.svg"
   inkscape:export-filename="/mnt/external/cloud/design/gnome/image.svg"
   inkscape:version="1.4.3 (0d15f75042, 2025-12-25)"
   xmlns:inkscape="http://www.inkscape.org/namespaces/inkscape"
   xmlns:sodipodi="http://sodipodi.sourceforge.net/DTD/sodipodi-0.dtd"
   xmlns="http://www.w3.org/2000/svg"
   xmlns:svg="http://www.w3.org/2000/svg">
  <sodipodi:namedview
     id="namedview1"
     pagecolor="#ffffff"
     bordercolor="#000000"
     borderopacity="0.25"
     inkscape:showpageshadow="2"
     inkscape:pageopacity="0.0"
     inkscape:pagecheckerboard="0"
     inkscape:deskcolor="#d1d1d1"
     showborder="false"
     inkscape:zoom="11.313709"
     inkscape:cx="-7.380427"
     inkscape:cy="3.1819805"
     inkscape:window-width="2560"
     inkscape:window-height="1403"
     inkscape:window-x="0"
     inkscape:window-y="0"
     inkscape:window-maximized="1"
     inkscape:current-layer="svg15572" />
  <defs
     id="defs15576">
    <inkscape:path-effect
       effect="fillet_chamfer"
       id="path-effect29"
       is_visible="true"
       lpeversion="1"
       nodesatellites_param="F,0,0,1,0,0,0,1 @ F,0,1,1,0,1.034375,0,1 @ F,0,1,1,0,1.034375,0,1 @ F,0,0,1,0,1.034375,0,1 @ F,0,0,1,0,0,0,1"
       radius="0"
       unit="px"
       method="auto"
       mode="F"
       chamfer_steps="1"
       flexible="false"
       use_knot_distance="true"
       apply_no_radius="true"
       apply_with_radius="true"
       only_selected="false"
       hide_knots="false" />
    <inkscape:path-effect
       effect="fillet_chamfer"
       id="path-effect28"
       is_visible="true"
       lpeversion="1"
       nodesatellites_param="F,0,0,1,0,0,0,1 @ F,0,0,1,0,2.5541506,0,1 @ F,0,1,1,0,2.5541506,0,1 @ F,0,1,1,0,2.5541506,0,1 @ F,0,0,1,0,0,0,1"
       radius="0"
       unit="px"
       method="auto"
       mode="F"
       chamfer_steps="1"
       flexible="false"
       use_knot_distance="true"
       apply_no_radius="true"
       apply_with_radius="true"
       only_selected="false"
       hide_knots="false" />
    <inkscape:path-effect
       effect="fillet_chamfer"
       id="path-effect27"
       is_visible="true"
       lpeversion="1"
       nodesatellites_param="F,0,0,1,0,0,0,1 @ F,0,1,1,0,1.7609298,0,1 @ F,0,1,1,0,1.7609298,0,1 @ F,0,1,1,0,1.7609298,0,1 @ F,0,1,1,0,1.7609298,0,1 @ F,0,1,1,0,1.7609298,0,1 @ F,0,1,1,0,1.7609298,0,1 @ F,0,1,1,0,1.7609298,0,1 @ F,0,1,1,0,1.7609298,0,1 @ F,0,1,1,0,1.7609298,0,1 @ F,0,1,1,0,1.7609298,0,1 @ F,0,1,1,0,1.7609298,0,1 | F,0,0,1,0,0,0,1 @ F,0,1,1,0,1.7609298,0,1 @ F,0,1,1,0,1.7609298,0,1 @ F,0,0,1,0,0,0,1 @ F,0,1,1,0,1.7609298,0,1 @ F,0,1,1,0,1.7609298,0,1 @ F,0,0,1,0,0,0,1 @ F,0,1,1,0,1.7609298,0,1 @ F,0,1,1,0,1.7609298,0,1 @ F,0,0,1,0,0,0,1 @ F,0,1,1,0,1.7609298,0,1 @ F,0,0,1,0,1.7609298,0,1"
       radius="0"
       unit="px"
       method="auto"
       mode="F"
       chamfer_steps="1"
       flexible="false"
       use_knot_distance="true"
       apply_no_radius="true"
       apply_with_radius="true"
       only_selected="false"
       hide_knots="false" />
    <inkscape:path-effect
       effect="fillet_chamfer"
       id="path-effect3"
       is_visible="true"
       lpeversion="1"
       nodesatellites_param="F,0,0,1,0,0,0,1 @ F,0,0,1,0,2.2766822,0,1 @ F,0,1,1,0,2.2766822,0,1 @ F,0,1,1,0,2.2766822,0,1 @ F,0,0,1,0,0,0,1"
       radius="0"
       unit="px"
       method="auto"
       mode="F"
       chamfer_steps="1"
       flexible="false"
       use_knot_distance="true"
       apply_no_radius="true"
       apply_with_radius="true"
       only_selected="false"
       hide_knots="false" />
    <inkscape:path-effect
       effect="fillet_chamfer"
       id="path-effect1"
       is_visible="true"
       lpeversion="1"
       nodesatellites_param="F,0,0,1,0,0,0,1 @ F,0,0,1,0,6.0216901,0,1 @ F,0,0,1,0,0,0,1"
       radius="0"
       unit="px"
       method="auto"
       mode="F"
       chamfer_steps="1"
       flexible="false"
       use_knot_distance="true"
       apply_no_radius="true"
       apply_with_radius="true"
       only_selected="false"
       hide_knots="false" />
    <inkscape:path-effect
       effect="fillet_chamfer"
       id="path-effect1-3"
       is_visible="true"
       lpeversion="1"
       nodesatellites_param="F,0,0,1,0,0,0,1 @ F,0,0,1,0,6.0216901,0,1 @ F,0,0,1,0,0,0,1"
       radius="0"
       unit="px"
       method="auto"
       mode="F"
       chamfer_steps="1"
       flexible="false"
       use_knot_distance="true"
       apply_no_radius="true"
       apply_with_radius="true"
       only_selected="false"
       hide_knots="false" />
    <inkscape:path-effect
       effect="fillet_chamfer"
       id="path-effect3-7"
       is_visible="true"
       lpeversion="1"
       nodesatellites_param="F,0,0,1,0,0,0,1 @ F,0,0,1,0,2.2766822,0,1 @ F,0,1,1,0,2.2766822,0,1 @ F,0,1,1,0,2.2766822,0,1 @ F,0,0,1,0,0,0,1"
       radius="0"
       unit="px"
       method="auto"
       mode="F"
       chamfer_steps="1"
       flexible="false"
       use_knot_distance="true"
       apply_no_radius="true"
       apply_with_radius="true"
       only_selected="false"
       hide_knots="false" />
    <inkscape:path-effect
       effect="fillet_chamfer"
       id="path-effect3-7-6"
       is_visible="true"
       lpeversion="1"
       nodesatellites_param="F,0,0,1,0,0,0,1 @ F,0,0,1,0,2.2766822,0,1 @ F,0,1,1,0,2.2766822,0,1 @ F,0,1,1,0,2.2766822,0,1 @ F,0,0,1,0,0,0,1"
       radius="0"
       unit="px"
       method="auto"
       mode="F"
       chamfer_steps="1"
       flexible="false"
       use_knot_distance="true"
       apply_no_radius="true"
       apply_with_radius="true"
       only_selected="false"
       hide_knots="false" />
    <inkscape:path-effect
       effect="fillet_chamfer"
       id="path-effect3-0"
       is_visible="true"
       lpeversion="1"
       nodesatellites_param="F,0,0,1,0,0,0,1 @ F,0,0,1,0,2.2766822,0,1 @ F,0,1,1,0,2.2766822,0,1 @ F,0,1,1,0,2.2766822,0,1 @ F,0,0,1,0,0,0,1"
       radius="0"
       unit="px"
       method="auto"
       mode="F"
       chamfer_steps="1"
       flexible="false"
       use_knot_distance="true"
       apply_no_radius="true"
       apply_with_radius="true"
       only_selected="false"
       hide_knots="false" />
    <inkscape:path-effect
       effect="fillet_chamfer"
       id="path-effect3-7-6-2"
       is_visible="true"
       lpeversion="1"
       nodesatellites_param="F,0,0,1,0,0,0,1 @ F,0,0,1,0,2.2766822,0,1 @ F,0,1,1,0,2.2766822,0,1 @ F,0,1,1,0,2.2766822,0,1 @ F,0,0,1,0,0,0,1"
       radius="0"
       unit="px"
       method="auto"
       mode="F"
       chamfer_steps="1"
       flexible="false"
       use_knot_distance="true"
       apply_no_radius="true"
       apply_with_radius="true"
       only_selected="false"
       hide_knots="false" />
    <inkscape:path-effect
       effect="fillet_chamfer"
       id="path-effect29-2"
       is_visible="true"
       lpeversion="1"
       nodesatellites_param="F,0,0,1,0,0,0,1 @ F,0,1,1,0,1.034375,0,1 @ F,0,1,1,0,1.034375,0,1 @ F,0,0,1,0,1.034375,0,1 @ F,0,0,1,0,0,0,1"
       radius="0"
       unit="px"
       method="auto"
       mode="F"
       chamfer_steps="1"
       flexible="false"
       use_knot_distance="true"
       apply_no_radius="true"
       apply_with_radius="true"
       only_selected="false"
       hide_knots="false" />
  </defs>
  <inkscape:templateinfo>
    <inkscape:name>morewaita-symbolic</inkscape:name>
    <inkscape:date>2025-09-24</inkscape:date>
  </inkscape:templateinfo>
  <path
     id="path1"
     style="baseline-shift:baseline;display:inline;overflow:visible;vector-effect:none;stroke-width:0.984615;stroke-linecap:round;stroke-linejoin:round;enable-background:accumulate;stop-color:#000000"
     d="M 8,0 C 7.5835468,0 7.1677692,0.17863574 6.8884623,0.53461505 L 6.576924,0.93076864 C 6.2964483,1.2882375 5.8659677,1.496153 5.4115401,1.4961529 H 4.8615404 c -0.3384095,0 -0.6153842,0.2769747 -0.6153842,0.6153842 0,0.3384095 0.2769747,0.6153842 0.6153842,0.6153842 h 0.5499997 c 0.8315818,0 1.6175087,-0.3823838 2.1307678,-1.0365377 L 7.8538462,1.2942299 C 7.8976393,1.2384155 7.9497156,1.2173069 8,1.2173069 c 0.050284,0 0.1023607,0.021108 0.1461538,0.076923 l 0.3115383,0.3961537 c 0.513259,0.6541539 1.2991863,1.0365377 2.1307679,1.0365377 h 0.55 c 0.338409,0 0.615384,-0.2769747 0.615384,-0.6153842 0,-0.3384095 -0.276975,-0.6153842 -0.615384,-0.6153842 h -0.55 c -0.454428,0 -0.8849084,-0.2079154 -1.165384,-0.56538426 L 9.1115377,0.53461505 C 8.8322309,0.17863575 8.4164532,0 8,0 Z M 5.7653861,3.5826901 C 5.6462237,3.5875745 5.5284896,3.6288994 5.4269247,3.7038439 5.1556165,3.9048392 5.0938467,4.2930094 5.2942325,4.5653818 l 0.5826919,0.790384 c 1.0447855,1.4180268 3.2013647,1.4180268 4.2461516,0 l 0.582692,-0.790384 C 10.906154,4.2930097 10.844383,3.90484 10.573075,3.7038439 10.300635,3.5028116 9.9126865,3.5602392 9.7115373,3.8326899 a 0.12308915,0.12308915 0 0 0 -0.00192,0 L 9.1269223,4.623074 c -0.5726985,0.7772902 -1.6811466,0.7772901 -2.2538446,0 L 6.2903857,3.8326899 a 0.12308915,0.12308915 0 0 0 -0.00192,0 C 6.1626618,3.6623005 5.9634278,3.5745722 5.7653861,3.5826901 Z m -3.653844,0.6634611 c -0.3384094,0 -0.6153842,0.2769747 -0.6153842,0.6153842 v 0.5499997 c 0,0.4544279 -0.2079152,0.8849082 -0.56538421,1.1653838 l -0.3961536,0.3115383 c -0.71195887,0.5586138 -0.71195887,1.6644617 0,2.2230755 L 0.93077369,9.423071 C 1.2882427,9.7035467 1.496158,10.134027 1.4961579,10.588455 v 0.55 c 0,0.338409 0.2769748,0.615384 0.6153842,0.615384 0.3384096,0 0.6153843,-0.276975 0.6153843,-0.615384 v -0.55 c 0,-0.8315819 -0.3823839,-1.617509 -1.0365378,-2.130768 L 1.294235,8.1461487 C 1.23842,8.1023557 1.217312,8.0502797 1.217312,7.999995 c 0,-0.050284 0.021108,-0.1023608 0.076923,-0.1461538 L 1.6903886,7.5423029 C 2.3445425,7.0290438 2.7269264,6.2431172 2.7269264,5.4115351 V 4.8615354 c 0,-0.3384095 -0.2769747,-0.6153842 -0.6153843,-0.6153842 z m 11.7769159,0 c -0.33841,0 -0.615384,0.2769747 -0.615384,0.6153842 v 0.5499997 c 0,0.8315821 0.382384,1.6175087 1.036537,2.1307678 l 0.396154,0.3115383 c 0.05582,0.043793 0.07692,0.095869 0.07692,0.1461538 0,0.050284 -0.02111,0.1023607 -0.07692,0.1461537 L 14.309611,8.457687 c -0.654153,0.513259 -1.036537,1.2991862 -1.036537,2.130768 v 0.55 c 0,0.338409 0.276974,0.615384 0.615384,0.615384 0.338409,0 0.615384,-0.276975 0.615384,-0.615384 v -0.55 c 0,-0.454428 0.207915,-0.8849083 0.565385,-1.165384 L 15.46538,9.1115327 c 0.711959,-0.5586138 0.711959,-1.6644616 0,-2.2230755 L 15.069227,6.5769189 C 14.711757,6.2964433 14.503842,5.865963 14.503842,5.4115351 V 4.8615354 c 0,-0.3384095 -0.276975,-0.6153842 -0.615384,-0.6153842 z M 4.1653871,5.1769198 C 3.9887877,5.1870692 3.8168824,5.2741554 3.7038489,5.4269197 3.5028166,5.6993601 3.5602442,6.0873082 3.8326949,6.2884576 a 0.12308915,0.12308915 0 0 0 0,0.00192 l 0.7903842,0.5826919 c 0.7772901,0.5726987 0.7772899,1.6811466 0,2.2538447 l -0.7903842,0.582695 a 0.12308915,0.12308915 0 0 0 0,0.00192 C 3.5602444,9.9126846 3.5028172,10.30063 3.7038489,10.57307 c 0.2009961,0.271308 0.5891658,0.333079 0.8615379,0.132693 l 0.7903841,-0.582692 c 1.4180266,-1.0447868 1.4180266,-3.2013658 0,-4.2461516 L 4.5653868,5.2942274 C 4.4459977,5.2063927 4.3031015,5.1690053 4.1653871,5.1769198 Z m 7.6115339,0 c -0.118053,0.00449 -0.239213,0.041461 -0.342308,0.1173076 l -0.790384,0.582692 c -1.4180282,1.0447859 -1.4180283,3.2013648 0,4.2461516 l 0.790384,0.582692 c 0.272372,0.200386 0.660543,0.138614 0.861538,-0.132693 0.201032,-0.27244 0.143604,-0.6603886 -0.128846,-0.8615377 L 11.378844,9.1288404 a 0.12308915,0.12308915 0 0 0 0,-0.00192 c -0.777291,-0.5726983 -0.777291,-1.6811461 0,-2.2538447 a 0.12308915,0.12308915 0 0 0 0,-0.00192 L 12.167305,6.2884576 C 12.439756,6.0873084 12.497184,5.69936 12.296151,5.4269197 12.170795,5.257528 11.973778,5.1694391 11.776921,5.1769198 Z M 8,9.5807632 c -0.7987322,0 -1.6006444,0.3543944 -2.1230756,1.0634608 L 5.2942325,11.434608 C 5.0938479,11.70698 5.1556162,12.095151 5.4269247,12.296146 5.699365,12.497178 6.0873132,12.43975 6.2884627,12.1673 l 0.5826918,-0.788461 a 0.12308915,0.12308915 0 0 0 0.00192,0 c 0.5726982,-0.777291 1.6811463,-0.777291 2.2538446,0 a 0.12308915,0.12308915 0 0 0 0.00192,0 L 9.7115373,12.1673 c 0.2011491,0.272451 0.5890967,0.329878 0.8615377,0.128846 0.271308,-0.200995 0.333079,-0.589166 0.132693,-0.861538 L 10.123076,10.644224 C 9.6006434,9.9351578 8.7987322,9.5807632 8,9.5807632 Z M 4.8615404,13.273069 c -0.3384095,0 -0.6153842,0.276974 -0.6153842,0.615384 0,0.338409 0.2769747,0.615384 0.6153842,0.615384 h 0.5499997 c 0.4544276,0 0.8849082,0.207914 1.1653839,0.565385 l 0.3115383,0.396153 c 0.5586137,0.711959 1.6644616,0.711959 2.2230754,0 L 9.423076,15.069222 c 0.2804756,-0.357471 0.710956,-0.565385 1.165384,-0.565385 h 0.55 c 0.338409,0 0.615384,-0.276975 0.615384,-0.615384 0,-0.33841 -0.276975,-0.615384 -0.615384,-0.615384 h -0.55 c -0.8315816,0 -1.6175088,0.382384 -2.1307679,1.036537 L 8.1461538,14.70576 C 8.1023607,14.761575 8.0502844,14.782683 8,14.782683 c -0.050284,0 -0.1023607,-0.02111 -0.1461538,-0.07692 L 7.5423079,14.309606 C 7.0290488,13.655453 6.2431219,13.273069 5.4115401,13.273069 Z" />
</svg>
