<?xml version="1.0" encoding="UTF-8" standalone="no"?>
<svg
   height="16"
   viewBox="0 0 16 16"
   width="16"
   version="1.1"
   id="svg15572"
   sodipodi:docname="effects-stylize-relief.svg"
   inkscape:version="1.4.3 (0d15f75042, 2025-12-25)"
   xmlns:inkscape="http://www.inkscape.org/namespaces/inkscape"
   xmlns:sodipodi="http://sodipodi.sourceforge.net/DTD/sodipodi-0.dtd"
   xmlns="http://www.w3.org/2000/svg"
   xmlns:svg="http://www.w3.org/2000/svg">
  <sodipodi:namedview
     id="namedview1"
     pagecolor="#ffffff"
     bordercolor="#000000"
     borderopacity="0.25"
     inkscape:showpageshadow="2"
     inkscape:pageopacity="0.0"
     inkscape:pagecheckerboard="0"
     inkscape:deskcolor="#d1d1d1"
     showborder="false"
     inkscape:zoom="32"
     inkscape:cx="-7.078125"
     inkscape:cy="7.625"
     inkscape:window-width="2560"
     inkscape:window-height="1403"
     inkscape:window-x="0"
     inkscape:window-y="0"
     inkscape:window-maximized="1"
     inkscape:current-layer="svg15572">
    <inkscape:page
       x="0"
       y="0"
       width="16"
       height="16"
       id="page2"
       margin="0"
       bleed="0" />
  </sodipodi:namedview>
  <defs
     id="defs15576" />
  <path
     id="path4100-6"
     style="display:inline;fill:#000000;fill-opacity:0.346523;stroke-width:1.09941"
     inkscape:label="shadow"
     d="m 8.3040501,0.60664017 c -1.8215679,0 -3.2978883,1.47869393 -3.2978885,3.30026103 0,0.5586279 0.139288,1.0858585 0.3843583,1.5469232 l -0.080668,0.1210012 0.595518,0.595518 c 0.016943,0.017952 0.03486,0.034629 0.052197,0.052197 0.4170713,0.417072 1.1946543,0.9822489 2.3464826,0.9822489 1.8215675,0 3.2978885,-1.4763206 3.2978885,-3.2978884 0,-0.923164 -0.37823,-1.7591576 -0.989366,-2.3583462 L 10.07874,1.0147237 9.9719716,1.0598028 C 9.4825444,0.7718862 8.9128224,0.60664017 8.3040501,0.60664017 Z M 6.6551059,8.3032949 c -2.740845,0 -4.9468326,2.2059881 -4.9468326,4.9468331 v 0.550438 c 0,0.31705 0.065301,0.617949 0.1850613,0.889717 l -0.094903,0.113885 0.4365551,0.427065 0.00712,0.0071 c 0.080356,0.09304 0.1685708,0.18025 0.2633565,0.258612 C 2.8855691,15.81126 3.3737079,15.999997 3.9076572,16 h 8.7951618 c 1.218152,0 2.197007,-0.98123 2.19701,-2.199383 v -0.550439 c 0,-1.313056 -0.509296,-2.499496 -1.338136,-3.3833016 -0.05486,-0.072503 -0.15574,-0.1606068 -0.227768,-0.234886 l -0.358261,-0.3583097 -0.04982,0.016608 h -0.0025 C 12.097546,8.6711278 11.069499,8.3032949 9.9529939,8.3032949 Z" />
  <path
     id="path4100-6-7"
     d="m 7.6966695,0 c -1.821568,0 -3.2982496,1.4766813 -3.2982496,3.2982484 0,1.8215679 1.4766816,3.2982495 3.2982496,3.2982495 1.8215674,0 3.2982485,-1.4766816 3.2982485,-3.2982495 C 10.994918,1.4766813 9.5182369,0 7.6966695,0 Z M 6.0475447,7.6959144 c -2.740845,0 -4.9473733,2.2065273 -4.9473733,4.9473726 v 0.549709 c 0,1.218153 0.9806798,2.198833 2.1988323,2.198833 h 8.7953323 c 1.218152,0 2.198832,-0.98068 2.198832,-2.198833 v -0.549709 c 0,-2.7408453 -2.206529,-4.9473726 -4.9473746,-4.9473726 z"
     style="display:inline;fill:#000000;fill-opacity:1;stroke-width:1.09941"
     inkscape:label="main" />
</svg>
