<?xml version="1.0" encoding="UTF-8" standalone="no"?>
<svg
   height="16px"
   viewBox="0 0 16 16"
   width="16px"
   version="1.1"
   id="svg15572"
   sodipodi:docname="effects-blurs-zoomblur.svg"
   inkscape:export-filename="/mnt/external/cloud/design/gnome/image.svg"
   inkscape:version="1.4.3 (0d15f75042, 2025-12-25)"
   xml:space="preserve"
   xmlns:inkscape="http://www.inkscape.org/namespaces/inkscape"
   xmlns:sodipodi="http://sodipodi.sourceforge.net/DTD/sodipodi-0.dtd"
   xmlns="http://www.w3.org/2000/svg"
   xmlns:svg="http://www.w3.org/2000/svg"><sodipodi:namedview
     id="namedview1"
     pagecolor="#ffffff"
     bordercolor="#000000"
     borderopacity="0.25"
     inkscape:showpageshadow="2"
     inkscape:pageopacity="0.0"
     inkscape:pagecheckerboard="0"
     inkscape:deskcolor="#d1d1d1"
     showborder="false"
     inkscape:zoom="32"
     inkscape:cx="3.984375"
     inkscape:cy="6.96875"
     inkscape:window-width="2560"
     inkscape:window-height="1403"
     inkscape:window-x="0"
     inkscape:window-y="0"
     inkscape:window-maximized="1"
     inkscape:current-layer="svg15572" /><defs
     id="defs15576" /><inkscape:templateinfo><inkscape:name>morewaita-symbolic</inkscape:name><inkscape:date>2025-09-24</inkscape:date></inkscape:templateinfo><g
     fill="#222222"
     id="g4"
     style="fill:#000000;fill-opacity:1"><path
       d="M 1,6 C 0.449219,6 0,5.550781 0,5 V 0 H 5 C 5.550781,0 6,0.449219 6,1 6,1.550781 5.550781,2 5,2 H 3.414062 l 2.292969,2.292969 c 0.390625,0.390625 0.390625,1.023437 0,1.414062 C 5.519531,5.894531 5.265625,6 5,6 4.734375,6 4.480469,5.894531 4.292969,5.707031 L 2,3.414062 V 5 C 2,5.550781 1.550781,6 1,6 Z m 0,0"
       id="path1"
       style="fill:#000000;fill-opacity:1" /><path
       d="m 15,6 c 0.550781,0 1,-0.449219 1,-1 V 0 h -5 c -0.550781,0 -1,0.449219 -1,1 0,0.550781 0.449219,1 1,1 h 1.585938 l -2.292969,2.292969 c -0.390625,0.390625 -0.390625,1.023437 0,1.414062 C 10.480469,5.894531 10.734375,6 11,6 11.265625,6 11.519531,5.894531 11.707031,5.707031 L 14,3.414062 V 5 c 0,0.550781 0.449219,1 1,1 z m 0,0"
       id="path2-3"
       style="fill:#000000;fill-opacity:1" /><path
       d="m 1,10 c -0.550781,0 -1,0.449219 -1,1 v 5 H 5 C 5.550781,16 6,15.550781 6,15 6,14.449219 5.550781,14 5,14 H 3.414062 l 2.292969,-2.292969 c 0.390625,-0.390625 0.390625,-1.023437 0,-1.414062 C 5.519531,10.105469 5.265625,10 5,10 4.734375,10 4.480469,10.105469 4.292969,10.292969 L 2,12.585938 V 11 C 2,10.449219 1.550781,10 1,10 Z m 0,0"
       id="path3"
       style="fill:#000000;fill-opacity:1" /><path
       d="m 15,10 c 0.550781,0 1,0.449219 1,1 v 5 h -5 c -0.550781,0 -1,-0.449219 -1,-1 0,-0.550781 0.449219,-1 1,-1 h 1.585938 l -2.292969,-2.292969 c -0.390625,-0.390625 -0.390625,-1.023437 0,-1.414062 C 10.480469,10.105469 10.734375,10 11,10 c 0.265625,0 0.519531,0.105469 0.707031,0.292969 L 14,12.585938 V 11 c 0,-0.550781 0.449219,-1 1,-1 z m 0,0"
       id="path4-6"
       style="fill:#000000;fill-opacity:1" /></g></svg>
