<?xml version="1.0" encoding="UTF-8" standalone="no"?>
<svg
   height="16"
   viewBox="0 0 16 16"
   width="16"
   version="1.1"
   id="svg15572"
   xml:space="preserve"
   xmlns="http://www.w3.org/2000/svg"
   xmlns:svg="http://www.w3.org/2000/svg"><defs
     id="defs15576" /><path
     d="M 7.9975336,3.1973131 C 7.8201167,3.1998141 7.6801821,3.3447434 7.682681,3.5221606 V 4.5017017 L 6.8805567,4.0444158 C 6.783102,3.9819447 6.6556617,3.9769465 6.55321,4.036911 6.4507581,4.0943838 6.3882868,4.2018334 6.3907862,4.3217772 c 0.0025,0.1174449 0.069967,0.2223956 0.172419,0.2773703 L 7.682681,5.2388551 V 7.4453224 L 5.7710766,6.3408401 5.7760661,5.0539428 C 5.7835482,4.933999 5.7260854,4.8215517 5.6236377,4.7590813 c -0.102452,-0.062471 -0.2298923,-0.062471 -0.3323441,0 C 5.1888406,4.8190521 5.1313685,4.9315002 5.1388651,5.051444 L 5.1338755,5.9735121 4.2842734,5.4837415 C 4.2093084,5.4387628 4.1218499,5.4262683 4.0368892,5.4487581 3.954428,5.4712474 3.8819621,5.5262214 3.839482,5.6011867 v 0.0025 C 3.7545282,5.7586071 3.8094987,5.9535155 3.9644301,6.038476 L 4.8140318,6.5282519 4.0169049,6.9930337 c -0.1049511,0.054976 -0.172419,0.1624246 -0.1749177,0.2798691 -0.0025,0.117445 0.062473,0.2273935 0.1674211,0.2848667 0.102453,0.057474 0.229893,0.052475 0.3273468,-0.012494 L 5.4512263,6.8955806 7.360332,8.0000629 5.4512263,9.1020464 4.3367481,8.4548503 C 4.2392939,8.3898803 4.1118538,8.384883 4.0094013,8.4423569 3.904451,8.4998307 3.8394814,8.6097784 3.8419801,8.7272236 c 0.0025,0.117445 0.069967,0.2248943 0.1749178,0.2798687 l 0.7971267,0.464781 -0.8496021,0.4897705 c -0.074966,0.042482 -0.1299384,0.1124482 -0.1524282,0.1974072 -0.022492,0.08247 -0.00999,0.172419 0.032485,0.244886 v 0.0025 c 0.092459,0.152432 0.2873662,0.19991 0.4397947,0.109953 l 0.849602,-0.48977 0.005,0.922068 c -0.00749,0.119937 0.049973,0.232391 0.1524284,0.292364 0.102452,0.06246 0.2298923,0.06246 0.3323442,0 0.1024519,-0.06246 0.1599251,-0.17492 0.1524283,-0.294864 l -0.005,-1.28942 1.9116044,-1.1019837 v 2.2389507 l -1.1169769,0.632203 c -0.1549271,0.08497 -0.2074023,0.279871 -0.1224424,0.434797 0.087459,0.154929 0.2823676,0.207403 0.4372954,0.122436 l 0.802124,-0.454788 v 0.949558 c -0.0025,0.114939 0.059971,0.222393 0.1574264,0.279867 0.099953,0.05999 0.2248944,0.05999 0.3223489,0 0.099953,-0.05747 0.1624237,-0.164923 0.159925,-0.279867 v -0.949558 l 0.8021242,0.454788 c 0.1549278,0.08497 0.3498362,0.03248 0.4347967,-0.122436 0.087458,-0.154926 0.034986,-0.349837 -0.1199437,-0.434797 L 8.3223805,10.793754 V 8.5548033 l 1.9390915,1.1194757 -0.01249,1.284398 c -0.0025,0.114939 0.05498,0.224896 0.154929,0.284866 0.09995,0.05997 0.224895,0.06246 0.327348,0.0024 0.09996,-0.05747 0.162423,-0.167423 0.157425,-0.282367 l 0.01008,-0.922069 0.822113,0.474778 c 0.15243,0.08745 0.349837,0.03498 0.437297,-0.117444 0.08745,-0.15243 0.03498,-0.349838 -0.117439,-0.4372967 L 11.218541,9.4868496 12.010669,9.019568 C 12.158101,8.9271115 12.203078,8.7347018 12.115631,8.5872708 12.028145,8.4397987 11.838228,8.3873234 11.685799,8.4697848 L 10.581321,9.1195384 8.6422306,8.0000629 10.581321,6.8805872 11.685805,7.5327817 c 0.09996,0.06247 0.224896,0.064968 0.327347,0.00998 0.102442,-0.057474 0.167422,-0.1649224 0.164924,-0.2823675 0,-0.117445 -0.06246,-0.2248944 -0.167423,-0.279869 L 11.218523,6.513255 12.040639,6.0384776 C 12.193067,5.9510181 12.245543,5.7536109 12.158077,5.6011823 12.070623,5.4487539 11.87321,5.3962787 11.720779,5.4837359 l -0.822108,0.4747787 -0.01008,-0.922068 c 0.0049,-0.1149471 -0.05751,-0.224895 -0.157457,-0.2823682 -0.102453,-0.059972 -0.227394,-0.057473 -0.327347,0.00251 -0.09996,0.059972 -0.157426,0.1699199 -0.154926,0.2873649 l 0.0126,1.2819016 -1.939092,1.1194757 V 5.2388565 L 9.43936,4.5991563 C 9.5443107,4.5466801 9.611779,4.4392313 9.6142778,4.321786 9.6167727,4.2018422 9.554306,4.0943924 9.451854,4.0369197 9.3494021,3.9769478 9.2219617,3.9819453 9.1220085,4.0444158 L 8.3223831,4.5017017 V 3.5221606 c 0,-0.087459 -0.032484,-0.1699204 -0.094956,-0.2323912 -0.05997,-0.059972 -0.1424325,-0.094957 -0.229891,-0.092456 z m 0,0"
     fill="#222222"
     id="path1-9"
     style="fill:#3584e4;fill-opacity:1;stroke-width:0.6397" /><circle
     style="fill:#1a5fb4;fill-opacity:1;stroke:none;stroke-width:0.1;stroke-linecap:round;stroke-linejoin:round;stroke-dasharray:none;stroke-dashoffset:0;stroke-opacity:1;paint-order:normal"
     id="path150"
     cx="7.9877477"
     cy="1.0368749"
     r="1.0167224" /><circle
     style="fill:#1a5fb4;fill-opacity:1;stroke:none;stroke-width:0.1;stroke-linecap:round;stroke-linejoin:round;stroke-dasharray:none;stroke-dashoffset:0;stroke-opacity:1;paint-order:normal"
     id="path150-7"
     cx="7.9999995"
     cy="14.963125"
     r="1.0167224" /><circle
     style="opacity:1;fill:#1a5fb4;fill-opacity:1;stroke:none;stroke-width:0.1;stroke-linecap:round;stroke-linejoin:round;stroke-dasharray:none;stroke-dashoffset:0;stroke-opacity:1;paint-order:normal"
     id="path150-7-4"
     cx="12.890029"
     cy="12.929681"
     r="1.0167224" /><circle
     style="opacity:1;fill:#1a5fb4;fill-opacity:1;stroke:none;stroke-width:0.1;stroke-linecap:round;stroke-linejoin:round;stroke-dasharray:none;stroke-dashoffset:0;stroke-opacity:1;paint-order:normal"
     id="path150-7-4-2"
     cx="3.084096"
     cy="12.929681"
     r="1.0167224" /><circle
     style="fill:#1a5fb4;fill-opacity:1;stroke:none;stroke-width:0.1;stroke-linecap:round;stroke-linejoin:round;stroke-dasharray:none;stroke-dashoffset:0;stroke-opacity:1;paint-order:normal"
     id="path150-7-4-3"
     cx="12.890029"
     cy="3.0947785"
     r="1.0167224" /><circle
     style="opacity:1;fill:#1a5fb4;fill-opacity:1;stroke:none;stroke-width:0.1;stroke-linecap:round;stroke-linejoin:round;stroke-dasharray:none;stroke-dashoffset:0;stroke-opacity:1;paint-order:normal"
     id="path150-7-4-3-2"
     cx="14.950873"
     cy="8.0122299"
     r="1.0167224" /><circle
     style="opacity:1;fill:#1a5fb4;fill-opacity:1;stroke:none;stroke-width:0.1;stroke-linecap:round;stroke-linejoin:round;stroke-dasharray:none;stroke-dashoffset:0;stroke-opacity:1;paint-order:normal"
     id="path150-7-4-3-2-5"
     cx="1.049127"
     cy="8"
     r="1.0167224" /><circle
     style="fill:#1a5fb4;fill-opacity:1;stroke:none;stroke-width:0.1;stroke-linecap:round;stroke-linejoin:round;stroke-dasharray:none;stroke-dashoffset:0;stroke-opacity:1;paint-order:normal"
     id="path150-7-4-2-6"
     cx="3.084096"
     cy="3.0947785"
     r="1.0167224" /></svg>
