<?xml version="1.0" encoding="UTF-8" standalone="no"?>
<svg
   height="16px"
   viewBox="0 0 16 16"
   width="16px"
   version="1.1"
   id="svg15572"
   sodipodi:docname="effects-color-dithering.svg"
   inkscape:export-filename="/mnt/external/cloud/design/gnome/image.svg"
   inkscape:version="1.4.3 (0d15f75042, 2025-12-25)"
   xmlns:inkscape="http://www.inkscape.org/namespaces/inkscape"
   xmlns:sodipodi="http://sodipodi.sourceforge.net/DTD/sodipodi-0.dtd"
   xmlns="http://www.w3.org/2000/svg"
   xmlns:svg="http://www.w3.org/2000/svg">
  <sodipodi:namedview
     id="namedview1"
     pagecolor="#ffffff"
     bordercolor="#000000"
     borderopacity="0.25"
     inkscape:showpageshadow="2"
     inkscape:pageopacity="0.0"
     inkscape:pagecheckerboard="0"
     inkscape:deskcolor="#d1d1d1"
     showborder="false"
     inkscape:zoom="32"
     inkscape:cx="8.515625"
     inkscape:cy="6.96875"
     inkscape:window-width="2560"
     inkscape:window-height="1403"
     inkscape:window-x="0"
     inkscape:window-y="0"
     inkscape:window-maximized="1"
     inkscape:current-layer="svg15572"
     showguides="false" />
  <defs
     id="defs15576">
    <inkscape:path-effect
       effect="fillet_chamfer"
       id="path-effect50"
       is_visible="true"
       lpeversion="1"
       nodesatellites_param="F,0,0,1,0,0,0,1 | F,0,1,1,0,1.142857,0,1 @ F,0,0,1,0,0,0,1 @ F,0,0,1,0,0,0,1 @ F,0,0,1,0,1.142857,0,1"
       radius="0"
       unit="px"
       method="auto"
       mode="F"
       chamfer_steps="1"
       flexible="false"
       use_knot_distance="true"
       apply_no_radius="true"
       apply_with_radius="true"
       only_selected="false"
       hide_knots="false" />
    <inkscape:path-effect
       effect="fillet_chamfer"
       id="path-effect50-7"
       is_visible="true"
       lpeversion="1"
       nodesatellites_param="F,0,0,1,0,0,0,1 @ F,0,0,1,0,0,0,1 @ F,0,0,1,0,0,0,1 @ F,0,0,1,0,0,0,1 | F,0,0,1,0,0,0,1 @ F,0,0,1,0,0,0,1 @ F,0,0,1,0,0,0,1 @ F,0,0,1,0,0,0,1 | F,0,0,1,0,0,0,1 @ F,0,0,1,0,0,0,1 @ F,0,0,1,0,0,0,1 @ F,0,0,1,0,0,0,1 | F,0,0,1,0,0,0,1 @ F,0,0,1,0,0,0,1 @ F,0,0,1,0,0,0,1 @ F,0,0,1,0,0,0,1 | F,0,0,1,0,0,0,1 @ F,0,0,1,0,0,0,1 @ F,0,0,1,0,0,0,1 @ F,0,0,1,0,0,0,1 | F,0,0,1,0,0,0,1 @ F,0,0,1,0,0,0,1 @ F,0,0,1,0,0,0,1 @ F,0,0,1,0,0,0,1 | F,0,0,1,0,0,0,1 @ F,0,0,1,0,0,0,1 @ F,0,0,1,0,0,0,1 @ F,0,0,1,0,0,0,1 | F,0,0,1,0,0,0,1 @ F,0,0,1,0,0,0,1 @ F,0,0,1,0,0,0,1 @ F,0,0,1,0,0,0,1 | F,0,0,1,0,0,0,1 @ F,0,0,1,0,0,0,1 @ F,0,0,1,0,0,0,1 @ F,0,0,1,0,0,0,1 | F,0,0,1,0,0,0,1 @ F,0,0,1,0,0,0,1 @ F,0,0,1,0,0,0,1 @ F,0,0,1,0,0,0,1 | F,0,1,1,0,1.142857,0,1 @ F,0,0,1,0,0,0,1 @ F,0,0,1,0,0,0,1 @ F,0,0,1,0,1.142857,0,1 | "
       radius="0"
       unit="px"
       method="auto"
       mode="F"
       chamfer_steps="1"
       flexible="false"
       use_knot_distance="true"
       apply_no_radius="true"
       apply_with_radius="true"
       only_selected="false"
       hide_knots="false" />
  </defs>
  <inkscape:templateinfo>
    <inkscape:name>morewaita-symbolic</inkscape:name>
    <inkscape:date>2025-09-24</inkscape:date>
  </inkscape:templateinfo>
  <path
     style="baseline-shift:baseline;display:inline;overflow:visible;opacity:1;vector-effect:none;stroke-width:0.933242;enable-background:accumulate;stop-color:#000000;stop-opacity:1"
     d="M 8,2.9389554e-6 C 5.9450664,2.929623e-6 4.267032,1.6780376 4.267032,3.732971 c 0,2.0549334 1.6780344,3.732968 3.732968,3.732968 2.054934,0 3.732968,-1.6780345 3.732968,-3.732968 C 11.732968,1.6780375 10.054934,2.929623e-6 8,2.9389554e-6 Z M 8,7.465939 H 6.3996357 c -2.9444945,0 -5.3315094,2.3888376 -5.3315094,5.333332 v 1.600365 c 0,0.711039 0.4336884,1.213881 0.8275232,1.410799 C 2.2894842,16.007352 2.6666677,16 2.6666678,16 H 13.333332 c 0,0 0.377184,0.0074 0.771019,-0.189565 0.393835,-0.196918 0.827522,-0.69976 0.827522,-1.410799 v -1.600365 c 0,-2.9444944 -2.387014,-5.333332 -5.3315087,-5.333332 z M 8,1.0681276 c 1.4780541,0 2.666666,1.1867892 2.666666,2.6648434 0,1.4780541 -1.1886119,2.6666661 -2.666666,2.666666 -1.4780543,0 -2.6666662,-1.1886118 -2.6666662,-2.666666 C 5.3333338,2.2549168 6.5219457,1.0681276 8,1.0681276 Z m -1.6003643,7.465936 h 3.2007286 c 2.3716527,0 4.2652077,1.8935554 4.2652077,4.2652074 v 1.600365 c 0,0.355521 -0.09933,0.38596 -0.238779,0.455684 -0.139447,0.06972 -0.293461,0.07655 -0.293461,0.07655 H 2.6666678 c 0,0 -0.1540145,-0.0068 -0.2934609,-0.07655 C 2.2337605,14.7856 2.1344282,14.755157 2.1344281,14.399636 v -1.600365 c 0,-2.371652 1.8935547,-4.2652074 4.2652076,-4.2652074 z"
     id="path1" />
  <path
     d="M 4.7768789,15.465937 A 0.5355765,0.5355765 0 0 0 5.3127632,14.930052 0.5355765,0.5355765 0 0 0 4.7768789,14.394168 0.5355765,0.5355765 0 0 0 4.2409936,14.930052 0.5355765,0.5355765 0 0 0 4.7768789,15.465937 Z"
     style="fill:#000000;fill-opacity:1;stroke-width:0.90202;stroke-linejoin:round"
     id="path160" />
  <path
     d="M 7.4544808,14.930052 A 0.5355765,0.5355765 0 0 0 6.9185955,14.394168 0.5355765,0.5355765 0 0 0 6.3845338,14.930052 0.5355765,0.5355765 0 0 0 6.9185955,15.465937 0.5355765,0.5355765 0 0 0 7.4544808,14.930052 Z"
     style="fill:#000000;fill-opacity:1;stroke-width:0.90202;stroke-linejoin:round"
     id="path161" />
  <path
     d="m 2.6351613,14.394168 a 0.5355765,0.5355765 0 0 0 -0.5358853,0.535884 0.5355765,0.5355765 0 0 0 0.4246979,0.524949 c 0.061286,0.0087 0.1055441,0.01041 0.1239467,0.01094 a 0.5355765,0.5355765 0 0 0 0.523125,-0.535886 0.5355765,0.5355765 0 0 0 -0.5358843,-0.535884 z"
     style="fill:#000000;fill-opacity:1;stroke-width:0.90202;stroke-linejoin:round"
     id="path159" />
  <path
     d="m 9.0621358,14.394168 a 0.5355765,0.5355765 0 0 0 -0.5358844,0.535884 0.5355765,0.5355765 0 0 0 0.5340618,0.535885 0.5355765,0.5355765 0 0 1 0.00187,0 0.5355765,0.5355765 0 0 0 0.5340627,-0.535885 0.5355765,0.5355765 0 0 0 -0.5340627,-0.535884 z"
     style="fill:#000000;fill-opacity:1;stroke-width:0.90202;stroke-linejoin:round"
     id="path162" />
  <path
     d="m 11.203853,15.465937 a 0.5355765,0.5355765 0 0 0 0.535886,-0.535885 0.5355765,0.5355765 0 0 0 -0.535886,-0.535884 0.5355765,0.5355765 0 0 0 -0.535884,0.535884 0.5355765,0.5355765 0 0 0 0.535884,0.535885 z"
     style="fill:#000000;fill-opacity:1;stroke-width:0.90202;stroke-linejoin:round"
     id="path163" />
  <path
     d="m 13.881456,14.930052 a 0.5355765,0.5355765 0 0 0 -0.535885,-0.535884 0.5355765,0.5355765 0 0 0 -0.535884,0.535884 0.5355765,0.5355765 0 0 0 0.523125,0.535885 c 0.0184,-5.33e-4 0.06266,-0.0022 0.123946,-0.01094 a 0.5355765,0.5355765 0 0 0 0.424698,-0.524949 z"
     style="fill:#000000;fill-opacity:1;stroke-width:0.90202;stroke-linejoin:round"
     id="path164" />
  <path
     d="M 3.7051083,14.394168 A 0.5355765,0.5355765 0 0 0 4.2409936,13.860105 0.5355765,0.5355765 0 0 0 3.7051083,13.32422 0.5355765,0.5355765 0 0 0 3.1710456,13.860105 0.5355765,0.5355765 0 0 0 3.7051083,14.394168 Z"
     style="fill:#000000;fill-opacity:1;stroke-width:0.90202;stroke-linejoin:round"
     id="path157" />
  <path
     d="M 6.3845338,13.860105 A 0.5355765,0.5355765 0 0 0 5.8486485,13.32422 0.5355765,0.5355765 0 0 0 5.3127632,13.860105 0.5355765,0.5355765 0 0 0 5.8486485,14.394168 0.5355765,0.5355765 0 0 0 6.3845338,13.860105 Z"
     style="fill:#000000;fill-opacity:1;stroke-width:0.90202;stroke-linejoin:round"
     id="path156" />
  <path
     d="m 1.5907319,13.32422 v 1.069948 A 0.5355765,0.5355765 0 0 0 2.099276,13.860105 0.5355765,0.5355765 0 0 0 1.5907319,13.32422 Z"
     style="fill:#000000;fill-opacity:1;stroke-width:0.90202;stroke-linejoin:round"
     id="path158" />
  <path
     d="m 10.132084,14.394168 a 0.5355765,0.5355765 0 0 0 0.535885,-0.534063 0.5355765,0.5355765 0 0 0 -0.535885,-0.535885 0.5355765,0.5355765 0 0 0 -0.5358856,0.535885 0.5355765,0.5355765 0 0 0 0.5358856,0.534063 z"
     style="fill:#000000;fill-opacity:1;stroke-width:0.90202;stroke-linejoin:round"
     id="path154" />
  <path
     d="m 12.809687,13.860105 a 0.5355765,0.5355765 0 0 0 -0.534063,-0.535885 0.5355765,0.5355765 0 0 0 -0.535885,0.535885 0.5355765,0.5355765 0 0 0 0.535885,0.534063 0.5355765,0.5355765 0 0 0 0.534063,-0.534063 z"
     style="fill:#000000;fill-opacity:1;stroke-width:0.90202;stroke-linejoin:round"
     id="path153" />
  <path
     d="m 7.9903661,13.32422 a 0.5355765,0.5355765 0 0 0 -0.5358853,0.534062 0.5355765,0.5355765 0 0 1 0,0.0019 0.5355765,0.5355765 0 0 0 0.5358853,0.534019 0.5355765,0.5355765 0 0 0 0.5358853,-0.534063 0.5355765,0.5355765 0 0 0 -0.5358853,-0.535885 z"
     style="fill:#000000;fill-opacity:1;stroke-width:0.90202;stroke-linejoin:round"
     id="path155" />
  <path
     d="M 13.881456,13.860105 A 0.5355765,0.5355765 0 0 0 14.39,14.394168 V 13.32422 a 0.5355765,0.5355765 0 0 0 -0.508544,0.535885 z"
     style="fill:#000000;fill-opacity:1;stroke-width:0.90202;stroke-linejoin:round"
     id="path152" />
  <path
     d="M 5.3127632,12.788334 A 0.5355765,0.5355765 0 0 0 4.7768789,12.25245 0.5355765,0.5355765 0 0 0 4.2409936,12.788334 0.5355765,0.5355765 0 0 0 4.7768789,13.32422 0.5355765,0.5355765 0 0 0 5.3127632,12.788334 Z"
     style="fill:#000000;fill-opacity:1;stroke-width:0.90202;stroke-linejoin:round"
     id="path147" />
  <path
     d="M 6.9185955,12.25245 A 0.5355765,0.5355765 0 0 0 6.3845338,12.788334 0.5355765,0.5355765 0 0 0 6.9185955,13.32422 0.5355765,0.5355765 0 0 0 7.4544808,12.788334 0.5355765,0.5355765 0 0 0 6.9185955,12.25245 Z"
     style="fill:#000000;fill-opacity:1;stroke-width:0.90202;stroke-linejoin:round"
     id="path148" />
  <path
     d="M 2.6351613,13.32422 A 0.5355765,0.5355765 0 0 0 3.1710456,12.788334 0.5355765,0.5355765 0 0 0 2.6351613,12.25245 0.5355765,0.5355765 0 0 0 2.099276,12.788334 0.5355765,0.5355765 0 0 0 2.6351613,13.32422 Z"
     style="fill:#000000;fill-opacity:1;stroke-width:0.90202;stroke-linejoin:round"
     id="path146" />
  <path
     d="M 9.0621358,13.32422 A 0.5355765,0.5355765 0 0 0 9.5961984,12.788334 0.5355765,0.5355765 0 0 0 9.0621358,12.25245 0.5355765,0.5355765 0 0 0 8.5262514,12.788334 0.5355765,0.5355765 0 0 0 9.0621358,13.32422 Z"
     style="fill:#000000;fill-opacity:1;stroke-width:0.90202;stroke-linejoin:round"
     id="path149" />
  <path
     d="m 11.739739,12.788334 a 0.5355765,0.5355765 0 0 0 -0.535886,-0.535884 0.5355765,0.5355765 0 0 0 -0.535884,0.535884 0.5355765,0.5355765 0 0 0 0.535884,0.535886 0.5355765,0.5355765 0 0 0 0.535886,-0.535886 z"
     style="fill:#000000;fill-opacity:1;stroke-width:0.90202;stroke-linejoin:round"
     id="path150" />
  <path
     d="m 13.345571,12.25245 a 0.5355765,0.5355765 0 0 0 -0.535884,0.535884 0.5355765,0.5355765 0 0 0 0.535884,0.535886 0.5355765,0.5355765 0 0 0 0.535885,-0.535886 0.5355765,0.5355765 0 0 0 -0.535885,-0.535884 z"
     style="fill:#000000;fill-opacity:1;stroke-width:0.90202;stroke-linejoin:round"
     id="path151" />
  <path
     d="M 4.2409936,11.716565 A 0.5355765,0.5355765 0 0 0 3.7051083,11.180679 0.5355765,0.5355765 0 0 0 3.1710456,11.716565 0.5355765,0.5355765 0 0 0 3.7051083,12.25245 0.5355765,0.5355765 0 0 0 4.2409936,11.716565 Z"
     style="fill:#000000;fill-opacity:1;stroke-width:0.90202;stroke-linejoin:round"
     id="path144" />
  <path
     d="M 5.8486485,11.180679 A 0.5355765,0.5355765 0 0 0 5.3127632,11.716565 0.5355765,0.5355765 0 0 0 5.8486485,12.25245 0.5355765,0.5355765 0 0 0 6.3845338,11.716565 0.5355765,0.5355765 0 0 0 5.8486485,11.180679 Z"
     style="fill:#000000;fill-opacity:1;stroke-width:0.90202;stroke-linejoin:round"
     id="path143" />
  <path
     d="M 1.8422695,11.259058 C 1.7357605,11.575382 1.6604954,11.90643 1.6217183,12.248804 A 0.5355765,0.5355765 0 0 0 2.099276,11.716565 0.5355765,0.5355765 0 0 0 1.8422695,11.259058 Z"
     style="fill:#000000;fill-opacity:1;stroke-width:0.90202;stroke-linejoin:round"
     id="path145" />
  <path
     d="m 10.667969,11.716565 a 0.5355765,0.5355765 0 0 0 -0.535885,-0.535886 0.5355765,0.5355765 0 0 0 -0.5358856,0.535886 0.5355765,0.5355765 0 0 0 0.5358856,0.535885 0.5355765,0.5355765 0 0 0 0.535885,-0.535885 z"
     style="fill:#000000;fill-opacity:1;stroke-width:0.90202;stroke-linejoin:round"
     id="path141" />
  <path
     d="m 12.275624,11.180679 a 0.5355765,0.5355765 0 0 0 -0.535885,0.535886 0.5355765,0.5355765 0 0 0 0.535885,0.535885 0.5355765,0.5355765 0 0 0 0.534063,-0.535885 0.5355765,0.5355765 0 0 0 -0.534063,-0.535886 z"
     style="fill:#000000;fill-opacity:1;stroke-width:0.90202;stroke-linejoin:round"
     id="path139" />
  <path
     d="M 7.9903661,12.25245 A 0.5355765,0.5355765 0 0 0 8.5262514,11.716565 0.5355765,0.5355765 0 0 0 7.9903661,11.180679 0.5355765,0.5355765 0 0 0 7.4544808,11.716565 0.5355765,0.5355765 0 0 0 7.9903661,12.25245 Z"
     style="fill:#000000;fill-opacity:1;stroke-width:0.90202;stroke-linejoin:round"
     id="path142" />
  <path
     d="m 14.359014,12.248804 c -0.03878,-0.342373 -0.114042,-0.673422 -0.220551,-0.989746 a 0.5355765,0.5355765 0 0 0 -0.257007,0.457507 0.5355765,0.5355765 0 0 0 0.477558,0.532239 z"
     style="fill:#000000;fill-opacity:1;stroke-width:0.90202;stroke-linejoin:round"
     id="path140" />
  <path
     d="M 4.7768789,10.110732 A 0.5355765,0.5355765 0 0 0 4.2409936,10.646618 0.5355765,0.5355765 0 0 0 4.7768789,11.180679 0.5355765,0.5355765 0 0 0 5.3127632,10.646618 0.5355765,0.5355765 0 0 0 4.7768789,10.110732 Z"
     style="fill:#000000;fill-opacity:1;stroke-width:0.90202;stroke-linejoin:round"
     id="path134" />
  <path
     d="M 6.9185955,11.180679 A 0.5355765,0.5355765 0 0 0 7.4544808,10.646618 0.5355765,0.5355765 0 0 0 6.9185955,10.110732 0.5355765,0.5355765 0 0 0 6.3845338,10.646618 0.5355765,0.5355765 0 0 0 6.9185955,11.180679 Z"
     style="fill:#000000;fill-opacity:1;stroke-width:0.90202;stroke-linejoin:round"
     id="path135" />
  <path
     d="M 3.1710456,10.646618 A 0.5355765,0.5355765 0 0 0 2.6351613,10.110732 0.5355765,0.5355765 0 0 0 2.3599277,10.185462 C 2.2647147,10.332299 2.1782721,10.48556 2.099276,10.642969 a 0.5355765,0.5355765 0 0 1 0,0.0036 0.5355765,0.5355765 0 0 0 0.5358853,0.534062 0.5355765,0.5355765 0 0 0 0.5358843,-0.534062 z"
     style="fill:#000000;fill-opacity:1;stroke-width:0.90202;stroke-linejoin:round"
     id="path133" />
  <path
     d="M 9.5961984,10.646618 A 0.5355765,0.5355765 0 0 0 9.0621358,10.110732 0.5355765,0.5355765 0 0 0 8.5262514,10.646618 0.5355765,0.5355765 0 0 0 9.0621358,11.180679 0.5355765,0.5355765 0 0 0 9.5961984,10.646618 Z"
     style="fill:#000000;fill-opacity:1;stroke-width:0.90202;stroke-linejoin:round"
     id="path136" />
  <path
     d="m 11.203853,10.110732 a 0.5355765,0.5355765 0 0 0 -0.535884,0.535886 0.5355765,0.5355765 0 0 0 0.535884,0.534061 0.5355765,0.5355765 0 0 0 0.535886,-0.534061 0.5355765,0.5355765 0 0 0 -0.535886,-0.535886 z"
     style="fill:#000000;fill-opacity:1;stroke-width:0.90202;stroke-linejoin:round"
     id="path137" />
  <path
     d="m 13.345571,11.180679 a 0.5355765,0.5355765 0 0 0 0.535885,-0.534061 0.5355765,0.5355765 0 0 1 0,-0.0036 c -0.079,-0.15741 -0.165438,-0.310671 -0.260651,-0.457507 a 0.5355765,0.5355765 0 0 0 -0.275234,-0.07473 0.5355765,0.5355765 0 0 0 -0.535884,0.535885 0.5355765,0.5355765 0 0 0 0.535884,0.534062 z"
     style="fill:#000000;fill-opacity:1;stroke-width:0.90202;stroke-linejoin:round"
     id="path138" />
  <path
     d="M 3.7051083,9.0389622 A 0.5355765,0.5355765 0 0 0 3.1710456,9.5748472 0.5355765,0.5355765 0 0 0 3.7051083,10.110732 0.5355765,0.5355765 0 0 0 4.2409936,9.5748472 0.5355765,0.5355765 0 0 0 3.7051083,9.0389622 Z"
     style="fill:#000000;fill-opacity:1;stroke-width:0.90202;stroke-linejoin:round"
     id="path132" />
  <path
     d="M 5.8486485,10.110732 A 0.5355765,0.5355765 0 0 0 6.3845338,9.5748472 0.5355765,0.5355765 0 0 0 5.8486485,9.0389622 0.5355765,0.5355765 0 0 0 5.3127632,9.5748472 0.5355765,0.5355765 0 0 0 5.8486485,10.110732 Z"
     style="fill:#000000;fill-opacity:1;stroke-width:0.90202;stroke-linejoin:round"
     id="path131" />
  <path
     d="M 10.132084,9.0389622 A 0.5355765,0.5355765 0 0 0 9.5961984,9.5748472 0.5355765,0.5355765 0 0 0 10.132084,10.110732 0.5355765,0.5355765 0 0 0 10.667969,9.5748472 0.5355765,0.5355765 0 0 0 10.132084,9.0389622 Z"
     style="fill:#000000;fill-opacity:1;stroke-width:0.90202;stroke-linejoin:round"
     id="path129" />
  <path
     d="m 12.275624,10.110732 a 0.5355765,0.5355765 0 0 0 0.534063,-0.5358848 0.5355765,0.5355765 0 0 0 -0.534063,-0.535885 0.5355765,0.5355765 0 0 0 -0.535885,0.535885 0.5355765,0.5355765 0 0 0 0.535885,0.5358848 z"
     style="fill:#000000;fill-opacity:1;stroke-width:0.90202;stroke-linejoin:round"
     id="path128" />
  <path
     d="M 8.5262514,9.5748472 A 0.5355765,0.5355765 0 0 0 7.9903661,9.0389622 0.5355765,0.5355765 0 0 0 7.4544808,9.5748472 0.5355765,0.5355765 0 0 0 7.9903661,10.110732 0.5355765,0.5355765 0 0 0 8.5262514,9.5748472 Z"
     style="fill:#000000;fill-opacity:1;stroke-width:0.90202;stroke-linejoin:round"
     id="path130" />
  <path
     d="M 4.7768789,9.0389622 A 0.5355765,0.5355765 0 0 0 5.3127632,8.5030771 0.5355765,0.5355765 0 0 0 5.1815261,8.1531113 C 4.8530333,8.2378189 4.5379605,8.3547521 4.2409936,8.5030771 a 0.5355765,0.5355765 0 0 0 0.5358853,0.5358851 z"
     style="fill:#000000;fill-opacity:1;stroke-width:0.90202;stroke-linejoin:round"
     id="path124" />
  <path
     d="M 7.4544808,8.5030771 A 0.5355765,0.5355765 0 0 0 7.1026925,8.0000013 H 6.7363222 A 0.5355765,0.5355765 0 0 0 6.3845338,8.5030771 0.5355765,0.5355765 0 0 0 6.9185955,9.0389622 0.5355765,0.5355765 0 0 0 7.4544808,8.5030771 Z"
     style="fill:#000000;fill-opacity:1;stroke-width:0.90202;stroke-linejoin:round"
     id="path125" />
  <path
     d="M 9.2444101,8.0000013 H 8.8780398 A 0.5355765,0.5355765 0 0 0 8.5262514,8.5030771 0.5355765,0.5355765 0 0 0 9.0621358,9.0389622 0.5355765,0.5355765 0 0 0 9.5961984,8.5030771 0.5355765,0.5355765 0 0 0 9.2444101,8.0000013 Z"
     style="fill:#000000;fill-opacity:1;stroke-width:0.90202;stroke-linejoin:round"
     id="path126" />
  <path
     d="M 11.203853,9.0389622 A 0.5355765,0.5355765 0 0 0 11.739739,8.5030771 C 11.442772,8.3547519 11.127699,8.2378186 10.799206,8.1531113 a 0.5355765,0.5355765 0 0 0 -0.131237,0.3499658 0.5355765,0.5355765 0 0 0 0.535884,0.5358851 z"
     style="fill:#000000;fill-opacity:1;stroke-width:0.90202;stroke-linejoin:round"
     id="path127" />
  <path
     d="m 6.9185955,5.8254745 a 0.5355765,0.5355765 0 0 0 -0.5340617,0.535885 0.5355765,0.5355765 0 0 0 0.021875,0.1531101 c 0.2399571,0.137107 0.4991828,0.243743 0.772841,0.3153337 A 0.5355765,0.5355765 0 0 0 7.4544808,6.3613595 0.5355765,0.5355765 0 0 0 6.9185955,5.8254745 Z"
     style="fill:#000000;fill-opacity:1;stroke-width:0.90202;stroke-linejoin:round"
     id="path122" />
  <path
     d="M 8.801485,6.8298033 C 9.0751424,6.7582124 9.334369,6.6515766 9.5743261,6.5144696 A 0.5355765,0.5355765 0 0 0 9.5962012,6.3613595 0.5355765,0.5355765 0 0 0 9.0621386,5.8254745 0.5355765,0.5355765 0 0 0 8.5262542,6.3613595 0.5355765,0.5355765 0 0 0 8.8014878,6.8298033 Z"
     style="fill:#000000;fill-opacity:1;stroke-width:0.90202;stroke-linejoin:round"
     id="path123" />
  <path
     d="M 5.8486485,4.7537044 A 0.5355765,0.5355765 0 0 0 5.3127632,5.2895894 0.5355765,0.5355765 0 0 0 5.8486485,5.8254745 0.5355765,0.5355765 0 0 0 6.3845338,5.2895894 0.5355765,0.5355765 0 0 0 5.8486485,4.7537044 Z"
     style="fill:#000000;fill-opacity:1;stroke-width:0.90202;stroke-linejoin:round"
     id="path121" />
  <path
     d="M 9.5961984,5.2895894 A 0.5355765,0.5355765 0 0 0 10.132084,5.8254745 0.5355765,0.5355765 0 0 0 10.667969,5.2895894 0.5355765,0.5355765 0 0 0 10.132084,4.7537044 0.5355765,0.5355765 0 0 0 9.5961984,5.2895894 Z"
     style="fill:#000000;fill-opacity:1;stroke-width:0.90202;stroke-linejoin:round"
     id="path119" />
  <path
     d="M 7.9903661,5.8254745 A 0.5355765,0.5355765 0 0 0 8.5262514,5.2895894 0.5355765,0.5355765 0 0 0 7.9903661,4.7537044 0.5355765,0.5355765 0 0 0 7.4544808,5.2895894 0.5355765,0.5355765 0 0 0 7.9903661,5.8254745 Z"
     style="fill:#000000;fill-opacity:1;stroke-width:0.90202;stroke-linejoin:round"
     id="path120" />
  <path
     d="m 4.7914608,3.683757 c -2.585e-4,0.016741 0,0.032412 0,0.049214 0,0.3464755 0.054781,0.68086 0.1567548,0.9933923 A 0.5355765,0.5355765 0 0 0 5.3127632,4.2196421 0.5355765,0.5355765 0 0 0 4.7914608,3.683757 Z"
     style="fill:#000000;fill-opacity:1;stroke-width:0.90202;stroke-linejoin:round"
     id="path115" />
  <path
     d="M 6.9185955,4.7537044 A 0.5355765,0.5355765 0 0 0 7.4544808,4.2196421 0.5355765,0.5355765 0 0 0 6.9185955,3.683757 0.5355765,0.5355765 0 0 0 6.3845338,4.2196421 0.5355765,0.5355765 0 0 0 6.9185955,4.7537044 Z"
     style="fill:#000000;fill-opacity:1;stroke-width:0.90202;stroke-linejoin:round"
     id="path116" />
  <path
     d="M 8.5262514,4.2196421 A 0.5355765,0.5355765 0 0 0 9.0621358,4.7537044 0.5355765,0.5355765 0 0 0 9.5961984,4.2196421 0.5355765,0.5355765 0 0 0 9.0621358,3.683757 0.5355765,0.5355765 0 0 0 8.5262514,4.2196421 Z"
     style="fill:#000000;fill-opacity:1;stroke-width:0.90202;stroke-linejoin:round"
     id="path117" />
  <path
     d="m 11.032517,4.7263633 c 0.10197,-0.3125325 0.156754,-0.6469166 0.156754,-0.9933923 0,-0.016801 2.59e-4,-0.032474 0,-0.049214 a 0.5355765,0.5355765 0 0 0 -0.521302,0.5358851 0.5355765,0.5355765 0 0 0 0.364548,0.5067212 z"
     style="fill:#000000;fill-opacity:1;stroke-width:0.90202;stroke-linejoin:round"
     id="path118" />
  <path
     d="M 5.8486485,3.683757 A 0.5355765,0.5355765 0 0 0 6.3845338,3.147872 0.5355765,0.5355765 0 0 0 5.8486485,2.6119869 0.5355765,0.5355765 0 0 0 5.3127632,3.147872 0.5355765,0.5355765 0 0 0 5.8486485,3.683757 Z"
     style="fill:#000000;fill-opacity:1;stroke-width:0.90202;stroke-linejoin:round"
     id="path114" />
  <path
     d="M 10.132084,3.683757 A 0.5355765,0.5355765 0 0 0 10.667969,3.147872 0.5355765,0.5355765 0 0 0 10.132084,2.6119869 0.5355765,0.5355765 0 0 0 9.5961984,3.147872 0.5355765,0.5355765 0 0 0 10.132084,3.683757 Z"
     style="fill:#000000;fill-opacity:1;stroke-width:0.90202;stroke-linejoin:round"
     id="path112" />
  <path
     d="M 7.4544808,3.147872 A 0.5355765,0.5355765 0 0 0 7.9903661,3.683757 0.5355765,0.5355765 0 0 0 8.5262514,3.147872 0.5355765,0.5355765 0 0 0 7.9903661,2.6119869 0.5355765,0.5355765 0 0 0 7.4544808,3.147872 Z"
     style="fill:#000000;fill-opacity:1;stroke-width:0.90202;stroke-linejoin:round"
     id="path113" />
  <path
     d="M 6.3845338,2.0761018 A 0.5355765,0.5355765 0 0 0 6.9185955,2.6119869 0.5355765,0.5355765 0 0 0 7.4544808,2.0761018 0.5355765,0.5355765 0 0 0 6.9185955,1.5402168 0.5355765,0.5355765 0 0 0 6.3845338,2.0761018 Z"
     style="fill:#000000;fill-opacity:1;stroke-width:0.90202;stroke-linejoin:round"
     id="path110" />
  <path
     d="m 9.0621358,1.5402168 a 0.5355765,0.5355765 0 0 0 -0.5358844,0.535885 0.5355765,0.5355765 0 0 0 0.5358844,0.5358851 0.5355765,0.5355765 0 0 0 0.5340626,-0.5340623 0.5355765,0.5355765 0 0 1 0,-0.00182 0.5355765,0.5355765 0 0 0 -0.5340626,-0.5358878 z"
     style="fill:#000000;fill-opacity:1;stroke-width:0.90202;stroke-linejoin:round"
     id="path111" />
  <path
     d="M 5.6846023,1.5146984 A 0.5355765,0.5355765 0 0 0 5.8486485,1.540217 0.5355765,0.5355765 0 0 0 6.3845338,1.0061547 0.5355765,0.5355765 0 0 0 6.3826673,0.96787721 C 6.1252325,1.1178964 5.8898717,1.3013717 5.6845584,1.5146987 Z"
     style="fill:#000000;fill-opacity:1;stroke-width:0.90202;stroke-linejoin:round"
     id="path108" />
  <path
     d="M 10.132084,1.5402168 A 0.5355765,0.5355765 0 0 0 10.29613,1.5146982 C 10.090816,1.3013713 9.8554559,1.1178962 9.5980211,0.967877 a 0.5355765,0.5355765 0 0 0 -0.00187,0.0364548 0.5355765,0.5355765 0 0 1 0,0.00182 0.5355765,0.5355765 0 0 0 0.5358859,0.5340623 z"
     style="fill:#000000;fill-opacity:1;stroke-width:0.90202;stroke-linejoin:round"
     id="path109" />
  <path
     d="m 8.2655997,0.54500172 c -0.09061,-0.007718 -0.1826336,-0.0109364 -0.2752336,-0.0109364 -0.0926,0 -0.1846232,0.003219 -0.2752336,0.0109365 A 0.5355765,0.5355765 0 0 0 7.4544808,1.0061545 0.5355765,0.5355765 0 0 0 7.9903661,1.5402168 0.5355765,0.5355765 0 0 0 8.5262514,1.0061545 0.5355765,0.5355765 0 0 0 8.2655997,0.54500172 Z"
     style="fill:#000000;fill-opacity:1;stroke-width:0.90202;stroke-linejoin:round"
     id="path107" />
</svg>
