<?xml version="1.0" encoding="UTF-8" standalone="no"?>
<svg
   height="16px"
   viewBox="0 0 16 16"
   width="16px"
   version="1.1"
   id="svg15572"
   sodipodi:docname="image-flatten-symbolic.svg"
   inkscape:export-filename="/mnt/external/cloud/design/gnome/image.svg"
   inkscape:version="1.4.4 (dcaf3e7d9e, 2026-05-05)"
   xmlns:inkscape="http://www.inkscape.org/namespaces/inkscape"
   xmlns:sodipodi="http://sodipodi.sourceforge.net/DTD/sodipodi-0.dtd"
   xmlns="http://www.w3.org/2000/svg"
   xmlns:svg="http://www.w3.org/2000/svg">
  <sodipodi:namedview
     id="namedview1"
     pagecolor="#ffffff"
     bordercolor="#000000"
     borderopacity="0.25"
     inkscape:showpageshadow="2"
     inkscape:pageopacity="0.0"
     inkscape:pagecheckerboard="0"
     inkscape:deskcolor="#d1d1d1"
     showborder="false"
     inkscape:zoom="13.214058"
     inkscape:cx="-20.924685"
     inkscape:cy="25.124757"
     inkscape:window-width="2560"
     inkscape:window-height="1403"
     inkscape:window-x="0"
     inkscape:window-y="0"
     inkscape:window-maximized="1"
     inkscape:current-layer="svg15572" />
  <defs
     id="defs15576" />
  <inkscape:templateinfo>
    <inkscape:name>morewaita-symbolic</inkscape:name>
    <inkscape:date>2025-09-24</inkscape:date>
  </inkscape:templateinfo>
  <path
     id="path2"
     style="fill:#000000;fill-opacity:1;stroke-width:0.543046"
     d="M 1.6283962,0 C 0.72897413,0 0,0.7289741 0,1.6283962 v 4.887598 c 0,0.899422 0.72897413,1.630806 1.6283962,1.630804 h 0.5444047 v 0.541997 c 0,0.899422 0.728974,1.6283958 1.6283961,1.6283958 h 3.2592014 c 0.8994221,0 1.6283962,-0.7289738 1.6283962,-1.6283958 v -3.259202 c 0,-0.492137 -0.1941059,-0.962535 -0.5419957,-1.310425 L 7.4434087,3.4181872 6.7424275,2.7147972 c -0.00527,-0.0052 -0.011532,-0.0093 -0.016862,-0.01446 L 5.9884512,1.9632292 5.973998,1.9463671 5.2706078,1.2453858 4.5696266,0.5419957 C 4.2217375,0.1941062 3.7513378,0 3.2592012,0 Z m 0,1.0864005 h 1.630805 v 1.1779377 c -0.6326124,0.223757 -1.0864002,0.827826 -1.0864003,1.53686 v 3.259201 H 1.6283962 c -0.3054642,0 -0.5419958,-0.23894 -0.5419958,-0.544405 v -4.887598 c 0,-0.3054642 0.2365316,-0.5419957 0.5419958,-0.5419957 z M 3.801197,3.2592012 h 1.6283964 v 2.170392 h 1.0864002 1.0864005 v 3.259202 c 0,0.305465 -0.2365316,0.541996 -0.5419957,0.541996 H 3.801197 c -0.305464,0 -0.5419958,-0.236531 -0.5419958,-0.541996 v -0.541997 -1.086399 -3.259201 c 0,-0.305465 0.2365318,-0.541997 0.5419958,-0.541997 z" />
  <path
     d="m 11.200267,8.000445 c -0.883284,0 -1.5999114,0.7166269 -1.5999114,1.5999111 V 14.400089 C 9.6003556,15.283373 10.316983,16 11.200267,16 h 3.199822 C 15.283373,16 16,15.283373 16,14.400089 V 11.200267 C 16,10.716961 15.808344,10.254486 15.466696,9.9128392 L 14.087606,8.5337487 C 13.74596,8.1921011 13.283485,8.000445 12.800179,8.000445 Z m 0,1.066607 h 1.599912 v 2.133215 h 2.133214 v 3.199822 c 0,0.299984 -0.23332,0.533304 -0.533304,0.533304 h -3.199822 c -0.299984,0 -0.533304,-0.23332 -0.533304,-0.533304 V 9.6003561 c 0,-0.2999834 0.23332,-0.5333041 0.533304,-0.5333041 z m 0,0"
     fill="#222222"
     id="path1-3"
     style="fill:#000000;fill-opacity:1;stroke-width:0.533303" />
  <path
     d="m 14.411269,4.9190995 c -0.0015,0.1006626 -0.04357,0.19832 -0.117189,0.2704363 l -1.153861,1.1223108 c -0.14874,0.1442327 -0.386123,0.1442327 -0.536365,0 L 11.449992,5.1895358 c -0.151745,-0.1487401 -0.15475,-0.3921325 -0.0075,-0.5438772 0.14874,-0.1532474 0.392132,-0.1562521 0.543877,-0.00751 l 0.50181,0.4867855 V 3.3746077 c 0,-0.5874478 -0.554394,-1.1523592 -1.153861,-1.1538616 H 9.7957868 c -0.2118051,0 -0.3845841,-0.1727788 -0.3845841,-0.3846205 0,-0.2118416 0.172779,-0.3846205 0.3846202,-0.3846205 h 1.5384831 c 1.032165,0.0015 1.923102,0.9029567 1.923102,1.9231026 v 1.7503239 l 0.500307,-0.4867855 c 0.153248,-0.1487396 0.39664,-0.1457349 0.543878,0.00751 0.07212,0.072116 0.111179,0.1712761 0.109676,0.2734409 z m 0,0"
     fill="#222222"
     fill-rule="evenodd"
     id="path1"
     style="stroke-width:0.15;fill:#000000;fill-opacity:1;stroke:#000000;stroke-opacity:1;stroke-dasharray:none" />
</svg>
