<?xml version="1.0" encoding="UTF-8" standalone="no"?>
<svg
   height="16px"
   viewBox="0 0 16 16"
   width="16px"
   version="1.1"
   id="svg15572"
   sodipodi:docname="image-resize-symbolic-v2.svg"
   inkscape:export-filename="/mnt/external/cloud/design/gnome/image.svg"
   inkscape:version="1.4.4 (dcaf3e7d9e, 2026-05-05)"
   xmlns:inkscape="http://www.inkscape.org/namespaces/inkscape"
   xmlns:sodipodi="http://sodipodi.sourceforge.net/DTD/sodipodi-0.dtd"
   xmlns="http://www.w3.org/2000/svg"
   xmlns:svg="http://www.w3.org/2000/svg">
  <sodipodi:namedview
     id="namedview1"
     pagecolor="#ffffff"
     bordercolor="#000000"
     borderopacity="0.25"
     inkscape:showpageshadow="2"
     inkscape:pageopacity="0.0"
     inkscape:pagecheckerboard="0"
     inkscape:deskcolor="#d1d1d1"
     showborder="false"
     inkscape:zoom="13.214058"
     inkscape:cx="15.930004"
     inkscape:cy="-8.6271757"
     inkscape:window-width="2560"
     inkscape:window-height="1403"
     inkscape:window-x="0"
     inkscape:window-y="0"
     inkscape:window-maximized="1"
     inkscape:current-layer="svg15572" />
  <defs
     id="defs15576">
    <inkscape:path-effect
       effect="fillet_chamfer"
       id="path-effect14"
       is_visible="true"
       lpeversion="1"
       nodesatellites_param="F,0,1,1,0,0.31887737,0,1 @ F,0,1,1,0,0.31887737,0,1 @ F,0,1,1,0,0.31887737,0,1 @ F,0,0,1,0,0,0,1 @ F,0,0,1,0,0,0,1 @ F,0,0,1,0,0,0,1 @ F,0,0,1,0,0,0,1 @ F,0,0,1,0,0,0,1 @ F,0,0,1,0,0,0,1 @ F,0,0,1,0,0,0,1 @ F,0,0,1,0,0,0,1 @ F,0,0,1,0,0,0,1 @ F,0,0,1,0,0,0,1 @ F,0,0,1,0,0,0,1 @ F,0,0,1,0,0,0,1 @ F,0,0,1,0,0,0,1 @ F,0,0,1,0,0,0,1"
       radius="0"
       unit="px"
       method="auto"
       mode="F"
       chamfer_steps="1"
       flexible="false"
       use_knot_distance="true"
       apply_no_radius="true"
       apply_with_radius="true"
       only_selected="false"
       hide_knots="false" />
    <inkscape:path-effect
       effect="fillet_chamfer"
       id="path-effect13"
       is_visible="true"
       lpeversion="1"
       nodesatellites_param="F,0,1,1,0,0.65802975,0,1 @ F,0,1,1,0,0.65802975,0,1 @ F,0,0,1,0,0,0,1 @ F,0,0,1,0,0,0,1 @ F,0,0,1,0,0,0,1 @ F,0,0,1,0,0,0,1 @ F,0,0,1,0,0,0,1 @ F,0,0,1,0,0,0,1 @ F,0,1,1,0,0.65802975,0,1 @ F,0,0,1,0,0.65802975,0,1 @ F,0,0,1,0,0,0,1 @ F,0,0,1,0,0,0,1 @ F,0,0,1,0,0,0,1 @ F,0,0,1,0,0,0,1 @ F,0,0,1,0,0,0,1 @ F,0,0,1,0,0,0,1"
       radius="0"
       unit="px"
       method="auto"
       mode="F"
       chamfer_steps="1"
       flexible="false"
       use_knot_distance="true"
       apply_no_radius="true"
       apply_with_radius="true"
       only_selected="false"
       hide_knots="false" />
    <inkscape:path-effect
       effect="fillet_chamfer"
       id="path-effect12"
       is_visible="true"
       lpeversion="1"
       nodesatellites_param="F,0,0,1,0,0,0,1 @ F,0,0,1,0,0,0,1 @ F,0,0,1,0,0,0,1 @ F,0,0,1,0,0,0,1 @ F,0,0,1,0,0.73081626,0,1 @ F,0,1,1,0,0.73081626,0,1 @ F,0,0,1,0,0,0,1 @ F,0,0,1,0,0,0,1 @ F,0,0,1,0,0,0,1 @ F,0,0,1,0,0,0,1 @ F,0,0,1,0,0,0,1 @ F,0,0,1,0,0,0,1 @ F,0,1,1,0,0.73081626,0,1 @ F,0,1,1,0,0.73081626,0,1 @ F,0,0,1,0,0,0,1 @ F,0,0,1,0,0,0,1"
       radius="0"
       unit="px"
       method="auto"
       mode="F"
       chamfer_steps="1"
       flexible="false"
       use_knot_distance="true"
       apply_no_radius="true"
       apply_with_radius="true"
       only_selected="false"
       hide_knots="false" />
  </defs>
  <inkscape:templateinfo>
    <inkscape:name>morewaita-symbolic</inkscape:name>
    <inkscape:date>2025-09-24</inkscape:date>
  </inkscape:templateinfo>
  <path
     d="m 3.756419,3.0051352 c -0.4137584,0 -0.7512838,0.3375254 -0.7512838,0.7512838 0,0.4166933 0.3375254,0.7512837 0.7512838,0.7512837 0.4137583,0 0.7512837,-0.3345904 0.7512837,-0.7512837 0,-0.4137584 -0.3375254,-0.7512838 -0.7512837,-0.7512838 z"
     style="stroke-width:1.05675"
     id="path7" />
  <path
     d="m 6.4023437,7.5014351 0,-0.6649796 A 0.31887737,0.31887737 135 0 1 6.7212211,6.5175781 h 0.780214 A 0.31887737,0.31887737 135 0 0 7.8203125,6.1987007 V 5.9375 c 0,-0.1721655 -0.061626,-0.3393666 -0.1699219,-0.4726563 L 6.7421875,4.359375 C 6.6255594,4.2177553 6.4508518,4.140931 6.2675781,4.1464844 6.0815278,4.1520385 5.9110317,4.2434512 5.8027344,4.390625 L 4.5605469,6.1230469 c -0.072199,0.1027439 -0.1903185,0.1674504 -0.3125,0.1757812 -0.1249596,0.011108 -0.2470777,-0.03614 -0.3359375,-0.125 L 3.6210938,5.875 C 3.4905808,5.7389336 3.3051903,5.6727923 3.1191406,5.6894531 2.9330903,5.7088914 2.7629009,5.8093391 2.6601563,5.9648437 L 2.1328125,6.7539062 v 0.7109375 c 0,0.3554392 0.3554688,0.3554688 0.3554688,0.3554688 h 3.595185 A 0.31887737,0.31887737 135 0 0 6.4023437,7.5014351 Z"
     id="path6"
     inkscape:path-effect="#path-effect14"
     inkscape:original-d="M 6.4023437,7.8203125 V 6.5175781 H 7.8203125 V 5.9375 c 0,-0.1721655 -0.061626,-0.3393666 -0.1699219,-0.4726563 L 6.7421875,4.359375 C 6.6255594,4.2177553 6.4508518,4.140931 6.2675781,4.1464844 6.0815278,4.1520385 5.9110317,4.2434512 5.8027344,4.390625 L 4.5605469,6.1230469 c -0.072199,0.1027439 -0.1903185,0.1674504 -0.3125,0.1757812 -0.1249596,0.011108 -0.2470777,-0.03614 -0.3359375,-0.125 L 3.6210938,5.875 C 3.4905808,5.7389336 3.3051903,5.6727923 3.1191406,5.6894531 2.9330903,5.7088914 2.7629009,5.8093391 2.6601563,5.9648437 L 2.1328125,6.7539062 v 0.7109375 c 0,0.3554392 0.3554688,0.3554688 0.3554688,0.3554688 z"
     transform="scale(1.0567508)" />
  <path
     d="M 2.1328125,0 C 0.96375121,0 0,0.96375121 0,2.1328125 v 5.6875 C 0,8.9921512 0.96375121,9.953125 2.1328125,9.953125 H 5.6715274 A 0.73081626,0.73081626 135 0 0 6.4023437,9.2223087 0.71121536,0.71121536 43.398351 0 0 5.6715274,8.53125 H 2.1328125 C 1.7273894,8.53125 1.421875,8.2285123 1.421875,7.8203125 v -5.6875 c 0,-0.4054224 0.3055144,-0.7109375 0.7109375,-0.7109375 h 5.6875 c 0.4054231,0 0.7109375,0.3055151 0.7109375,0.7109375 V 5.7867618 A 0.73081626,0.73081626 45 0 0 9.2620663,6.5175781 0.71121536,0.71121536 133.39835 0 0 9.953125,5.7867618 V 2.1328125 C 9.953125,0.96375121 8.9893738,0 7.8203125,0 Z"
     id="path5"
     inkscape:path-effect="#path-effect12"
     inkscape:original-d="M 2.1328125,0 C 0.96375121,0 0,0.96375121 0,2.1328125 v 5.6875 C 0,8.9921512 0.96375121,9.953125 2.1328125,9.953125 H 6.4023437 V 8.53125 H 2.1328125 C 1.7273894,8.53125 1.421875,8.2285123 1.421875,7.8203125 v -5.6875 c 0,-0.4054224 0.3055144,-0.7109375 0.7109375,-0.7109375 h 5.6875 c 0.4054231,0 0.7109375,0.3055151 0.7109375,0.7109375 V 6.5175781 H 9.953125 V 2.1328125 C 9.953125,0.96375121 8.9893738,0 7.8203125,0 Z"
     transform="scale(1.0567508)" />
  <path
     d="m 13.359131,12.288713 c -0.09141,0.0028 -0.174683,0.04992 -0.227891,0.124479 l -0.610993,0.87771 c -0.03547,0.05206 -0.09272,0.08469 -0.152748,0.08891 -0.06139,0.0056 -0.12141,-0.01849 -0.165067,-0.06351 l -0.142895,-0.151153 c -0.06412,-0.06893 -0.156193,-0.102436 -0.247599,-0.09399 -0.09141,0.0098 -0.173716,0.06094 -0.224195,0.139722 l -0.25992,0.398847 v 0.360737 c 0,0.180067 0.174922,0.179099 0.174922,0.179099 h 2.445207 c 0,0 0.164139,-0.01029 0.17369,-0.179099 V 13.19691 c 0,-0.08722 -0.02933,-0.172543 -0.08253,-0.240068 l -0.445927,-0.56016 c -0.0573,-0.07175 -0.144006,-0.110779 -0.234049,-0.107966 z"
     id="path10"
     style="stroke-width:0.640449" />
  <path
     id="path11"
     style="baseline-shift:baseline;display:inline;overflow:visible;vector-effect:none;stroke-width:0.987472;enable-background:accumulate;stop-color:#000000"
     d="m 11.165429,8.8064673 a 0.64526459,0.64526459 43.855011 0 0 0.65803,0.6322417 h 2.436893 c 0.262474,0 0.449377,0.1853812 0.449377,0.4474485 v 4.3741945 c 0,0.264542 -0.186859,0.449377 -0.449377,0.449377 H 9.8861575 c -0.2625188,0 -0.4474485,-0.184431 -0.4474485,-0.449377 v -2.65953 a 0.65802975,0.65802975 45 0 0 -0.6580298,-0.65803 0.64526459,0.64526459 133.85501 0 0 -0.6322417,0.65803 v 2.65953 C 8.1484375,15.215806 8.9327265,16 9.8861575,16 H 14.260352 C 15.213782,16 16,15.215946 16,14.260352 V 9.8861575 c 0,-0.9535874 -0.786202,-1.73772 -1.739648,-1.73772 h -2.436893 a 0.65802975,0.65802975 135 0 0 -0.65803,0.6580298 z"
     sodipodi:nodetypes="ccssssssccssssssc"
     inkscape:path-effect="#path-effect13"
     inkscape:original-d="M 11.165429,8.1484375 V 9.438709 h 3.094923 c 0.262474,0 0.449377,0.1853812 0.449377,0.4474485 v 4.3741945 c 0,0.264542 -0.186859,0.449377 -0.449377,0.449377 H 9.8861575 c -0.2625188,0 -0.4474485,-0.184431 -0.4474485,-0.449377 v -3.31756 H 8.1484375 v 3.31756 C 8.1484375,15.215806 8.9327265,16 9.8861575,16 H 14.260352 C 15.213782,16 16,15.215946 16,14.260352 V 9.8861575 c 0,-0.9535874 -0.786202,-1.73772 -1.739648,-1.73772 z"
     transform="matrix(0.83614885,0,0,0.83614885,2.6216184,2.6216184)" />
  <path
     d="m 12.048029,11.629477 c -0.198356,0 -0.359468,0.161112 -0.359468,0.359467 0,0.199762 0.161112,0.360738 0.359468,0.360738 0.198355,0 0.360738,-0.160976 0.360738,-0.360738 0,-0.198355 -0.162383,-0.359467 -0.360738,-0.359467 z"
     style="fill:#000000;fill-opacity:1;stroke-width:0.0975512;stroke-linecap:round;stroke-linejoin:round"
     id="path8" />
  <path
     d="m 8.5863027,8.117882 c -0.078455,0.00308 -0.1476794,0.051535 -0.1761386,0.1246044 -0.029229,0.073071 -0.011538,0.1561403 0.043843,0.2115202 L 10.086941,10.086942 H 8.5932252 c -0.108452,0 -0.196906,0.08845 -0.196906,0.196906 0,0.108452 0.088454,0.196905 0.196906,0.196905 h 1.9690598 c 0.108452,0 0.196906,-0.08845 0.196906,-0.196905 V 8.3147879 c 0,-0.108452 -0.08845,-0.1969059 -0.196906,-0.1969059 -0.108452,0 -0.196906,0.088454 -0.196906,0.1969059 V 9.8085046 L 8.7324439,8.1755694 C 8.6939857,8.137111 8.6409135,8.1163438 8.5863027,8.117882 Z m 0,0"
     fill="#222222"
     id="path1"
     style="fill:#000000;fill-opacity:1;stroke:#000000;stroke-width:0.528375;stroke-dasharray:none;stroke-opacity:1" />
</svg>
