<?xml version="1.0" encoding="UTF-8" standalone="no"?>
<svg
   height="16px"
   viewBox="0 0 16 16"
   width="16px"
   version="1.1"
   id="svg15572"
   sodipodi:docname="image-resize-canvas-symbolic.svg"
   inkscape:export-filename="/mnt/external/cloud/design/gnome/image.svg"
   inkscape:version="1.4.4 (dcaf3e7d9e, 2026-05-05)"
   xmlns:inkscape="http://www.inkscape.org/namespaces/inkscape"
   xmlns:sodipodi="http://sodipodi.sourceforge.net/DTD/sodipodi-0.dtd"
   xmlns="http://www.w3.org/2000/svg"
   xmlns:svg="http://www.w3.org/2000/svg">
  <sodipodi:namedview
     id="namedview1"
     pagecolor="#ffffff"
     bordercolor="#000000"
     borderopacity="0.25"
     inkscape:showpageshadow="2"
     inkscape:pageopacity="0.0"
     inkscape:pagecheckerboard="0"
     inkscape:deskcolor="#d1d1d1"
     showborder="false"
     inkscape:zoom="32"
     inkscape:cx="15.171875"
     inkscape:cy="3.6875"
     inkscape:window-width="2560"
     inkscape:window-height="1403"
     inkscape:window-x="0"
     inkscape:window-y="0"
     inkscape:window-maximized="1"
     inkscape:current-layer="svg15572" />
  <defs
     id="defs15576">
    <inkscape:path-effect
       effect="fillet_chamfer"
       id="path-effect9"
       is_visible="true"
       lpeversion="1"
       nodesatellites_param="F,0,0,1,0,0,0,1 @ F,0,0,1,0,0,0,1 @ F,0,0,1,0,0,0,1 @ F,0,0,1,0,0,0,1 @ F,0,0,1,0,0,0,1 @ F,0,0,1,0,0,0,1 @ F,0,0,1,0,0,0,1 @ F,0,0,1,0,0,0,1 @ F,0,0,1,0,0,0,1 @ F,0,0,1,0,0,0,1 @ F,0,0,1,0,0,0,1 @ F,0,0,1,0,0,0,1 @ F,0,0,1,0,0,0,1 @ F,0,0,1,0,0,0,1 @ F,0,0,1,0,0,0,1 @ F,0,0,1,0,0,0,1 @ F,0,0,1,0,0,0,1 @ F,0,0,1,0,0,0,1 @ F,0,0,1,0,0,0,1 @ F,0,0,1,0,0,0,1 @ F,0,0,1,0,0,0,1 @ F,0,0,1,0,0,0,1 @ F,0,0,1,0,0,0,1 @ F,0,0,1,0,0,0,1 @ F,0,0,1,0,0,0,1 @ F,0,0,1,0,0,0,1 @ F,0,0,1,0,0,0,1 @ F,0,0,1,0,0,0,1 @ F,0,0,1,0,0,0,1 @ F,0,0,1,0,0,0,1 @ F,0,0,1,0,0,0,1 @ F,0,0,1,0,0,0,1 @ F,0,0,1,0,0,0,1 @ F,0,0,1,0,0,0,1 @ F,0,0,1,0,0,0,1 @ F,0,0,1,0,0,0,1 @ F,0,0,1,0,0,0,1 @ F,0,0,1,0,0,0,1 @ F,0,0,1,0,0,0,1 @ F,0,0,1,0,0,0,1 @ F,0,0,1,0,0,0,1 @ F,0,0,1,0,0,0,1 @ F,0,0,1,0,0,0,1 @ F,0,0,1,0,0,0,1 @ F,0,0,1,0,0,0,1 @ F,0,0,1,0,0,0,1 @ F,0,0,1,0,0,0,1 @ F,0,0,1,0,0,0,1 @ F,0,0,1,0,0,0,1 @ F,0,0,1,0,0,0,1 @ F,0,0,1,0,0,0,1 @ F,0,0,1,0,0,0,1 @ F,0,0,1,0,0,0,1 @ F,0,0,1,0,0,0,1 @ F,0,0,1,0,0,0,1 @ F,0,0,1,0,0,0,1 @ F,0,0,1,0,0,0,1 @ F,0,0,1,0,0,0,1"
       radius="0"
       unit="px"
       method="auto"
       mode="F"
       chamfer_steps="1"
       flexible="false"
       use_knot_distance="true"
       apply_no_radius="true"
       apply_with_radius="true"
       only_selected="false"
       hide_knots="false" />
    <inkscape:path-effect
       effect="simplify"
       id="path-effect1"
       is_visible="true"
       lpeversion="1.3"
       threshold="5000.000000"
       steps="1"
       smooth_angles="360"
       helper_size="0"
       simplify_individual_paths="false"
       simplify_just_coalesce="false" />
  </defs>
  <inkscape:templateinfo>
    <inkscape:name>morewaita-symbolic</inkscape:name>
    <inkscape:date>2025-09-24</inkscape:date>
  </inkscape:templateinfo>
  <path
     d="M 0,0 V 12.537109 H 6.8222656 V 11.121094 H 5.7148437 V 10.171875 H 4.6875 v 0.949219 H 3.5820313 V 10.171875 H 2.5527344 v 0.949219 H 1.4160156 V 9.984375 H 2.3652344 V 8.9550781 H 1.4160156 V 7.8496094 H 2.3652344 V 6.8222656 H 1.4160156 V 5.7148437 H 2.3652344 V 4.6875 H 1.4160156 V 3.5820313 H 2.3652344 V 2.5527344 H 1.4160156 V 1.4160156 H 2.5527344 V 2.3652344 H 3.5820313 V 1.4160156 H 4.6875 V 2.3652344 H 5.7148437 V 1.4160156 H 6.8222656 V 2.3652344 H 7.8496094 V 1.4160156 H 8.9550781 V 2.3652344 H 9.984375 V 1.4160156 h 1.136719 v 1.1367188 h -0.949219 v 1.0292969 h 0.949219 V 4.6875 h -0.949219 v 1.0273437 h 0.949219 v 1.1074219 h 1.416015 V 0 Z"
     style="baseline-shift:baseline;display:inline;overflow:visible;opacity:1;vector-effect:none;enable-background:accumulate;stop-color:#000000;stop-opacity:1"
     id="path9"
     inkscape:path-effect="#path-effect9"
     inkscape:original-d="M 0,0 V 12.537109 H 6.8222656 V 11.121094 H 5.7148437 V 10.171875 H 4.6875 v 0.949219 H 3.5820313 V 10.171875 H 2.5527344 v 0.949219 H 1.4160156 V 9.984375 H 2.3652344 V 8.9550781 H 1.4160156 V 7.8496094 H 2.3652344 V 6.8222656 H 1.4160156 V 5.7148437 H 2.3652344 V 4.6875 H 1.4160156 V 3.5820313 H 2.3652344 V 2.5527344 H 1.4160156 V 1.4160156 H 2.5527344 V 2.3652344 H 3.5820313 V 1.4160156 H 4.6875 V 2.3652344 H 5.7148437 V 1.4160156 H 6.8222656 V 2.3652344 H 7.8496094 V 1.4160156 H 8.9550781 V 2.3652344 H 9.984375 V 1.4160156 h 1.136719 v 1.1367188 h -0.949219 v 1.0292969 h 0.949219 V 4.6875 h -0.949219 v 1.0273437 h 0.949219 v 1.1074219 h 1.416015 V 0 Z" />
  <path
     id="path6"
     style="baseline-shift:baseline;display:inline;overflow:visible;vector-effect:none;stroke-width:0.581243;enable-background:accumulate;stop-color:#000000"
     d="M 8.7128906 8.7128906 L 8.7128906 11.121094 L 8.7128906 12.537109 L 8.7128906 16 L 16 16 L 16 8.7128906 L 12.537109 8.7128906 L 11.121094 8.7128906 L 8.7128906 8.7128906 z M 9.890625 9.890625 L 10.921875 9.890625 L 10.921875 10.65625 L 11.896484 10.65625 L 11.896484 9.890625 L 12.513672 9.890625 L 12.695312 9.890625 L 12.695312 10.65625 L 13.667969 10.65625 L 13.667969 9.890625 L 14.822266 9.890625 L 14.822266 10.921875 L 14.056641 10.921875 L 14.056641 11.896484 L 14.822266 11.896484 L 14.822266 12.695312 L 14.056641 12.695312 L 14.056641 13.667969 L 14.822266 13.667969 L 14.822266 14.822266 L 13.791016 14.822266 L 13.791016 14.056641 L 12.816406 14.056641 L 12.816406 14.822266 L 12.019531 14.822266 L 12.019531 14.056641 L 11.044922 14.056641 L 11.044922 14.822266 L 9.890625 14.822266 L 9.890625 13.791016 L 10.65625 13.791016 L 10.65625 12.816406 L 9.890625 12.816406 L 9.890625 12.513672 L 9.890625 12.017578 L 10.65625 12.017578 L 10.65625 11.044922 L 9.890625 11.044922 L 9.890625 9.890625 z " />
  <path
     id="path7"
     style="baseline-shift:baseline;display:inline;overflow:visible;vector-effect:none;enable-background:accumulate;stop-color:#000000"
     d="M 4.8164062 4.2988281 C 4.604438 4.3068781 4.4136711 4.4390479 4.3359375 4.6386719 C 4.2571115 4.8380948 4.3055225 5.0669048 4.4550781 5.2167969 L 6.4140625 7.1738281 L 4.8359375 7.1738281 C 4.5415793 7.1738281 4.2988281 7.4185324 4.2988281 7.7128906 C 4.2988281 8.0072488 4.5415793 8.25 4.8359375 8.25 L 7.7128906 8.25 C 8.0072488 8.25 8.25 8.0072488 8.25 7.7128906 L 8.25 4.8359375 C 8.25 4.5415793 8.0072488 4.2988281 7.7128906 4.2988281 C 7.4185324 4.2988281 7.1738281 4.5415792 7.1738281 4.8359375 L 7.1738281 6.4140625 L 5.2167969 4.4550781 C 5.1111322 4.3494135 4.9660336 4.2946664 4.8183594 4.2988281 L 4.8164062 4.2988281 z " />
</svg>
