<?xml version="1.0" encoding="UTF-8"?>
<svg width="24" height="24" version="1.1" viewBox="0 0 24 24" xmlns="http://www.w3.org/2000/svg">
 <path d="M15.5 14h-.79l-.28-.27C15.41 12.59 16 11.11 16 9.5 16 5.91 13.09 3 9.5 3S3 5.91 3 9.5 5.91 16 9.5 16c1.61 0 3.09-.59 4.23-1.57l.27.28v.79l5 4.99L20.49 19l-4.99-5zm-6 0C7.01 14 5 11.99 5 9.5S7.01 5 9.5 5 14 7.01 14 9.5 11.99 14 9.5 14z" fill="#2e3436"/>
 <path d="m22.353 21.121c0.26459-0.37588 0.48123-0.7879 0.64349-1.2329 0.85617-2.3718-0.107-5.0818-2.3473-6.5943l0.94084-1.2962-0.70804-0.47804-0.0037 0.0051c-0.18621-0.12954-0.41561-0.18256-0.63473-0.15321l-2.3569 0.34008c-0.46034 0.06642-0.75802 0.47654-0.6652 0.91643l0.47525 2.2523c0.04633 0.20863 0.17656 0.39835 0.36463 0.52533l-0.0019 0.0026 0.70804 0.47804 0.94082-1.2961c1.6069 1.0849 2.2907 3.0102 1.6774 4.7124-0.61417 1.6978-2.3714 2.7333-4.2973 2.5307-1.9241-0.20516-3.5168-1.5936-3.8983-3.4015-0.09281-0.43989-0.54088-0.7424-1.0012-0.67598-0.46034 0.06642-0.75802 0.47654-0.6652 0.91643 0.53187 2.5206 2.7757 4.4769 5.4587 4.7606 2.0134 0.21263 3.9083-0.5526 5.0884-1.9513 0.10111-0.11658 0.19484-0.23436 0.28211-0.36028z" fill="#2e3436" stroke-width=".82689"/>
</svg>
