<?xml version="1.0" encoding="UTF-8" standalone="no"?>
<svg
   height="16"
   viewBox="0 0 16 16"
   width="16"
   version="1.1"
   id="svg15572"
   xml:space="preserve"
   sodipodi:docname="text-variant-all-petite-caps-symbolic.svg"
   inkscape:version="1.4.3 (0d15f75042, 2025-12-25)"
   xmlns:inkscape="http://www.inkscape.org/namespaces/inkscape"
   xmlns:sodipodi="http://sodipodi.sourceforge.net/DTD/sodipodi-0.dtd"
   xmlns="http://www.w3.org/2000/svg"
   xmlns:svg="http://www.w3.org/2000/svg"><sodipodi:namedview
     id="namedview1"
     pagecolor="#ffffff"
     bordercolor="#000000"
     borderopacity="0.25"
     inkscape:showpageshadow="2"
     inkscape:pageopacity="0.0"
     inkscape:pagecheckerboard="0"
     inkscape:deskcolor="#d1d1d1"
     inkscape:zoom="74.75"
     inkscape:cx="7.993311"
     inkscape:cy="8"
     inkscape:window-width="2560"
     inkscape:window-height="1403"
     inkscape:window-x="0"
     inkscape:window-y="0"
     inkscape:window-maximized="1"
     inkscape:current-layer="svg15572" /><defs
     id="defs15576" /><path
     id="path7-6-6"
     style="font-weight:bold;font-size:7.40929px;font-family:'Adwaita Sans';-inkscape-font-specification:'Adwaita Sans Bold';text-align:center;letter-spacing:0px;word-spacing:0px;baseline-shift:baseline;text-anchor:middle;display:inline;overflow:visible;vector-effect:none;stroke-linecap:round;enable-background:accumulate;stop-color:#000000"
     d="m 5.0214848,7.228515 -1.638672,4.666016 h 1.232422 l 0.322265,-0.96875 h 1.492188 l 0.310547,0.96875 h 1.259765 L 6.3632808,7.228515 Z m 0.671874,1.337891 c 0.02056,0.07297 0.04203,0.1484 0.06055,0.210938 v 0.002 c 0.08992,0.295174 0.177605,0.581712 0.261719,0.861328 v 0.0059 l 0.101563,0.31836 h -0.857422 l 0.103515,-0.308594 c 0.08954,-0.284555 0.179992,-0.576494 0.269532,-0.876953 0.01896,-0.06267 0.03935,-0.139697 0.06055,-0.212891 z" /><path
     id="path7-6-5-3"
     style="font-weight:bold;font-size:7.40929px;font-family:'Adwaita Sans';-inkscape-font-specification:'Adwaita Sans Bold';text-align:center;letter-spacing:0px;word-spacing:0px;baseline-shift:baseline;text-anchor:middle;display:inline;overflow:visible;vector-effect:none;stroke-linecap:round;enable-background:accumulate;stop-color:#000000"
     d="m 9.6386718,7.228515 -1.638672,4.666016 h 1.232422 l 0.322265,-0.96875 h 1.4921882 l 0.310547,0.96875 h 1.259765 L 10.980468,7.228515 Z m 0.6718742,1.337891 c 0.02056,0.07297 0.04203,0.1484 0.06055,0.210938 v 0.002 c 0.08992,0.295174 0.177605,0.581712 0.261719,0.861328 v 0.0059 l 0.101563,0.31836 H 9.8769562 l 0.103515,-0.308594 c 0.08954,-0.284555 0.1799918,-0.576494 0.2695318,-0.876953 0.01896,-0.06267 0.03935,-0.139697 0.06055,-0.212891 z" /></svg>
