<?xml version="1.0" encoding="UTF-8" standalone="no"?>
<svg
   height="16px"
   viewBox="0 0 16 16"
   width="16px"
   version="1.1"
   id="svg1"
   sodipodi:docname="text-normal-symbolic.svg"
   xml:space="preserve"
   inkscape:version="1.4.3 (0d15f75042, 2025-12-25)"
   xmlns:inkscape="http://www.inkscape.org/namespaces/inkscape"
   xmlns:sodipodi="http://sodipodi.sourceforge.net/DTD/sodipodi-0.dtd"
   xmlns="http://www.w3.org/2000/svg"
   xmlns:svg="http://www.w3.org/2000/svg"><defs
     id="defs1"><inkscape:path-effect
       effect="fillet_chamfer"
       id="path-effect2"
       is_visible="true"
       lpeversion="1"
       nodesatellites_param="F,0,0,1,0,0,0,1 @ F,0,0,1,0,0,0,1 @ F,0,0,1,0,0,0,1 @ F,0,0,1,0,0,0,1 @ F,0,0,1,0,0,0,1 @ F,0,0,1,0,0,0,1 @ F,0,0,1,0,0,0,1 @ F,0,0,1,0,0,0,1 @ F,0,0,1,0,0,0,1 @ F,0,0,1,0,0,0,1 @ F,0,0,1,0,0,0,1 @ F,0,0,1,0,0,0,1 @ F,0,0,1,0,0,0,1 @ F,0,0,1,0,0,0,1 @ F,0,0,1,0,0,0,1 @ F,0,0,1,0,0,0,1 | F,0,0,1,0,0,0,1 @ F,0,0,1,0,0,0,1 @ F,0,0,1,0,0,0,1 @ F,0,0,1,0,0,0,1 @ F,0,0,1,0,0,0,1 @ F,0,0,1,0,0,0,1 @ F,0,0,1,0,0,0,1 @ F,0,0,1,0,0,0,1 @ F,0,0,1,0,0.17163505,0,1"
       radius="0"
       unit="px"
       method="auto"
       mode="F"
       chamfer_steps="1"
       flexible="false"
       use_knot_distance="true"
       apply_no_radius="true"
       apply_with_radius="true"
       only_selected="false"
       hide_knots="false" /></defs><sodipodi:namedview
     id="namedview1"
     pagecolor="#ffffff"
     bordercolor="#000000"
     borderopacity="0.25"
     inkscape:showpageshadow="2"
     inkscape:pageopacity="0.0"
     inkscape:pagecheckerboard="0"
     inkscape:deskcolor="#d1d1d1"
     inkscape:zoom="45.254834"
     inkscape:cx="3.6128737"
     inkscape:cy="4.9276504"
     inkscape:window-width="2560"
     inkscape:window-height="1403"
     inkscape:window-x="0"
     inkscape:window-y="0"
     inkscape:window-maximized="1"
     inkscape:current-layer="svg1" /><path
     id="path3"
     style="baseline-shift:baseline;display:inline;overflow:visible;vector-effect:none;stroke-width:1.02467;enable-background:accumulate;stop-color:#000000"
     d="m 4.9621884,3.0060671 c -0.4942766,0 -0.8956515,0.4014423 -0.8956515,0.8956512 0,0.4942091 0.4014433,0.8956512 0.8956514,0.8956512 h 5.1238227 c 0.642258,0 1.153491,0.5070907 1.15349,1.1534902 v 1.1534901 h -5.2168776 -0.03877 -0.00199 C 4.3698971,7.0660312 3.0283436,8.3265179 2.9711708,9.9463945 v 0.031017 c 0.00496,1.6707955 1.3512263,3.0165215 3.0223382,3.0165215 h 4.014921 c 1.671573,0 3.020399,-1.348825 3.020399,-3.0203977 v -4.022676 c 0,-1.6273669 -1.315466,-2.9447925 -2.942854,-2.9447925 z m 6.2773126,5.8895852 v 1.0778842 c -4e-6,0.6866135 -0.544374,1.2290955 -1.231036,1.2290955 H 5.9935448 c -0.6733922,0 -1.2128026,-0.519592 -1.2329749,-1.188385 v -0.002 -0.013569 -0.00199 -0.00387 c 0.021658,-0.4924143 0.3590144,-0.858696 0.686278,-0.9906253 0.082355,-0.033198 0.2401297,-0.045483 0.3353849,-0.046527 z" /></svg>
