<?xml version="1.0" encoding="UTF-8" standalone="no"?>
<svg
   height="16px"
   viewBox="0 0 16 16"
   width="16px"
   version="1.1"
   id="svg1"
   sodipodi:docname="text-extra-bold-symbolic.svg"
   xml:space="preserve"
   inkscape:version="1.4.3 (0d15f75042, 2025-12-25)"
   xmlns:inkscape="http://www.inkscape.org/namespaces/inkscape"
   xmlns:sodipodi="http://sodipodi.sourceforge.net/DTD/sodipodi-0.dtd"
   xmlns="http://www.w3.org/2000/svg"
   xmlns:svg="http://www.w3.org/2000/svg"><defs
     id="defs1"><inkscape:path-effect
       effect="fillet_chamfer"
       id="path-effect2"
       is_visible="true"
       lpeversion="1"
       nodesatellites_param="F,0,0,1,0,0,0,1 @ F,0,0,1,0,0,0,1 @ F,0,0,1,0,0,0,1 @ F,0,0,1,0,0,0,1 @ F,0,0,1,0,0,0,1 @ F,0,0,1,0,0,0,1 @ F,0,0,1,0,0,0,1 @ F,0,0,1,0,0,0,1 @ F,0,0,1,0,0,0,1 @ F,0,0,1,0,0,0,1 @ F,0,0,1,0,0,0,1 @ F,0,0,1,0,0,0,1 @ F,0,0,1,0,0,0,1 @ F,0,0,1,0,0,0,1 @ F,0,0,1,0,0,0,1 @ F,0,0,1,0,0,0,1 @ F,0,0,1,0,0,0,1 | F,0,0,1,0,0,0,1 @ F,0,0,1,0,0,0,1 @ F,0,0,1,0,0,0,1 @ F,0,0,1,0,0,0,1 @ F,0,0,1,0,0,0,1 @ F,0,0,1,0,0,0,1 @ F,0,0,1,0,0,0,1 @ F,0,0,1,0,0,0,1 @ F,0,0,1,0,0,0,1 @ F,0,0,1,0,0,0,1"
       radius="0"
       unit="px"
       method="auto"
       mode="F"
       chamfer_steps="1"
       flexible="false"
       use_knot_distance="true"
       apply_no_radius="true"
       apply_with_radius="true"
       only_selected="false"
       hide_knots="false" /></defs><sodipodi:namedview
     id="namedview1"
     pagecolor="#ffffff"
     bordercolor="#000000"
     borderopacity="0.25"
     inkscape:showpageshadow="2"
     inkscape:pageopacity="0.0"
     inkscape:pagecheckerboard="0"
     inkscape:deskcolor="#d1d1d1"
     inkscape:zoom="22.627417"
     inkscape:cx="20.660776"
     inkscape:cy="2.298097"
     inkscape:window-width="2560"
     inkscape:window-height="1403"
     inkscape:window-x="0"
     inkscape:window-y="0"
     inkscape:window-maximized="1"
     inkscape:current-layer="svg1" /><g
     id="path2-6-9"
     style="stroke:#000000;stroke-width:0.212903;stroke-dasharray:none;stroke-opacity:1"
     transform="matrix(0.9393937,0,0,0.9393937,14.070271,0.48884276)"><path
       id="path1"
       style="baseline-shift:baseline;display:inline;overflow:visible;vector-effect:none;stroke:none;enable-background:accumulate;stop-color:#000000"
       d="m 5.0352033,2.5422746 c -0.7993613,0 -1.4574727,0.6581114 -1.4574727,1.4574727 0,0.7993613 0.6581114,1.4574726 1.4574727,1.4574726 H 10.03552 c 0.333636,0 0.542653,0.2056828 0.542653,0.5426539 v 0.5426538 c 0,0 -3.6792551,0.025612 -5.3223232,0.025612 -1.5522655,0.040097 -2.6814697,1.4605617 -2.7467938,3.311398 l -0.00208,0.00208 v 0.00624 0.041583 C 2.511436,11.874648 4.0984738,13.45773 6.0435823,13.45773 H 9.96067 c 1.945758,0 3.532448,-1.586688 3.532448,-3.5324482 V 8.0000003 5.9998738 c 0,-1.9033939 -1.554205,-3.4575992 -3.457599,-3.4575992 z m 0.8898692,6.9131192 c 0.016939,-9.414e-4 0.038005,-7.687e-4 0.060295,0 v 0.00208 h 0.00832 0.041583 4.5429065 V 9.925278 c 0,0.374744 -0.24276,0.617503 -0.6175023,0.617503 H 6.0435831 c -0.3539696,0 -0.5681819,-0.244709 -0.590474,-0.5925534 0.029861,-0.2876087 0.1909707,-0.4792238 0.4719634,-0.4948338 z"
       inkscape:path-effect="#path-effect2"
       inkscape:original-d="m 5.0352033,2.5422746 c -0.7993613,0 -1.4574727,0.6581114 -1.4574727,1.4574727 0,0.7993613 0.6581114,1.4574726 1.4574727,1.4574726 H 10.03552 c 0.333636,0 0.542653,0.2056828 0.542653,0.5426539 v 0.5426538 c 0,0 -3.6792551,0.025612 -5.3223232,0.025612 -1.5522655,0.040097 -2.6814697,1.4605617 -2.7467938,3.311398 l -0.00208,0.00208 v 0.00624 0.041583 C 2.511436,11.874648 4.0984738,13.45773 6.0435823,13.45773 H 9.96067 c 1.945758,0 3.532448,-1.586688 3.532448,-3.5324482 V 8.0000003 5.9998738 c 0,-1.9033939 -1.554205,-3.4575992 -3.457599,-3.4575992 z m 0.8898692,6.9131192 c 0.016939,-9.414e-4 0.038005,-7.687e-4 0.060295,0 v 0.00208 h 0.00832 0.041583 4.5429065 V 9.925278 c 0,0.374744 -0.24276,0.617503 -0.6175023,0.617503 H 6.0435831 c -0.3539696,0 -0.5681819,-0.244709 -0.590474,-0.5925534 0.029861,-0.2876087 0.1909707,-0.4792238 0.4719634,-0.4948338 z"
       sodipodi:nodetypes="sssssccccccssscsssscccccssscs"
       transform="matrix(0.97941117,0,0,0.97941117,-14.297238,0.16045845)" /></g></svg>
