<?xml version="1.0" encoding="UTF-8" standalone="no"?>
<svg
   height="16px"
   viewBox="0 0 16 16"
   width="16px"
   version="1.1"
   id="svg1"
   sodipodi:docname="text-extra-light-symbolic.svg"
   xml:space="preserve"
   inkscape:version="1.4.3 (0d15f75042, 2025-12-25)"
   xmlns:inkscape="http://www.inkscape.org/namespaces/inkscape"
   xmlns:sodipodi="http://sodipodi.sourceforge.net/DTD/sodipodi-0.dtd"
   xmlns="http://www.w3.org/2000/svg"
   xmlns:svg="http://www.w3.org/2000/svg"><defs
     id="defs1" /><sodipodi:namedview
     id="namedview1"
     pagecolor="#ffffff"
     bordercolor="#000000"
     borderopacity="0.25"
     inkscape:showpageshadow="2"
     inkscape:pageopacity="0.0"
     inkscape:pagecheckerboard="0"
     inkscape:deskcolor="#d1d1d1"
     inkscape:zoom="45.254834"
     inkscape:cx="12.871553"
     inkscape:cy="14.341009"
     inkscape:window-width="2560"
     inkscape:window-height="1403"
     inkscape:window-x="0"
     inkscape:window-y="0"
     inkscape:window-maximized="1"
     inkscape:current-layer="svg1" /><path
     d="m 4.6581404,3.0114426 c -0.2684127,0 -0.4799229,0.2115094 -0.4799229,0.479923 0,0.2684136 0.2115102,0.4799231 0.4799229,0.4799231 h 5.6357936 c 0.967088,0 1.774395,0.8022223 1.774395,1.7743946 V 7.5200779 H 5.8249267 5.7786906 5.7698988 C 4.2675347,7.4843662 3.0251408,8.6466102 2.9718149,10.157454 v 0.01761 c 0.00473,1.56541 1.2563899,2.813493 2.8222998,2.813493 h 4.4161733 c 1.565654,0 2.817897,-1.252241 2.817897,-2.817896 V 5.7456833 c 0,-1.5163033 -1.217937,-2.7342407 -2.734242,-2.7342407 z m 1.1095469,5.4684816 h 0.017617 6.2830307 v 1.6907378 c -7e-6,1.016968 -0.841078,1.85805 -1.858051,1.85805 H 5.7941113 c -0.9971535,0 -1.8324266,-0.803149 -1.8624541,-1.79861 v -0.01102 -0.03082 -0.01321 C 3.9722461,9.2134839 4.803607,8.4466754 5.767693,8.4799186 Z"
     style="baseline-shift:baseline;display:inline;overflow:visible;opacity:1;vector-effect:none;stroke-width:1.12716;enable-background:accumulate;stop-color:#000000;stop-opacity:1"
     id="path1" /></svg>
