<?xml version="1.0" encoding="UTF-8" standalone="no"?>
<svg
   height="16"
   viewBox="0 0 16 16"
   width="16"
   version="1.1"
   id="svg15572"
   xml:space="preserve"
   sodipodi:docname="text-variant-all-caps-symbolic.svg"
   inkscape:version="1.4.3 (0d15f75042, 2025-12-25)"
   inkscape:export-filename="text-variant-small-caps-symbolic.svg"
   inkscape:export-xdpi="96"
   inkscape:export-ydpi="96"
   xmlns:inkscape="http://www.inkscape.org/namespaces/inkscape"
   xmlns:sodipodi="http://sodipodi.sourceforge.net/DTD/sodipodi-0.dtd"
   xmlns="http://www.w3.org/2000/svg"
   xmlns:svg="http://www.w3.org/2000/svg"><sodipodi:namedview
     id="namedview1"
     pagecolor="#ffffff"
     bordercolor="#000000"
     borderopacity="0.25"
     inkscape:showpageshadow="2"
     inkscape:pageopacity="0.0"
     inkscape:pagecheckerboard="0"
     inkscape:deskcolor="#d1d1d1"
     inkscape:zoom="22.627417"
     inkscape:cx="-6.872194"
     inkscape:cy="11.402097"
     inkscape:window-width="2560"
     inkscape:window-height="1403"
     inkscape:window-x="0"
     inkscape:window-y="0"
     inkscape:window-maximized="1"
     inkscape:current-layer="svg15572"><inkscape:page
       x="0"
       y="0"
       width="16"
       height="16"
       id="page2"
       margin="0"
       bleed="0" /></sodipodi:namedview><defs
     id="defs15576" /><path
     id="path6-8-5"
     style="font-weight:bold;font-size:7.40929px;font-family:'Adwaita Sans';-inkscape-font-specification:'Adwaita Sans Bold';text-align:center;letter-spacing:0px;word-spacing:0px;baseline-shift:baseline;text-anchor:middle;display:inline;overflow:visible;vector-effect:none;stroke-width:1.03217;stroke-linecap:round;enable-background:accumulate;stop-color:#000000"
     d="m 4.5967776,6.201447 -1.99782,5.693085 h 1.376905 l 0.405208,-1.213612 h 1.981694 l 0.391097,1.213611 h 1.411175 L 6.1672156,6.201447 Z m 0.788244,1.318441 c 0.04885,0.170753 0.103597,0.370206 0.149181,0.524151 0.114495,0.37584 0.225611,0.740767 0.332635,1.096684 v 0.0021 l 0.157244,0.48988 h -1.292233 l 0.163294,-0.48988 c 0.112128,-0.356324 0.22455,-0.722491 0.336665,-1.098701 0.04658,-0.153902 0.102954,-0.353434 0.153214,-0.52415 z" /><path
     id="path6-8-1-9"
     style="font-weight:bold;font-size:7.40929px;font-family:'Adwaita Sans';-inkscape-font-specification:'Adwaita Sans Bold';text-align:center;letter-spacing:0px;word-spacing:0px;baseline-shift:baseline;text-anchor:middle;display:inline;overflow:visible;vector-effect:none;stroke-width:1.03217;stroke-linecap:round;enable-background:accumulate;stop-color:#000000"
     d="m 10.162857,6.201447 -1.9978204,5.693085 h 1.376905 l 0.405208,-1.213612 h 1.9816944 l 0.391097,1.213611 h 1.411175 L 11.733295,6.201447 Z m 0.788244,1.318441 c 0.04885,0.170753 0.103597,0.370206 0.149181,0.524151 0.114495,0.37584 0.225611,0.740767 0.332635,1.096684 v 0.0021 l 0.157244,0.48988 h -1.292233 l 0.163294,-0.48988 c 0.112128,-0.356324 0.22455,-0.722491 0.336665,-1.098701 0.04658,-0.153902 0.102954,-0.353434 0.153214,-0.52415 z" /></svg>
