<?xml version="1.0" encoding="UTF-8" standalone="no"?>
<svg
   height="16px"
   viewBox="0 0 16 16"
   width="16px"
   version="1.1"
   id="svg1"
   sodipodi:docname="text-light-symbolic.svg"
   xml:space="preserve"
   inkscape:version="1.4.3 (0d15f75042, 2025-12-25)"
   xmlns:inkscape="http://www.inkscape.org/namespaces/inkscape"
   xmlns:sodipodi="http://sodipodi.sourceforge.net/DTD/sodipodi-0.dtd"
   xmlns="http://www.w3.org/2000/svg"
   xmlns:svg="http://www.w3.org/2000/svg"><defs
     id="defs1" /><sodipodi:namedview
     id="namedview1"
     pagecolor="#ffffff"
     bordercolor="#000000"
     borderopacity="0.25"
     inkscape:showpageshadow="2"
     inkscape:pageopacity="0.0"
     inkscape:pagecheckerboard="0"
     inkscape:deskcolor="#d1d1d1"
     inkscape:zoom="52.856232"
     inkscape:cx="11.115056"
     inkscape:cy="12.543459"
     inkscape:window-width="2560"
     inkscape:window-height="1403"
     inkscape:window-x="0"
     inkscape:window-y="0"
     inkscape:window-maximized="1"
     inkscape:current-layer="svg1" /><path
     d="m 4.8150324,3.0122834 c -0.3841887,-10e-8 -0.6921558,0.3079665 -0.6921558,0.6921561 0,0.3841895 0.3079671,0.692156 0.6921558,0.692156 h 5.3694536 c 0.799976,0 1.455626,0.6510549 1.455626,1.4556253 V 7.3078461 H 5.9266779 5.8847317 5.8805436 C 4.3227534,7.2708138 3.0287463,8.4832622 2.9734785,10.049204 v 0.02307 c 0.00376,1.619581 1.3041361,2.915446 2.9238349,2.915446 h 4.2074706 c 1.619115,0 2.921737,-1.300526 2.921737,-2.91964 V 5.8522208 c 0,-1.5724309 -1.269603,-2.8399374 -2.842036,-2.8399374 z m 1.036137,5.679875 h 0.037758 5.7511886 v 1.3759226 c -5e-6,0.84697 -0.688356,1.535328 -1.535327,1.535328 H 5.8973177 c -0.830517,0 -1.5124687,-0.657643 -1.5374259,-1.484989 v -0.0063 -0.02307 -0.0063 C 4.3934509,9.2876382 5.0671691,8.6666332 5.865856,8.6941731 Z"
     style="baseline-shift:baseline;display:inline;overflow:visible;opacity:1;vector-effect:none;stroke-width:1.07389;enable-background:accumulate;stop-color:#000000;stop-opacity:1"
     id="path1" /></svg>
