<?xml version="1.0" encoding="UTF-8" standalone="no"?>
<svg
   height="16px"
   viewBox="0 0 16 16"
   width="16px"
   version="1.1"
   id="svg1"
   sodipodi:docname="text-bold-symbolic.svg"
   xml:space="preserve"
   inkscape:version="1.4.3 (0d15f75042, 2025-12-25)"
   xmlns:inkscape="http://www.inkscape.org/namespaces/inkscape"
   xmlns:sodipodi="http://sodipodi.sourceforge.net/DTD/sodipodi-0.dtd"
   xmlns="http://www.w3.org/2000/svg"
   xmlns:svg="http://www.w3.org/2000/svg"><defs
     id="defs1" /><sodipodi:namedview
     id="namedview1"
     pagecolor="#ffffff"
     bordercolor="#000000"
     borderopacity="0.25"
     inkscape:showpageshadow="2"
     inkscape:pageopacity="0.0"
     inkscape:pagecheckerboard="0"
     inkscape:deskcolor="#d1d1d1"
     inkscape:zoom="37.375"
     inkscape:cx="11.491639"
     inkscape:cy="5.6454849"
     inkscape:window-width="2560"
     inkscape:window-height="1403"
     inkscape:window-x="0"
     inkscape:window-y="0"
     inkscape:window-maximized="1"
     inkscape:current-layer="svg1" /><path
     id="path1"
     style="baseline-shift:baseline;display:inline;overflow:visible;vector-effect:none;enable-background:accumulate;stop-color:#000000"
     d="m 5.1210938,2.9746094 c -0.6272891,0 -1.140625,0.513336 -1.140625,1.140625 0,0.6272889 0.5133359,1.140625 1.140625,1.140625 h 4.8554687 c 0.4589285,0 0.8007815,0.3401921 0.8007815,0.8027344 V 6.859375 H 6.1328125 6.1269531 6.0917969 V 6.875 C 4.412566,6.8409626 2.9990296,8.1459738 2.9394531,9.8339844 V 9.8359375 9.875 c 0.00401,1.741636 1.4185665,3.150391 3.1601563,3.150391 h 3.8046875 c 1.7418491,0 3.1562501,-1.412448 3.1562501,-3.1542972 V 8 6.0585938 c 0,-1.7003622 -1.383623,-3.0839844 -3.0839845,-3.0839844 z M 6.0527344,9.140625 h 0.00195 0.037109 4.6855476 v 0.7304688 c 0,0.5002772 -0.372771,0.8730472 -0.8730476,0.8730472 h -3.804684 c -0.488519,0 -0.848078,-0.361853 -0.8652344,-0.8437504 C 5.2589301,9.4512588 5.5954672,9.1248574 6.0527344,9.140625 Z" /></svg>
