<?xml version="1.0" encoding="UTF-8" standalone="no"?>
<svg
   width="48"
   height="48"
   version="1.1"
   id="svg1"
   xmlns="http://www.w3.org/2000/svg"
   xmlns:svg="http://www.w3.org/2000/svg">
  <defs
     id="defs1" />
  <rect
     x="18.712"
     y="20.136"
     width="26.441"
     height="22.372999"
     fill="currentColor"
     id="rect1" />
  <path
     d="M 19.729,3.2676 C 13.255872,3.1787755 7.0160288,7.3421063 4.5623406,13.323497 1.9998534,19.200291 3.3289133,26.500367 7.8153435,31.084592 12.131066,35.730695 19.242356,37.431598 25.197334,35.260076 31.369632,33.160249 35.924098,27.098014 36.17056,20.575224 36.579999,14.23453 32.90011,7.9005426 27.221005,5.0694017 24.913922,3.8833588 22.322598,3.2636571 19.729,3.2676 Z m 0,1 c 6.27288,-0.091866 12.304084,4.0770411 14.459253,9.965246 2.267204,5.778996 0.609549,12.830051 -4.06013,16.94361 -4.637918,4.343032 -12.029765,5.264619 -17.606692,2.238193 C 7.0169178,30.609816 3.6399083,24.275874 4.3477517,18.146744 4.9060756,11.791101 9.8363892,6.1429527 16.048646,4.7074463 17.251905,4.4138817 18.490561,4.2673227 19.729,4.2676 Z"
     color="#000000"
     style="-inkscape-stroke:none"
     fill="currentColor"
     id="path1" />
</svg>
