<?xml version="1.0" encoding="UTF-8" standalone="no"?>
<svg
   width="48"
   height="48"
   version="1.1"
   id="svg2"
   xmlns="http://www.w3.org/2000/svg"
   xmlns:svg="http://www.w3.org/2000/svg">
  <defs
     id="defs2" />
  <path
     d="M 19.729,2.8652 C 12.092504,2.7251233 4.9001895,8.463519 3.298314,15.923079 c -1.787865,7.178966 1.8487808,15.206777 8.397289,18.632334 6.459744,3.64539 15.21446,2.261698 20.237456,-3.195727 5.316381,-5.376033 6.191399,-14.42222 2.001208,-20.715969 C 30.914937,5.8630786 25.390871,2.813018 19.729,2.8652 Z m 0,1.8047 c 6.952237,-0.1397434 13.483323,5.1872692 14.755426,12.020772 1.466186,6.569142 -2.107798,13.799226 -8.221309,16.61583 C 20.117472,36.388973 12.026766,34.522923 7.8784354,29.031782 3.4507813,23.599588 3.6524831,15.082066 8.3382876,9.8692115 11.147564,6.5901378 15.40992,4.6408656 19.729,4.6699 Z"
     color="#000000"
     style="-inkscape-stroke:none"
     fill="currentColor"
     id="path1" />
  <path
     d="m 17.711,19.135 c 0,8.124333 0,16.248667 0,24.373 9.480333,0 18.960667,0 28.441,0 0,-8.124333 0,-16.248667 0,-24.373 -9.480333,0 -18.960667,0 -28.441,0 z m 2,2 c 8.147,0 16.294,0 24.441,0 0,6.791 0,13.582 0,20.373 -8.147,0 -16.294,0 -24.441,0 0,-6.791 0,-13.582 0,-20.373 z"
     color="#000000"
     style="-inkscape-stroke:none"
     fill="currentColor"
     id="path2" />
</svg>
