<?xml version="1.0" encoding="UTF-8" standalone="no"?>
<!-- Created with Inkscape (http://www.inkscape.org/) -->

<svg
   width="24"
   height="24"
   viewBox="0 0 24 24"
   version="1.1"
   id="svg5"
   xmlns="http://www.w3.org/2000/svg"
   xmlns:svg="http://www.w3.org/2000/svg">
  <defs
     id="defs1" />
  <path
     fill="#bebebe"
     d="m 7.8708751,1.3394416 c -3.6031851,0 -6.5314335,2.9282484 -6.5314335,6.5314334 v 8.258249 c 0,3.603186 2.9282484,6.531434 6.5314335,6.531434 h 8.2582489 c 3.603186,0 6.531434,-2.928248 6.531434,-6.531434 V 7.870875 c 0,-3.603185 -2.928248,-6.5314334 -6.531434,-6.5314334 z m 0,2.0620235 h 8.2582489 c 2.495403,0 4.469411,1.9740075 4.469411,4.4694099 v 8.258249 c 0,2.495403 -1.974008,4.469411 -4.469411,4.469411 H 7.8708751 c -2.4954017,0 -4.46941,-1.974008 -4.46941,-4.469411 V 7.870875 c 0,-2.4954024 1.9740083,-4.4694099 4.46941,-4.4694099 z"
     id="rect1179"
     style="stroke-width:5.03648" />
</svg>
