<?xml version="1.0" encoding="UTF-8" standalone="no"?>
<svg
   enable-background="new 0 0 24 24"
   height="24"
   viewBox="0 0 24 24"
   width="24"
   version="1.1"
   id="svg12"
   sodipodi:docname="tool-lasso-24.svg"
   inkscape:version="1.1 (c68e22c387, 2021-05-23)"
   xmlns:inkscape="http://www.inkscape.org/namespaces/inkscape"
   xmlns:sodipodi="http://sodipodi.sourceforge.net/DTD/sodipodi-0.dtd"
   xmlns="http://www.w3.org/2000/svg"
   xmlns:svg="http://www.w3.org/2000/svg">
  <defs
     id="defs5" />
  <sodipodi:namedview
     id="namedview14"
     pagecolor="#ffffff"
     bordercolor="#666666"
     borderopacity="1.0"
     inkscape:pageshadow="2"
     inkscape:pageopacity="0.0"
     inkscape:pagecheckerboard="0"
     showgrid="false"
     inkscape:zoom="36.375"
     inkscape:cx="9.2508591"
     inkscape:cy="11.202749"
     inkscape:window-width="2560"
     inkscape:window-height="1377"
     inkscape:window-x="-8"
     inkscape:window-y="-8"
     inkscape:window-maximized="1"
     inkscape:current-layer="svg12" />
  <path
     fill="#bebebe"
     d="m 11.730469,3.0703125 c -2.2931664,10e-8 -4.3825047,0.5635371 -5.9609378,1.5390625 -1.578433,0.9755254 -2.6992187,2.4383864 -2.6992187,4.15625 10e-8,1.717864 1.1207857,3.182678 2.6992187,4.158203 1.5784331,0.975525 3.6677715,1.539063 5.9609378,1.539063 0.573916,0 1.137056,-0.07557 1.699219,-0.148438 0.457956,0.609041 1.088069,1.0625 1.90039,1.0625 0.250197,0 0.415772,-0.197622 0.644531,-0.267578 1.106518,0.544249 2.272712,1.029906 2.691407,1.546875 0.148141,0.203385 0.171492,0.361449 0.117187,0.560547 -0.05565,0.204029 -0.224693,0.459099 -0.570312,0.675781 l -0.0098,0.0059 -0.0098,0.0078 c -0.837585,0.554772 -2.180291,0.882873 -3.542968,1.083984 -2.255882,0.291867 -4.636661,0.058 -7.0214848,-0.175781 L 7.453125,20.605469 c 2.3833601,0.233638 4.903002,0.497857 7.439453,0.167968 h 0.0078 l 0.0078,-0.002 c 1.448802,-0.213358 3.003508,-0.528276 4.263672,-1.357422 0.665406,-0.418649 1.155672,-1.02074 1.347656,-1.724609 0.192465,-0.705632 0.04784,-1.506696 -0.419922,-2.128906 l -0.0078,-0.0098 -0.0078,-0.0098 c -0.719997,-0.902115 -1.694557,-1.370574 -2.623047,-1.783203 0.126642,-0.297873 0.367188,-0.537411 0.367188,-0.878907 0,-0.04929 -0.04985,-0.07833 -0.05273,-0.126953 1.538015,-1.010498 2.615234,-2.384106 2.615234,-3.986328 0,-1.7178635 -1.120786,-3.1807246 -2.699219,-4.15625 C 16.112973,3.6338496 14.023635,3.0703127 11.730469,3.0703125 Z m 0,1.8007812 c 1.992557,3e-7 3.783542,0.509269 5.013672,1.2695313 1.23013,0.7602623 1.845703,1.694141 1.845703,2.625 0,0.7855296 -0.586989,1.598718 -1.564453,2.320313 -0.448673,-0.423058 -1.037035,-0.707032 -1.695313,-0.707032 -1.24403,10e-7 -2.18356,0.978621 -2.365234,2.175782 -0.410287,0.04455 -0.815926,0.107421 -1.234375,0.107421 -1.9925573,0 -3.7835419,-0.509269 -5.0136721,-1.269531 C 5.4866666,10.632316 4.8710938,9.696484 4.8710937,8.765625 c 0,-0.9308591 0.6155729,-1.8647376 1.8457032,-2.625 C 7.9469271,5.3803626 9.7379117,4.8710938 11.730469,4.8710937 Z m 3.599609,7.3066403 c 0.397069,0 0.699219,0.304103 0.699219,0.701172 0,0.397069 -0.30215,0.699219 -0.699219,0.699219 -0.397069,0 -0.701172,-0.30215 -0.701172,-0.699219 0,-0.397068 0.304103,-0.701171 0.701172,-0.701172 z"
     id="circle6029-6" />
</svg>
