<?xml version="1.0" encoding="UTF-8" standalone="no"?>
<svg
   height="24"
   viewBox="0 0 24 24"
   width="24"
   version="1.1"
   id="svg6"
   sodipodi:docname="select_24.svg"
   inkscape:version="1.1 (c68e22c387, 2021-05-23)"
   xmlns:inkscape="http://www.inkscape.org/namespaces/inkscape"
   xmlns:sodipodi="http://sodipodi.sourceforge.net/DTD/sodipodi-0.dtd"
   xmlns="http://www.w3.org/2000/svg"
   xmlns:svg="http://www.w3.org/2000/svg">
  <defs
     id="defs10" />
  <sodipodi:namedview
     id="namedview8"
     pagecolor="#ffffff"
     bordercolor="#666666"
     borderopacity="1.0"
     inkscape:pageshadow="2"
     inkscape:pageopacity="0.0"
     inkscape:pagecheckerboard="0"
     showgrid="false"
     inkscape:zoom="25.721009"
     inkscape:cx="16.931684"
     inkscape:cy="19.031135"
     inkscape:window-width="2560"
     inkscape:window-height="1377"
     inkscape:window-x="-8"
     inkscape:window-y="-8"
     inkscape:window-maximized="1"
     inkscape:current-layer="svg6" />
  <path
     fill="#bebebe"
     id="path4"
     d="M 3 3 C 1.9 3 1 3.9 1 5 L 3 5 L 3 3 z M 5 3 L 5 5 L 7 5 L 7 3 L 5 3 z M 9 3 L 9 5 L 11 5 L 11 3 L 9 3 z M 13 3 L 13 5 L 15 5 L 15 3 L 13 3 z M 17 3 L 17 5 L 19 5 L 19 3 L 17 3 z M 21 3 L 21 5 L 23 5 C 23 3.9000063 22.099994 3 21 3 z M 1 7 L 1 9 L 3 9 L 3 7 L 1 7 z M 21 7 L 21 9 L 23 9 L 23 7 L 21 7 z M 1 11 L 1 13 L 3 13 L 3 11 L 1 11 z M 21 11 L 21 13 L 23 13 L 23 11 L 21 11 z M 1 15 L 1 17 L 3 17 L 3 15 L 1 15 z M 21 15 L 21 17 L 23 17 L 23 15 L 21 15 z M 1 19 C 1 20.1 1.9 21 3 21 L 3 19 L 1 19 z M 5 19 L 5 21 L 7 21 L 7 19 L 5 19 z M 9 19 L 9 21 L 11 21 L 11 19 L 9 19 z M 13 19 L 13 21 L 15 21 L 15 19 L 13 19 z M 17 19 L 17 21 L 19 21 L 19 19 L 17 19 z M 21 19 L 21 21 C 22.1 21 23 20.1 23 19 L 21 19 z " />
</svg>
