<?xml version="1.0" encoding="UTF-8" standalone="no"?>
<svg
   enable-background="new 0 0 24 24"
   height="24"
   viewBox="0 0 24 24"
   width="24"
   version="1.1"
   id="svg12"
   xmlns="http://www.w3.org/2000/svg"
   xmlns:svg="http://www.w3.org/2000/svg">
  <defs
     id="defs16" />
  <path
     style="baseline-shift:baseline;display:inline;overflow:visible;opacity:1;vector-effect:none;stroke-miterlimit:0;stroke-dasharray:1.95, 1.95;stroke-dashoffset:10.335;enable-background:accumulate;stop-color:#000000;stop-opacity:1"
     d="m 12.697266,1.5 -0.0039,1.9492188 1.951172,0.00391 0.0039,-1.9492188 z m 3.90039,0.00781 -0.0039,1.9511719 1.949219,0.00391 0.0039,-1.9511719 z m 3.900391,0.00781 -0.0039,1.9511719 1.949218,0.00391 0.0039,-1.9511719 z m -9.939453,1.7011719 -0.9218752,1.71875 1.7187502,0.9199218 0.921875,-1.71875 z m 9.966797,1.6816406 v 1.9492187 h 1.949218 V 4.8984375 Z m -11.8085941,1.7558594 -0.921875,1.71875 1.71875,0.9199219 0.9218751,-1.7187501 z M 20.525391,8.7988281 v 1.9492189 h 1.949218 V 8.7988281 Z M 6.875,10.091797 l -0.921875,1.71875 1.71875,0.921875 0.921875,-1.720703 z m 13.650391,2.607422 v 1.949219 h 1.949218 v -1.949219 z m -15.4921879,0.830078 -0.921875,1.71875 1.71875,0.921875 0.921875,-1.71875 z m 15.4921879,3.068359 v 1.951172 h 1.949218 v -1.951172 z m -17.3339847,0.369141 -0.921875,1.71875 1.71875,0.921875 0.9218749,-1.71875 z m -2.1347657,3.558594 v 1.949218 h 1.9511719 v -1.949218 z m 3.9003906,0 v 1.949218 H 6.90625 v -1.949218 z m 3.9003907,0 v 1.949218 h 1.9492191 v -1.949218 z m 3.9003911,0 v 1.949218 h 1.949218 v -1.949218 z m 3.898437,0 v 1.949218 h 1.951172 v -1.949218 z m 3.900391,0 v 1.949218 h 1.951171 v -1.949218 z"
     id="rect1079" />
</svg>
