<?xml version="1.0" encoding="UTF-8" standalone="no"?>
<svg
   width="48"
   height="48"
   version="1.1"
   id="svg2"
   xmlns="http://www.w3.org/2000/svg"
   xmlns:svg="http://www.w3.org/2000/svg">
  <defs
     id="defs2" />
  <path
     d="m 14.559,14.051 c 0,9.344333 0,18.688667 0,28.033 9.955,0 19.91,0 29.865,0 0,-9.344333 0,-18.688667 0,-28.033 -9.955,0 -19.91,0 -29.865,0 z m 2,2 c 8.621667,0 17.243333,0 25.865,0 0,8.011 0,16.022 0,24.033 -8.621667,0 -17.243333,0 -25.865,0 0,-8.011 0,-16.022 0,-24.033 z"
     style="-inkscape-stroke:none"
     fill="currentColor"
     id="path1" />
  <path
     d="m 3.2715,3.6777 c 0,9.344333 0,18.688667 0,28.033 4.3,0 8.6,0 12.9,0 -0.341586,-0.701024 -1.065123,-0.741202 -0.303879,-1.741767 -0.822251,-0.581453 -2.018129,-0.127112 -3.003403,-0.258233 -2.531119,0 -5.0622386,0 -7.593358,0 0,-8.011 0,-16.022 0,-24.033 8.621,0 17.242,0 25.863,0 0,3.3913333 0,6.782667 0,10.174 0.304777,-1.853745 2.600644,-0.290921 2.0001,-2.229832 0,-3.314539 0,-6.6290785 0,-9.943618 C 23.179852,3.67794 13.22538,3.6786433 3.2715,3.6777 Z m 29.191,11.012 c -0.308991,0.09423 0.309812,-0.006 0,0 z m 0.04883,0.11914 c -0.266588,0.757397 0.900173,-0.02389 0,0 z m -1.125,0.47656 c -0.607441,0.865093 0.474866,0.442523 0,0 z m 0.83008,0.16992 c -0.222237,0.406972 0.420285,-0.172202 0,0 z m 0.35938,0.04102 c 0.270096,0.413868 0.896121,-0.172774 0,0 z m -0.79688,0.08984 c -0.356158,0.105482 -0.01287,0.158577 0,0 z M 15.8751,30.1567 c -0.350412,0.209626 0.184002,0.67881 0,0 z m -0.10742,0.37891 c -0.06809,0.195527 0.105066,0.03768 0,0 z m -0.08984,0.19922 c -0.08001,0.372601 0.324758,-0.111184 0,0 z m 0.05859,0.13477 c -0.04787,0.305887 0.36811,-0.17309 0,0 z m 0.16602,0.0078 c 0.481794,-0.06893 -0.295813,-0.247232 0,0 z m 0.21094,-0.0957 c -0.467349,0.06395 0.292895,0.227494 0,0 z m 1.16014,0.50195 c -0.17894,0.09964 0.169156,0.194467 0,0 z"
     style="-inkscape-stroke:none"
     fill="currentColor"
     id="path2" />
</svg>
