<?xml version="1.0" encoding="UTF-8" standalone="no"?>
<svg
   enable-background="new 0 0 24 24"
   height="24"
   viewBox="0 0 24 24"
   width="24"
   version="1.1"
   id="svg12"
   sodipodi:docname="recolor.svg"
   inkscape:version="1.1 (c68e22c387, 2021-05-23)"
   xmlns:inkscape="http://www.inkscape.org/namespaces/inkscape"
   xmlns:sodipodi="http://sodipodi.sourceforge.net/DTD/sodipodi-0.dtd"
   xmlns="http://www.w3.org/2000/svg"
   xmlns:svg="http://www.w3.org/2000/svg">
  <sodipodi:namedview
     id="namedview14"
     pagecolor="#ffffff"
     bordercolor="#666666"
     borderopacity="1.0"
     inkscape:pageshadow="2"
     inkscape:pageopacity="0.0"
     inkscape:pagecheckerboard="0"
     showgrid="false"
     inkscape:zoom="36.375"
     inkscape:cx="22.14433"
     inkscape:cy="12"
     inkscape:window-width="2560"
     inkscape:window-height="1377"
     inkscape:window-x="-8"
     inkscape:window-y="-8"
     inkscape:window-maximized="1"
     inkscape:current-layer="svg12" />
  <path
     fill="#bebebe"
     id="path2210"
     d="m 16.321056,3 c -2.263525,-2e-7 -4.117979,1.8526338 -4.11798,4.1161591 0,2.2635252 1.854455,4.1161589 4.11798,4.1161589 2.263526,0 4.116159,-1.8526337 4.11616,-4.1161589 C 20.437216,4.8526338 18.584582,2.9999998 16.321056,3 Z M 8.8609735,9.381868 C 5.6394525,9.381868 3,11.989044 3,15.191845 3,18.394645 5.6394525,21 8.8609735,21 c 3.2215215,0 5.8591515,-2.605355 5.8591515,-5.808155 0,-3.202801 -2.63763,-5.809977 -5.8591515,-5.809977 z m 0,1.722958 c 2.3002435,0 4.1380145,1.824688 4.1380145,4.087019 0,2.26233 -1.837771,4.087018 -4.1380145,4.087018 -2.3002436,0 -4.1380149,-1.824688 -4.1380149,-4.087018 0,-2.262331 1.8377713,-4.087019 4.1380149,-4.087019 z m 9.5327325,1.544471 -0.825052,0.435293 1.413336,2.68461 -3.185471,-0.01093 -0.0036,0.93251 4.733583,0.01821 z" />
</svg>
