<?xml version="1.0" encoding="UTF-8" standalone="no"?>
<!-- Created with Inkscape (http://www.inkscape.org/) -->

<svg
   width="19.846363"
   height="19.807211"
   viewBox="0 0 19.846363 19.807211"
   version="1.1"
   id="svg5"
   xmlns="http://www.w3.org/2000/svg"
   xmlns:svg="http://www.w3.org/2000/svg">
  <defs
     id="defs1" />
  <path
     fill="#bebebe"
     d="M 9.9183398,1.151178e-7 C 9.5051418,0.00906012 9.0910848,0.02425612 8.6813088,0.08099912 c 0.07854,0.62097 0.157084,1.24194008 0.235625,1.86291018 0.558275,-0.075268 1.1252052,-0.085768 1.6861892,-0.036833 0.04664,-0.6234244 0.09327,-1.24684878 0.139901,-1.87027318 C 10.468662,0.01160012 10.193563,0.00797012 9.9183398,1.151178e-7 Z M 12.76793,0.41970722 C 12.59612,1.0210418 12.42431,1.6223764 12.2525,2.223711 12.781266,2.373069 13.283954,2.601684 13.769348,2.8569579 14.081057,2.314528 14.392765,1.7720981 14.704473,1.2296681 14.091032,0.88989522 13.440576,0.61790342 12.76793,0.41970722 Z M 6.6784963,0.54488292 C 6.0289385,0.76786702 5.4063238,1.0641215 4.815587,1.4137502 5.1272993,1.9561786 5.4390116,2.498607 5.7507238,3.0410353 6.2351466,2.7498028 6.7492294,2.5070514 7.2822863,2.3194309 7.081023,1.7279149 6.8797596,1.1363989 6.6784963,0.54488292 Z M 16.383301,2.4004297 c -0.407435,0.47125 -0.81487,0.9425 -1.222305,1.41375 0.42327,0.3749039 0.817998,0.7814177 1.1634,1.2296685 C 16.815281,4.6585033 17.306166,4.273158 17.797052,3.8878131 17.37241,3.3499574 16.907688,2.8428502 16.383301,2.4004297 Z M 3.1441213,2.6802354 C 2.6465575,3.147496 2.1882111,3.6615132 1.8040077,4.2265235 2.3120729,4.5873242 2.8201381,4.9481252 3.3282033,5.3089259 3.6547795,4.8491058 4.022353,4.4149492 4.4400573,4.0350788 4.0080787,3.5834644 3.5761,3.1318497 3.1441213,2.6802354 Z M 18.886816,5.6770909 c -0.566972,0.257715 -1.133945,0.5154295 -1.700918,0.7731445 0.23878,0.5098148 0.426164,1.0436238 0.5596,1.5904672 C 18.354196,7.8983455 18.962894,7.7559884 19.571592,7.6136317 19.421793,6.9438143 19.174816,6.2988439 18.886816,5.6770909 Z M 0.79523446,6.0158028 C 0.51693686,6.6615111 0.32127796,7.3386905 0.17672146,8.0259806 0.79278276,8.1339746 1.408844,8.2419686 2.0249052,8.3499626 2.1279729,7.8145595 2.2938382,7.2909623 2.5035067,6.7889601 1.9340825,6.531241 1.3646586,6.2735219 0.79523446,6.0158028 Z M 19.836679,9.6606276 c -0.623424,0.01474 -1.246848,0.02944 -1.870273,0.04418 0.02258,0.6269584 -0.04569,1.2552944 -0.162008,1.8702754 0.608698,0.142355 1.217396,0.284714 1.826094,0.42707 0.141371,-0.675451 0.203693,-1.364903 0.213551,-2.0543604 -0.212729,-0.0083 -0.979701,-0.01647 -0.823017,-0.02473 0.262908,-0.0899 0.909447,0.1836904 0.816223,-0.24364 z M 1.8702734,10.028791 C 1.246849,10.043531 0.62342456,10.058231 6.5155247e-8,10.072971 0.00189006,10.761781 0.09135306,11.448664 0.24298946,12.119961 0.85168696,11.980058 1.4603845,11.840156 2.0690821,11.700254 1.9472044,11.152767 1.8794952,10.589849 1.8702734,10.028791 Z m 15.4113476,3.151484 c -0.218764,0.520331 -0.51494,1.004741 -0.839413,1.465293 0.508066,0.363255 1.016132,0.72651 1.524198,1.089765 0.402778,-0.555304 0.746226,-1.154517 1.023495,-1.781914 -0.569427,-0.257714 -1.138853,-0.515429 -1.70828,-0.773144 z M 2.6066015,13.290725 C 2.0371743,13.54844 1.4677475,13.806154 0.89832046,14.063869 1.1767703,14.690627 1.5444525,15.274862 1.9439071,15.831057 2.4519735,15.470256 2.9600398,15.109455 3.4681065,14.748655 3.1405821,14.28681 2.8412539,13.80709 2.6066015,13.290725 Z m 12.7384765,2.584512 c -0.417259,0.380327 -0.877953,0.711806 -1.362202,1.001402 0.311712,0.542428 0.623424,1.084856 0.935136,1.627285 0.591247,-0.345709 1.141153,-0.757542 1.65674,-1.207577 -0.409891,-0.473704 -0.819783,-0.947407 -1.229674,-1.42111 z M 4.5873245,15.956227 C 4.1798896,16.429932 3.7724544,16.903636 3.3650196,17.37734 3.8822515,17.821415 4.4334233,18.229798 5.0291179,18.562828 5.3408302,18.020404 5.6525425,17.477975 5.9642547,16.935547 5.4694743,16.663981 5.0118675,16.327168 4.5873245,15.956231 Z m 7.8566215,1.612558 c -0.531869,0.180215 -1.084316,0.297268 -1.64201,0.360801 0.07854,0.62097 0.157084,1.24194 0.235625,1.86291 0.682391,-0.0806 1.357739,-0.225743 2.010174,-0.441794 -0.201263,-0.593973 -0.402526,-1.187944 -0.603789,-1.781917 z m -4.933399,0.04418 c -0.1988087,0.591517 -0.397617,1.183034 -0.5964257,1.774552 0.6681575,0.215815 1.3624885,0.352844 2.0617185,0.419694 0.03095,-0.615702 0.126568,-1.291418 0.117809,-1.870272 -0.536694,-0.05748 -1.066173,-0.173665 -1.5831018,-0.323974 z"
     id="path910"
     style="stroke-width:3.77" />
</svg>
