<?xml version="1.0" encoding="UTF-8" standalone="no"?>
<svg
   width="48"
   height="48"
   version="1.1"
   id="svg1"
   xmlns:xlink="http://www.w3.org/1999/xlink"
   xmlns="http://www.w3.org/2000/svg"
   xmlns:svg="http://www.w3.org/2000/svg">
  <defs
     id="defs1" />
  <path
     id="path869"
     d="m 12,29.8 c -1.641072,0.11076 -2.5571553,-2.163121 -1.35,-3.25 1.086879,-1.207155 3.36076,-0.291072 3.25,1.35 0.03835,1.025788 -0.873414,1.938274 -1.9,1.9 z m 0,8.1 c -1.641072,0.11076 -2.5571553,-2.163121 -1.35,-3.25 1.086879,-1.207155 3.36076,-0.291072 3.25,1.35 0.03835,1.025788 -0.873414,1.938274 -1.9,1.9 z M 12,22 c -1.641072,0.11076 -2.5571553,-2.163121 -1.35,-3.25 1.086879,-1.207155 3.36076,-0.291072 3.25,1.35 0.03835,1.025788 -0.873414,1.938274 -1.9,1.9 z M 6.05,21.15 C 4.2446063,21.168958 5.1265506,18.210052 6.640625,19.21875 7.492782,19.74466 7.0747982,21.214135 6.05,21.15 Z M 12,13.9 c -1.641072,0.11076 -2.5571553,-2.163121 -1.35,-3.25 1.086879,-1.2071553 3.36076,-0.291072 3.25,1.35 0.03835,1.025788 -0.873414,1.938274 -1.9,1.9 z M 6.05,28.95 C 4.2446063,28.968958 5.1265506,26.010052 6.640625,27.01875 7.492782,27.54466 7.0747982,29.014135 6.05,28.95 Z M 20.1,43 C 18.294606,43.01896 19.176551,40.060052 20.690625,41.06875 21.542782,41.59466 21.124798,43.064135 20.1,43 Z m 0,-35.9 C 18.294606,7.1189581 19.176551,4.1600523 20.690625,5.16875 21.542782,5.69466 21.124798,7.1641346 20.1,7.1 Z m 0,6.8 c -1.641072,0.11076 -2.557155,-2.163121 -1.35,-3.25 1.086879,-1.2071553 3.36076,-0.291072 3.25,1.35 0.03835,1.025788 -0.873414,1.938274 -1.9,1.9 z m 0,16.7 c -2.06717,0.093 -3.487242,-2.545416 -2.25,-4.214062 1.080014,-1.752097 4.051202,-1.498094 4.75625,0.457812 C 23.345242,28.562109 22.006038,30.673074 20.1,30.6 Z m 0,-7.8 c -2.06717,0.093 -3.487242,-2.545416 -2.25,-4.214062 1.080014,-1.752097 4.051202,-1.498094 4.75625,0.457812 C 23.345242,20.762109 22.006038,22.873074 20.1,22.8 Z m 0,15.1 c -1.641072,0.11076 -2.557155,-2.163121 -1.35,-3.25 1.086879,-1.207155 3.36076,-0.291072 3.25,1.35 0.03835,1.025788 -0.873414,1.938274 -1.9,1.9 z"
     fill="currentColor" />
  <use
     transform="matrix(-1,0,0,1,47.8,0)"
     xlink:href="#path869"
     id="use1" />
</svg>
