<?xml version="1.0" encoding="UTF-8" standalone="no"?>
<svg
   width="12.7mm"
   height="12.7mm"
   viewBox="0 0 12.7 12.7"
   version="1.1"
   id="svg1514"
   xmlns="http://www.w3.org/2000/svg"
   xmlns:svg="http://www.w3.org/2000/svg">
  <defs
     id="defs1511" />
  <path
     style="fill:none;fill-rule:evenodd;stroke:#000000;stroke-width:1;stroke-linejoin:bevel;stroke-dasharray:1, 1;stroke-dashoffset:1.8;stroke-opacity:1"
     d="M 10.022351,1.4837742 C 10.41624,1.7946224 10.226098,2.3513884 9.966555,2.6825152 9.3868329,3.5383795 8.4708234,4.1731024 8.1069675,5.1669872 7.8942146,5.6870752 8.3192977,6.2862366 8.8945789,6.2004781 9.5561321,6.2359601 10.236353,5.9454283 10.880349,6.1718331 11.441015,6.5524029 10.919729,7.2796923 10.395883,7.3741432 9.6214772,7.6923375 8.6913513,7.737889 8.0657481,8.3463487 7.6617919,8.7484509 7.9285405,9.3458631 8.1490265,9.7689914 8.3251691,10.156746 8.7618759,10.79596 8.246688,11.106358 7.7067777,11.421455 7.1641919,10.948508 6.8004832,10.582347 6.1686796,9.9833473 5.6464148,9.1538161 4.7614169,8.9145682 3.9584182,8.8065517 3.3058715,9.3920886 2.6306154,9.7274316 2.1871622,10.040108 1.3604677,10.171505 1.2009377,9.4835358 1.1420727,8.8980674 1.6704114,8.4934831 2.0166623,8.0946357 2.4614069,7.604842 3.0860709,7.060778 2.9570069,6.3263079 2.6915733,5.3830611 1.7059215,4.8967165 1.3265628,4.0185983 1.0748953,3.3536021 1.9548442,2.9019202 2.4758203,3.2648704 3.2964047,3.5978287 3.993762,4.300608 4.9159886,4.3360121 5.8839814,4.2438964 6.5732591,3.4536924 7.2289662,2.8167599 7.8307299,2.2447078 8.3691556,1.5057535 9.1938306,1.251271 9.4895443,1.1746222 9.8033667,1.2770637 10.022351,1.4837742 Z"
     id="path4689" />
</svg>
