<?xml version="1.0" encoding="UTF-8" standalone="no"?>
<svg
   width="48"
   height="48"
   version="1.1"
   id="svg5"
   xmlns:xlink="http://www.w3.org/1999/xlink"
   xmlns="http://www.w3.org/2000/svg"
   xmlns:svg="http://www.w3.org/2000/svg">
  <defs
     id="defs5" />
  <g
     id="g528"
     transform="translate(-3.1661,-8.8042)">
    <path
       d="m 19.383,19.512 c -1.474128,0.09108 -2.444498,-1.781251 -1.590626,-2.959373 0.75251,-1.249678 2.855272,-1.054036 3.353127,0.321875 C 21.669426,18.08923 20.729308,19.563618 19.383,19.512 Z"
       fill="currentColor"
       id="path1" />
    <path
       d="M 13.35,18.762 C 11.394401,18.749543 12.358487,15.589062 13.968751,16.658876 14.94444,17.236366 14.443603,18.772618 13.35,18.762 Z"
       fill="currentColor"
       id="path2" />
    <path
       d="M 40.982,18.762 C 39.026401,18.74954 39.990487,15.589062 41.600751,16.658876 42.57644,17.236366 42.075603,18.772618 40.982,18.762 Z"
       fill="currentColor"
       id="path3" />
    <path
       d="m 34.949,19.512 c -1.474129,0.09108 -2.444498,-1.78125 -1.590626,-2.959373 0.75251,-1.249678 2.855272,-1.054036 3.353127,0.321875 C 37.235426,18.08923 36.295308,19.563618 34.949,19.512 Z"
       fill="currentColor"
       id="path4" />
    <path
       d="m 27.166,20.512 c -1.932991,0.04579 -3.519003,-2.191351 -2.681249,-3.981275 0.613773,-1.502688 2.568354,-2.335241 4.011351,-1.476927 1.404486,0.723421 2.058891,2.655608 1.156322,4.009493 C 29.119879,19.905237 28.186622,20.533842 27.166,20.512 Z"
       fill="currentColor"
       id="path5" />
  </g>
  <use
     id="use530"
     transform="translate(0,7.5962)"
     xlink:href="#g528" />
  <use
     id="use532"
     transform="translate(0,7.5962)"
     xlink:href="#use530" />
  <use
     id="use534"
     transform="translate(0,7.5962)"
     xlink:href="#use532" />
  <use
     transform="translate(0,7.5962)"
     xlink:href="#use534"
     id="use5" />
</svg>
