<?xml version="1.0" encoding="UTF-8" standalone="no"?>
<svg
   width="48"
   height="48"
   version="1.1"
   id="svg2"
   xmlns:xlink="http://www.w3.org/1999/xlink"
   xmlns="http://www.w3.org/2000/svg"
   xmlns:svg="http://www.w3.org/2000/svg">
  <defs
     id="defs2" />
  <path
     id="path938"
     d="M 12.927,4.1762 C 16.186528,4.1530493 14.591451,9.4803365 11.867625,7.666825 10.311362,6.7150869 11.082368,4.0795971 12.927,4.1762 Z m 7.0741,0.7251 c 2.69007,0.4151037 -0.634896,3.7400704 -1.05,1.05 -0.02989,-0.5668747 0.483125,-1.0798854 1.05,-1.05 z m -7.199,7.8966 c 2.69007,0.415104 -0.634896,3.74007 -1.05,1.05 -0.02989,-0.566875 0.483125,-1.079885 1.05,-1.05 z m -8.1,7.4024 c 2.6900704,0.415104 -0.6348963,3.74007 -1.05,1.05 -0.029885,-0.566875 0.4831253,-1.079885 1.05,-1.05 z M 4.827,12.2762 C 8.0865277,12.253049 6.4914506,17.580337 3.767625,15.766825 2.2113615,14.815087 2.9823677,12.179597 4.827,12.2762 Z m 0,-8.9 c 2.3056984,-0.120548 3.652783,3.0935212 1.9,4.625 -1.5484696,1.7015777 -4.7702327,0.4089585 -4.6,-1.925 -0.040761,-1.4447447 1.2447223,-2.7576854 2.7,-2.7 z"
     fill="currentColor" />
  <path
     d="m 34.982,44.733 c -3.259528,0.02315 -1.664451,-5.304137 1.059375,-3.490625 1.556263,0.951738 0.785257,3.587228 -1.059375,3.490625 z m -7.0741,-0.7251 c -2.69007,-0.415104 0.634896,-3.74007 1.05,-1.05 0.02989,0.566875 -0.483125,1.079885 -1.05,1.05 z m 7.199,-7.8966 c -2.69007,-0.415104 0.634896,-3.74007 1.05,-1.05 0.02989,0.566875 -0.483125,1.079885 -1.05,1.05 z m 8.1,-7.4024 c -2.69007,-0.415104 0.634896,-3.74007 1.05,-1.05 0.02989,0.566875 -0.483125,1.079885 -1.05,1.05 z M 43.082,36.633 c -3.259528,0.02315 -1.664451,-5.304137 1.059375,-3.490625 1.556263,0.951738 0.785257,3.587228 -1.059375,3.490625 z m 0,8.9 c -2.305698,0.120548 -3.652783,-3.093521 -1.9,-4.625 1.54847,-1.701578 4.770233,-0.408958 4.6,1.925 0.04076,1.444745 -1.244722,2.757685 -2.7,2.7 z"
     fill="currentColor"
     id="path1" />
  <use
     transform="rotate(-90,23.205,24.454)"
     xlink:href="#path938"
     id="use1" />
  <use
     transform="rotate(90,23.955,25.204)"
     xlink:href="#path938"
     id="use2" />
</svg>
