<?xml version="1.0" encoding="UTF-8"?>
<svg width="48" height="48" version="1.1" xmlns="http://www.w3.org/2000/svg" xmlns:xlink="http://www.w3.org/1999/xlink">
 <g id="g528" transform="translate(-3.1661 -8.8042)">
  <path d="m19.383 19.512c-0.53333 0-0.98333-0.18333-1.35-0.55s-0.55-0.81667-0.55-1.35 0.18333-0.98333 0.55-1.35 0.81667-0.55 1.35-0.55 0.98333 0.18333 1.35 0.55 0.55 0.81667 0.55 1.35-0.18333 0.98333-0.55 1.35-0.81667 0.55-1.35 0.55z"/>
  <path d="m13.35 18.762c-0.3 0-0.56667-0.11667-0.8-0.35s-0.35-0.5-0.35-0.8 0.11667-0.56667 0.35-0.8 0.5-0.35 0.8-0.35 0.56667 0.11667 0.8 0.35 0.35 0.5 0.35 0.8-0.11667 0.56667-0.35 0.8-0.5 0.35-0.8 0.35z"/>
  <path d="m40.982 18.762c-0.3 0-0.56667-0.11667-0.8-0.35-0.23333-0.23333-0.35-0.5-0.35-0.8s0.11667-0.56667 0.35-0.8 0.5-0.35 0.8-0.35 0.56667 0.11667 0.8 0.35 0.35 0.5 0.35 0.8-0.11667 0.56667-0.35 0.8c-0.23333 0.23333-0.5 0.35-0.8 0.35z"/>
  <path d="m34.949 19.512c-0.53333 0-0.98333-0.18333-1.35-0.55-0.36667-0.36666-0.55-0.81667-0.55-1.35 0-0.53333 0.18333-0.98333 0.55-1.35s0.81667-0.55 1.35-0.55 0.98333 0.18333 1.35 0.55c0.36667 0.36667 0.55 0.81667 0.55 1.35 0 0.53333-0.18333 0.98333-0.55 1.35-0.36667 0.36667-0.81667 0.55-1.35 0.55z"/>
  <path d="m27.166 20.512c-0.76667 0-1.4417-0.29167-2.025-0.875s-0.875-1.2583-0.875-2.025 0.29167-1.4417 0.875-2.025 1.2583-0.875 2.025-0.875 1.4417 0.29167 2.025 0.875 0.875 1.2583 0.875 2.025-0.29167 1.4417-0.875 2.025-1.2583 0.875-2.025 0.875z"/>
 </g>
 <use id="use530" transform="translate(0 7.5962)" xlink:href="#g528"/>
 <use id="use532" transform="translate(0 7.5962)" xlink:href="#use530"/>
 <use id="use534" transform="translate(0 7.5962)" xlink:href="#use532"/>
 <use transform="translate(0 7.5962)" xlink:href="#use534"/>
</svg>
