<?xml version="1.0" encoding="UTF-8" standalone="no"?>
<svg
   width="48"
   height="48"
   version="1.1"
   id="svg1"
   xmlns="http://www.w3.org/2000/svg"
   xmlns:svg="http://www.w3.org/2000/svg">
  <defs
     id="defs1" />
  <path
     d="M 4.3398,3.9395 C 3.4481534,3.93776 3.3771628,4.5467411 3.48628,5.2897606 c 0,8.5851994 0,17.1703994 0,25.7555994 3.6666667,0 7.333333,0 11,0 0,3.328767 0,6.657533 0,9.9863 9.743333,0 19.486667,0 29.23,0 0,-9.035 0,-18.07 0,-27.105 -3.666667,0 -7.333333,0 -11,0 0,-3.328767 0,-6.6575333 0,-9.9863 C 23.257453,3.9400733 13.798627,3.9397867 4.3398,3.9395 Z m 1.1465,2 c 8.41,0 16.82,0 25.23,0 0,2.6621 0,5.3242 0,7.9863 -5.409667,0 -10.819333,0 -16.229,0 0,5.039667 0,10.079333 0,15.119 -3.000667,0 -6.0013333,0 -9.002,0 3.333e-4,-7.701767 6.667e-4,-15.403533 0.001,-23.1053 z m 11.002,9.9863 c 4.743,0 9.486,0 14.229,0 0,4.373 0,8.746 0,13.119 -4.743,0 -9.486,0 -14.229,0 0,-4.373 0,-8.746 0,-13.119 z m 16.229,0 c 3,0 6,0 9,0 0,7.701667 0,15.403333 0,23.105 -8.41,0 -16.82,0 -25.23,0 0,-2.6621 0,-5.3242 0,-7.9863 5.410333,0 10.820667,0 16.231,0 -3.33e-4,-5.039567 -6.67e-4,-10.079133 -10e-4,-15.1187 z"
     color="#000000"
     style="-inkscape-stroke:none"
     fill="currentColor"
     id="path1" />
</svg>
