<?xml version="1.0" encoding="UTF-8" standalone="no"?>
<!-- Created with Inkscape (http://www.inkscape.org/) -->

<svg
   width="24"
   height="24"
   viewBox="0 0 6.3499998 6.3499998"
   version="1.1"
   id="svg5"
   xmlns="http://www.w3.org/2000/svg"
   xmlns:svg="http://www.w3.org/2000/svg">
  <g>
    <path fill="#bebebe"
       d="m 3.1464844,0.51367187 -0.1347656,0.003906 -0.1328125,0.009766 -0.060547,0.007813 0.0625,0.49414065 0.046875,-0.00586 0.109375,-0.00977 0.109375,-0.00195 0.1113281,0.00195 0.070312,0.00586 0.037109,-0.4960937 -0.082031,-0.005859 z M 3.9023438,0.625 3.765625,1.1035156 l 0.015625,0.00391 0.099609,0.033203 0.097656,0.039063 0.09375,0.042969 0.091797,0.046875 0.00391,0.00195 L 4.4160156,0.83984375 4.4023437,0.83203125 4.2890625,0.7734375 4.171875,0.72070312 4.0527344,0.67382812 3.9296875,0.6328125 Z m -1.6152344,0.0332031 -0.044922,0.015625 -0.1191406,0.046875 -0.1171875,0.0527344 -0.1132813,0.0585938 -0.099609,0.0566406 0.2480469,0.43164062 0.087891,-0.050781 0.091797,-0.046875 0.095703,-0.042969 0.095703,-0.039063 0.035156,-0.011719 z m 2.5742187,0.49218748 -0.3242187,0.375 0.044922,0.041016 0.074219,0.070312 0.072266,0.074219 0.066406,0.078125 0.050781,0.0625 0.390625,-0.3066406 -0.058594,-0.072266 -0.082031,-0.095703 -0.087891,-0.091797 -0.089844,-0.085937 z m -3.5117187,0.074219 -0.064453,0.060547 -0.085937,0.091797 -0.083984,0.095703 -0.078125,0.099609 -0.0429688,0.0625 L 1.3984375,1.921875 1.4355469,1.8691406 1.5,1.7890625 l 0.066406,-0.078125 0.070312,-0.074219 0.056641,-0.052734 z m 4.1757812,0.7949219 -0.4511719,0.2050781 0.041016,0.091797 0.037109,0.095703 0.033203,0.099609 0.029297,0.1015625 0.00781,0.033203 0.484375,-0.1132813 -0.00977,-0.042969 L 5.6621094,2.3632813 5.6191406,2.2421875 5.5722656,2.1230469 Z m -4.7988281,0.089844 -0.005859,0.013672 -0.046875,0.1191406 -0.0410156,0.1210938 -0.0351563,0.1269531 -0.0292969,0.1269531 -0.005859,0.025391 0.4902344,0.085937 0.00195,-0.011719 0.023437,-0.1035156 0.029297,-0.1015625 0.033203,-0.099609 0.039063,-0.095703 v -0.00195 z m 5.0507812,0.9667969 -0.4960937,0.011719 0.00195,0.052734 v 0.011719 l -0.00391,0.1054687 -0.00781,0.1074219 -0.013672,0.1074219 -0.019531,0.1054687 v 0.00586 l 0.484375,0.1132812 0.00391,-0.019531 L 5.75,3.546875 5.765625,3.4160156 5.7753906,3.2832031 5.7792969,3.1523438 5.53125,3.1464844 5.7792969,3.140625 Z m -4.765625,0.097656 -0.4960937,0.011719 0.001953,0.097656 0.009766,0.1328125 0.0175781,0.1308594 0.0234375,0.1308594 0.0117188,0.050781 L 1.0644531,3.6171875 1.0546875,3.578125 1.0371094,3.4726563 1.0234375,3.3652344 1.0136719,3.2578125 Z m 4.0878907,0.8359375 -0.027344,0.0625 -0.046875,0.091797 -0.052734,0.089844 -0.054687,0.085937 -0.041016,0.058594 L 5.28125,4.6875 l 0.048828,-0.068359 0.068359,-0.1074219 0.0625,-0.109375 0.058594,-0.1132812 0.033203,-0.074219 z m -3.8925782,0.029297 -0.45312495,0.2050781 0.0195313,0.044922 0.0585938,0.1132812 0.0644531,0.109375 0.0683594,0.1074219 0.0664063,0.09375 0.4042969,-0.2871094 -0.058594,-0.085937 -0.056641,-0.085937 -0.050781,-0.089844 -0.046875,-0.091797 z m 3.3789063,0.6855469 -0.080078,0.070312 -0.082031,0.0625 -0.083984,0.060547 -0.085937,0.054687 -0.029297,0.017578 0.2480468,0.4316406 0.039063,-0.023437 0.1074219,-0.068359 0.1035156,-0.074219 0.099609,-0.078125 0.089844,-0.076172 z m -2.8535156,0.021484 -0.3242188,0.3769532 0.064453,0.054687 0.099609,0.078125 0.1035156,0.074219 0.1054688,0.068359 0.068359,0.039063 0.2480469,-0.4316406 -0.058594,-0.033203 -0.085937,-0.054687 -0.083984,-0.060547 -0.080078,-0.0625 z m 2.0839844,0.4277344 -0.035156,0.011719 -0.099609,0.029297 -0.1035156,0.023437 -0.1054687,0.019531 -0.091797,0.011719 0.0625,0.4941407 L 3.546875,5.75 l 0.1308594,-0.023437 0.1269531,-0.029297 0.125,-0.035156 0.046875,-0.015625 z M 2.5078125,5.1855469 2.3496094,5.65625 l 0.013672,0.00586 0.1269531,0.035156 0.1269531,0.029297 0.1289063,0.023437 0.1328125,0.015625 0.017578,0.00195 0.037109,-0.4960937 h -0.00586 L 2.8222656,5.2578125 2.7167969,5.2382812 2.6132813,5.2148437 2.5117188,5.1855469 Z"
       id="path910" />
  </g>
</svg>
