<?xml version="1.0" encoding="UTF-8" standalone="no"?>
<svg
   height="24"
   viewBox="0 0 24 24"
   width="24"
   version="1.1"
   id="svg6"
   sodipodi:docname="move-selection.svg"
   inkscape:version="1.1 (c68e22c387, 2021-05-23)"
   xmlns:inkscape="http://www.inkscape.org/namespaces/inkscape"
   xmlns:sodipodi="http://sodipodi.sourceforge.net/DTD/sodipodi-0.dtd"
   xmlns="http://www.w3.org/2000/svg"
   xmlns:svg="http://www.w3.org/2000/svg">
  <sodipodi:namedview
     id="namedview8"
     pagecolor="#ffffff"
     bordercolor="#666666"
     borderopacity="1.0"
     inkscape:pageshadow="2"
     inkscape:pageopacity="0.0"
     inkscape:pagecheckerboard="0"
     showgrid="false"
     inkscape:zoom="25.721009"
     inkscape:cx="16.931684"
     inkscape:cy="19.031135"
     inkscape:window-width="2560"
     inkscape:window-height="1377"
     inkscape:window-x="-8"
     inkscape:window-y="-8"
     inkscape:window-maximized="1"
     inkscape:current-layer="svg6" />
  <path fill="#bebebe"
     d="M 3,3 C 1.9,3 1,3.9 1,5 H 3 Z M 5,3 V 5 H 7 V 3 Z m 4,0 v 2 h 2 V 3 Z m 4,0 v 2 h 2 V 3 Z m 4,0 v 2 h 2 V 3 Z m 4,0 v 2 h 2 C 23,3.9000063 22.099994,3 21,3 Z M 12,6.5 9.5,9 H 11 v 1.5 h 2 V 9 h 1.5 z M 1,7 V 9 H 3 V 7 Z m 20,0 v 2 h 2 V 7 Z M 9,9.5 6.5,12 9,14.5 V 13 h 1.5 V 11 H 9 Z m 6,0 V 11 h -1.5 v 2 H 15 v 1.5 L 17.5,12 Z M 1,11 v 2 h 2 v -2 z m 20,0 v 2 h 2 V 11 Z M 11,13.5 V 15 H 9.5 L 12,17.5 14.5,15 H 13 V 13.5 Z M 1,15 v 2 h 2 v -2 z m 20,0 v 2 h 2 V 15 Z M 1,19 c 0,1.1 0.9,2 2,2 v -2 z m 4,0 v 2 h 2 v -2 z m 4,0 v 2 h 2 v -2 z m 4,0 v 2 h 2 v -2 z m 4,0 v 2 h 2 v -2 z m 4,0 v 2 c 1.1,0 2,-0.9 2,-2 z"
     id="path4" />
</svg>
