<?xml version="1.0" encoding="UTF-8" standalone="no"?>
<svg
   width="48"
   height="48"
   version="1.1"
   id="svg2"
   xmlns="http://www.w3.org/2000/svg"
   xmlns:svg="http://www.w3.org/2000/svg">
  <defs
     id="defs2" />
  <path
     d="M 19.729,35.691 C 9.2993886,36.087769 0.9223089,24.60854 4.5482576,14.796633 7.6445658,3.4145468 23.883481,0.14425246 31.411213,8.8524826 33.86249,11.483595 36.53332,16.765579 35.237183,19.7293 c -5.169494,0 -10.338989,0 -15.508483,0 10e-5,5.320567 2e-4,10.641133 3e-4,15.9617 z"
     fill="currentColor"
     id="path1" />
  <path
     d="m 24.61,25.017 c 6.847667,0 13.695333,0 20.543,0 0,5.830667 0,11.661333 0,17.492 -6.847667,0 -13.695333,0 -20.543,0 0,-5.830667 0,-11.661333 0,-17.492 z"
     fill="currentColor"
     id="path2" />
</svg>
