<?xml version="1.0" encoding="UTF-8" standalone="no"?>
<svg
   width="48"
   height="48"
   version="1.1"
   id="svg1"
   xmlns="http://www.w3.org/2000/svg"
   xmlns:svg="http://www.w3.org/2000/svg">
  <defs
     id="defs1" />
  <path
     d="m 39.182,1.9375 c -1.5493,7.527899 -3.370925,15.146458 -7.000553,21.978221 -0.917645,1.112877 -2.646658,5.130642 -4.262391,2.877183 C 24.577242,23.221077 22.566007,18.006686 17.702628,16.161799 14.11404,14.635499 9.8339275,16.354017 7.7899988,19.5516 4.138142,25.239742 3.0451195,32.08889 2.0466444,38.654704 1.7206807,41.070273 1.4593251,43.495343 1.29529,45.92749 c 2.6621,0.160807 5.3242,0.321613 7.9863,0.48242 0.5928454,-6.777607 1.359194,-13.683112 3.8946,-20.0512 0.657543,-1.148526 1.72526,-4.232815 2.93837,-1.722577 3.221404,3.640409 5.362507,8.758394 10.252665,10.492127 3.976081,1.538824 8.363661,-0.759674 10.680845,-4.044602 4.647815,-6.417995 6.786954,-14.211843 8.727205,-21.7862168 0.389522,-1.947657 1.132185,-4.1751438 1.15616,-5.9687814 C 44.34829,2.8649399 41.765145,2.4012199 39.182,1.9375 Z"
     color="#000000"
     style="-inkscape-stroke:none"
     fill="currentColor"
     id="path1" />
</svg>
