<?xml version="1.0" encoding="UTF-8" standalone="no"?>
<svg
   height="16"
   viewBox="0 0 16 16"
   width="16"
   version="1.1"
   id="svg15572"
   sodipodi:docname="base_v5.svg"
   inkscape:export-filename="palette.svg"
   inkscape:version="1.4.3 (0d15f75042, 2025-12-25)"
   xml:space="preserve"
   inkscape:export-xdpi="96"
   inkscape:export-ydpi="96"
   xmlns:inkscape="http://www.inkscape.org/namespaces/inkscape"
   xmlns:sodipodi="http://sodipodi.sourceforge.net/DTD/sodipodi-0.dtd"
   xmlns="http://www.w3.org/2000/svg"
   xmlns:svg="http://www.w3.org/2000/svg"><sodipodi:namedview
     id="namedview1"
     pagecolor="#ffffff"
     bordercolor="#000000"
     borderopacity="0.25"
     inkscape:showpageshadow="2"
     inkscape:pageopacity="0.0"
     inkscape:pagecheckerboard="0"
     inkscape:deskcolor="#d1d1d1"
     inkscape:zoom="22.627417"
     inkscape:cx="-5.4579805"
     inkscape:cy="7.0710678"
     inkscape:window-width="2560"
     inkscape:window-height="1403"
     inkscape:window-x="0"
     inkscape:window-y="0"
     inkscape:window-maximized="1"
     inkscape:current-layer="svg15572"><inkscape:page
       x="0"
       y="0"
       width="16"
       height="16"
       id="page2"
       margin="0"
       bleed="0" /></sodipodi:namedview><defs
     id="defs15576" /><inkscape:templateinfo><inkscape:name>morewaita-symbolic</inkscape:name><inkscape:date>2025-09-24</inkscape:date></inkscape:templateinfo><g
     id="g3"><circle
       cx="-5.7352424"
       cy="6.3757749"
       r="1.001822"
       id="circle1-6-3"
       transform="matrix(-0.96592583,0.25881905,0.25881905,0.96592583,0,0)"
       style="fill:#000000;fill-opacity:1;stroke-width:0.667881" /><path
       d="M 5.2143396,5.6875197 A 1.001822,1.001822 0 1 1 3.9869083,6.3967014 1.001822,1.001822 0 0 1 5.2143396,5.6875197 Z"
       id="path2-7-5"
       style="fill:#000000;fill-opacity:1;stroke-width:0.667881" /><path
       d="M 9.407644,4.5639272 A 1.001822,1.001822 0 1 1 9.4071902,5.981504 1.001822,1.001822 0 0 1 9.407644,4.5639272 Z"
       id="path3-5-6"
       style="fill:#000000;fill-opacity:1;stroke-width:0.667881" /><path
       d="M 11.780329,6.7354214 A 1.001822,1.001822 0 1 1 10.507615,7.3530202 0.99514316,0.99514316 0 0 1 11.780329,6.7354214 Z"
       id="path4-3-2"
       style="fill:#000000;fill-opacity:1;stroke-width:0.667881" /><path
       d="M 7.7988281,1.5214844 C 6.0762557,1.5761488 4.386782,2.3117203 3.1660156,3.6777344 1.2623397,5.8079109 1.0030516,8.8963601 2.4121094,11.287109 c 0.5404559,0.916992 1.6800585,1.08918 2.5332031,0.615235 l 1.1894531,-0.66211 c 0.066715,-0.03707 0.174542,-0.107597 0.25,-0.115234 0.023267,-0.0024 0.042757,0.0022 0.060547,0.0098 0.069362,0.02954 0.149659,0.138361 0.1601562,0.21289 0.030533,0.216779 -0.30851,0.422863 -0.3945312,0.611328 -0.3296263,0.423543 -0.4787791,0.973504 -0.3105469,1.490235 0.1682323,0.516731 0.6821633,0.901686 1.2402344,0.976562 1.4281447,0.191615 2.86038,-0.105127 4.078125,-0.800781 L 10.111328,12.515625 C 9.3282428,12.880607 8.4529005,13.041165 7.5722656,12.964844 7.4517595,12.9544 7.4088649,12.857718 7.4824219,12.761719 7.5653521,12.653487 7.6544945,12.54872 7.7363281,12.441406 8.275182,11.749023 8.1608636,10.807222 7.6835937,10.25 7.5717432,10.119412 7.435308,10.006652 7.2832031,9.9140625 7.1775924,9.8732494 7.0769387,9.8229424 6.9804687,9.765625 6.5323355,9.5972658 6.0018759,9.5996658 5.5273437,9.8632813 L 4.2167969,10.591797 c -0.1566026,0.087 -0.4684323,0.01035 -0.5136719,-0.06641 C 2.6208203,8.6890436 2.8134392,6.3204181 4.2832031,4.6757812 5.9587805,2.8008425 8.7517779,2.4665645 10.824219,3.890625 c 2.035042,1.3983629 2.733726,4.0527454 1.669922,6.265625 l 1.107422,1.109375 c 0.05768,-0.0989 0.113137,-0.199858 0.166015,-0.302734 C 15.256453,8.066219 14.356153,4.4987772 11.671875,2.6542969 10.497503,1.8473369 9.1386066,1.4789676 7.7988281,1.5214844 Z"
       style="baseline-shift:baseline;display:inline;overflow:visible;vector-effect:none;stroke-linecap:round;enable-background:accumulate;stop-color:#000000"
       id="path8" /></g><g
     fill="#222222"
     id="g2"
     transform="matrix(0,0.4188385,-0.4188385,0,27.763441,16.122074)"
     style="display:inline;fill:#000000;fill-opacity:1;stroke:none;stroke-width:0.477511;stroke-dasharray:none"
     inkscape:label="brush"><path
       d="m -16.653307,47.185881 c 0,1.469361 -1.191584,2.666138 -2.658349,2.658349 h -2.65835 v -2.658349 c 0,-1.469361 1.188988,-2.65835 2.65835,-2.65835 1.466765,0 2.658349,1.188989 2.658349,2.65835 z m 0,0"
       id="path1"
       style="fill:#000000;fill-opacity:1;stroke:none;stroke-width:0.477511;stroke-dasharray:none" /><path
       d="m -5.8625017,31.709095 c -0.386719,0.0078 -0.757812,0.171875 -1.03125,0.449218 L -17.864818,43.102037 c 0.90625,0.476562 2.145731,1.716044 2.622293,2.622294 L -4.2714567,34.784514 c 0.980468,-0.957031 -0.223857,-3.118388 -1.591045,-3.075419 z"
       id="path2"
       style="fill:#000000;fill-opacity:1;stroke:none;stroke-width:0.477511;stroke-dasharray:none;stroke-opacity:1"
       sodipodi:nodetypes="cccccc" /></g></svg>
